<?xml version="1.0" standalone="no"?>
<!DOCTYPE svg PUBLIC "-//W3C//DTD SVG 1.1//EN" "http://www.w3.org/Graphics/SVG/1.1/DTD/svg11.dtd" >
<svg xmlns="http://www.w3.org/2000/svg" xmlns:xlink="http://www.w3.org/1999/xlink" version="1.1">
<metadata>
Created by FontForge 20170924 at Sat Feb 24 22:24:17 2018
 By Marcello Perathoner,,,
Copyright (c) 2011 by Mihail Bayaryn. All rights reserved. 
</metadata>
<defs>
<font id="Siddhanta" horiz-adv-x="600" >
  <font-face 
    font-family="Siddhanta"
    font-weight="400"
    font-stretch="normal"
    units-per-em="2750"
    panose-1="2 0 5 0 2 0 0 2 0 2"
    ascent="2200"
    descent="-550"
    x-height="1427"
    cap-height="2005"
    bbox="-2050 -1850 4042 3400"
    underline-thickness="150"
    underline-position="-300"
    unicode-range="U+0020-FB02"
  />
<missing-glyph horiz-adv-x="0" 
 />
    <glyph glyph-name=".notdef" horiz-adv-x="0" 
 />
    <glyph glyph-name=".null" horiz-adv-x="0" 
 />
    <glyph glyph-name="nonmarkingreturn" horiz-adv-x="0" 
 />
    <glyph glyph-name="space" unicode=" " horiz-adv-x="1300" 
 />
    <glyph glyph-name="uni200B" unicode="&#x200b;" horiz-adv-x="0" 
 />
    <glyph glyph-name="afii61664" unicode="&#x200c;" horiz-adv-x="550" 
d="M-53 2320h106v-2723h-106v2723z" />
    <glyph glyph-name="afii301" unicode="&#x200d;" horiz-adv-x="550" 
d="M-53 2133l-196 -199l-72 71l251 248l-251 246l72 72l249 -251l249 251l72 -72l-251 -246l251 -248l-72 -71l-196 199v-2536h-106v2536z" />
    <glyph glyph-name="uni25CC" unicode="&#x25cc;" horiz-adv-x="1601" 
d="M383 1226l-142 142l141 141l142 -142zM1221 392l-142 142l141 141l142 -142zM1215 1230l-142 142l141 141l142 -142zM383 388l-142 142l141 141l142 -142zM191 807l-142 142l141 141l142 -142zM801 1417l-142 142l141 141l142 -142zM1407 808l-142 142l141 141l142 -142z
M800 199l-142 142l141 141l142 -142z" />
    <glyph glyph-name="OM" unicode="&#x950;" horiz-adv-x="2900" 
d="M208 808l142 -142q37 -78 101.5 -160.5t148.5 -150.5t185.5 -111.5t214.5 -43.5q94 0 160.5 30t108.5 77.5t61.5 107t19.5 119.5q0 144 -81.5 235t-229.5 129q-57 -33 -119.5 -56t-127.5 -34l-142 142l58 58q72 16 142 43t125.5 68t90 96.5t34.5 127.5q0 48 -18 94
t-51 82.5t-79 58.5t-102 22t-104 -13.5t-90 -35t-80.5 -48.5t-75.5 -53l-142 142l58 58q31 31 68.5 58.5t81 48t93.5 32t107 11.5q62 0 126 -25.5t123 -68t111 -97.5t90.5 -115.5t61 -121t22.5 -113.5q0 -70 -34.5 -136t-92.5 -123q35 -22 68 -46.5t64 -52.5q58 3 101 14
t77 33t62 55t55 80q25 42 53.5 89t62 93.5t73 89t87 74.5t103 51.5t121.5 19.5q68 0 139.5 -30t138 -81.5t125 -119.5t102.5 -144t69.5 -155.5t25.5 -153.5q0 -119 -42.5 -214t-109.5 -162.5t-150 -103.5t-164 -36q-69 0 -147 35t-151.5 94.5t-136 138t-99.5 166.5l58 58
l142 -142q54 -75 114.5 -112.5t135.5 -37.5q56 0 118 20.5t113.5 67t85 123t33.5 189.5q0 75 -23 147t-64.5 128t-99.5 90.5t-129 34.5q-59 0 -106.5 -15.5t-86 -40.5t-68.5 -56.5t-53 -65t-40.5 -65.5t-29.5 -57q-24 -47 -52.5 -93t-67.5 -85t-91 -68.5t-122 -43.5
q38 -63 60.5 -128.5t22.5 -131.5q0 -83 -35.5 -163.5t-98 -144.5t-147.5 -103t-185 -39q-76 0 -157 24.5t-164 70t-166 111.5t-161.5 149.5t-151 183t-134.5 211.5zM1373 2173l177 177l177 -177l-177 -176zM1058 2250l142 -142q19 -44 48 -97.5t72.5 -100.5t104 -78.5
t141.5 -31.5q69 0 122.5 30.5t92.5 74.5t63.5 93t35.5 86l58 58l142 -142q-7 -29 -24.5 -70t-44.5 -85.5t-63 -88t-81.5 -78.5t-100 -56.5t-116.5 -21.5q-88 0 -166.5 30.5t-146.5 80.5t-124.5 113t-99.5 129t-72 128.5t-41 110.5z" />
    <glyph glyph-name="svastika" unicode="&#xfd5;" horiz-adv-x="3000" 
d="M400 -200v200h1000v800h-1000v1200h200v-1000h800v1000h1200v-200h-1000v-800h1000v-1200h-200v1000h-800v-1000h-1200z" />
    <glyph glyph-name="svastika" unicode="&#xf120;" horiz-adv-x="3000" 
d="M400 -200v200h1000v800h-1000v1200h200v-1000h800v1000h1200v-200h-1000v-800h1000v-1200h-200v1000h-800v-1000h-1200z" />
    <glyph glyph-name="svastika1" unicode="&#xfd6;" horiz-adv-x="3000" 
d="M1400 -200v1000h-800v-1000h-200v1200h1000v800h-1000v200h1200v-1000h800v1000h200v-1200h-1000v-800h1000v-200h-1200z" />
    <glyph glyph-name="svastika1" unicode="&#xf121;" horiz-adv-x="3000" 
d="M1400 -200v1000h-800v-1000h-200v1200h1000v800h-1000v200h1200v-1000h800v1000h200v-1200h-1000v-800h1000v-200h-1200z" />
    <glyph glyph-name="svastika2" unicode="&#xfd7;" horiz-adv-x="3000" 
d="M400 -200v200h1000v800h-1000v1200h200v-1000h800v1000h1200v-200h-1000v-800h1000v-1200h-200v1000h-800v-1000h-1200zM1823 1400l177 177l177 -177l-177 -176zM1823 400l177 177l177 -177l-177 -176zM823 1400l177 177l177 -177l-177 -176zM823 400l177 177l177 -177
l-177 -176z" />
    <glyph glyph-name="svastika2" unicode="&#xf122;" horiz-adv-x="3000" 
d="M400 -200v200h1000v800h-1000v1200h200v-1000h800v1000h1200v-200h-1000v-800h1000v-1200h-200v1000h-800v-1000h-1200zM1823 1400l177 177l177 -177l-177 -176zM1823 400l177 177l177 -177l-177 -176zM823 1400l177 177l177 -177l-177 -176zM823 400l177 177l177 -177
l-177 -176z" />
    <glyph glyph-name="svastika3" unicode="&#xfd8;" horiz-adv-x="3000" 
d="M1400 -200v1000h-800v-1000h-200v1200h1000v800h-1000v200h1200v-1000h800v1000h200v-1200h-1000v-800h1000v-200h-1200zM1000 1224l-177 176l177 177l177 -177zM1000 224l-177 176l177 177l177 -177zM2000 1174l-177 176l177 177l177 -177zM2000 224l-177 176l177 177
l177 -177z" />
    <glyph glyph-name="svastika3" unicode="&#xf123;" horiz-adv-x="3000" 
d="M1400 -200v1000h-800v-1000h-200v1200h1000v800h-1000v200h1200v-1000h800v1000h200v-1200h-1000v-800h1000v-200h-1200zM1000 1224l-177 176l177 177l177 -177zM1000 224l-177 176l177 177l177 -177zM2000 1174l-177 176l177 177l177 -177zM2000 224l-177 176l177 177
l177 -177z" />
    <glyph glyph-name="cakram" unicode="&#x2638;" horiz-adv-x="2600" 
d="M592 52l-141 141l144 144q-41 50 -86 128.5t-70.5 170.5t-33.5 164h-205v200h205q8 72 33.5 164t71 170t85.5 129l-144 145l141 141l145 -145q50 40 128.5 86t170.5 71.5t164 33.5v205h200v-206q71 -7 163 -32.5t170 -71.5t128 -86l145 145l142 -141l-145 -145
q41 -51 87 -129t71.5 -170t33.5 -164h205v-200h-205q-8 -72 -33.5 -164t-71.5 -170.5t-86 -128.5l144 -144l-142 -141l-144 143q-51 -40 -129 -85.5t-170 -71t-163 -33.5v-205h-200v205q-72 8 -164 33.5t-170.5 71t-129.5 86.5zM1570 1030q3 -6 6.5 -14t6.5 -16h410
q-7 43 -25 109t-51 122.5t-57 88.5zM880 339q32 -23 88.5 -56t122 -51.5t109.5 -25.5v410q-9 3 -30 13zM1860 480q24 32 57 88.5t51 122t25 109.5h-410q-3 -9 -6.5 -16.5t-5.5 -13.5zM1171 1171q6 3 13 6t16 6v410q-44 -6 -109.5 -24.5t-122 -51.5t-88.5 -57zM1017 1000
q3 8 6 15.5t6 13.5l-290 290q-24 -32 -56.5 -88t-51 -121.5t-25.5 -109.5h411zM1400 207q43 6 109 24.5t122 51t88 56.5l-290 290q-6 -3 -13.5 -6t-15.5 -6v-410zM606 800q7 -44 25.5 -109.5t51 -121.5t55.5 -88l290 290q-2 6 -5 13t-6 16h-411zM1400 1183q8 -3 15.5 -6
t12.5 -6l290 290q-31 23 -87 56t-122 51t-109 25v-410zM1200 900q0 -42 29 -71t71 -29t71 29t29 71t-29 71t-71 29t-71 -29t-29 -71z" />
    <glyph glyph-name="cakram" unicode="&#xf127;" horiz-adv-x="2600" 
d="M592 52l-141 141l144 144q-41 50 -86 128.5t-70.5 170.5t-33.5 164h-205v200h205q8 72 33.5 164t71 170t85.5 129l-144 145l141 141l145 -145q50 40 128.5 86t170.5 71.5t164 33.5v205h200v-206q71 -7 163 -32.5t170 -71.5t128 -86l145 145l142 -141l-145 -145
q41 -51 87 -129t71.5 -170t33.5 -164h205v-200h-205q-8 -72 -33.5 -164t-71.5 -170.5t-86 -128.5l144 -144l-142 -141l-144 143q-51 -40 -129 -85.5t-170 -71t-163 -33.5v-205h-200v205q-72 8 -164 33.5t-170.5 71t-129.5 86.5zM1570 1030q3 -6 6.5 -14t6.5 -16h410
q-7 43 -25 109t-51 122.5t-57 88.5zM880 339q32 -23 88.5 -56t122 -51.5t109.5 -25.5v410q-9 3 -30 13zM1860 480q24 32 57 88.5t51 122t25 109.5h-410q-3 -9 -6.5 -16.5t-5.5 -13.5zM1171 1171q6 3 13 6t16 6v410q-44 -6 -109.5 -24.5t-122 -51.5t-88.5 -57zM1017 1000
q3 8 6 15.5t6 13.5l-290 290q-24 -32 -56.5 -88t-51 -121.5t-25.5 -109.5h411zM1400 207q43 6 109 24.5t122 51t88 56.5l-290 290q-6 -3 -13.5 -6t-15.5 -6v-410zM606 800q7 -44 25.5 -109.5t51 -121.5t55.5 -88l290 290q-2 6 -5 13t-6 16h-411zM1400 1183q8 -3 15.5 -6
t12.5 -6l290 290q-31 23 -87 56t-122 51t-109 25v-410zM1200 900q0 -42 29 -71t71 -29t71 29t29 71t-29 71t-71 29t-71 -29t-29 -71z" />
    <glyph glyph-name="puSpa" unicode="&#x2740;" horiz-adv-x="2200" 
d="M852 114q-29 37 -42 85q-29 -17 -60.5 -24.5t-63.5 -7.5q-62 0 -119.5 26t-102.5 71t-70.5 102t-25.5 119q0 32 7 63q8 32 25 62q-48 13 -85.5 42.5t-63 68.5t-38.5 85t-13 94t13 94t38.5 85t63 68t85.5 43q-32 58 -32 125q0 62 25.5 119.5t70.5 102.5q44 44 101.5 69.5
t119.5 25.5q67 0 125 -32q13 48 42.5 85t68.5 62.5t85 39t94 13.5t94 -13.5t85 -39t68 -62.5t43 -85q30 17 62 25t64 8q61 0 118.5 -25.5t102.5 -70.5t70.5 -102.5t25.5 -118.5q0 -66 -33 -126q48 -14 85 -43t62.5 -68t39 -85t13.5 -94t-13.5 -94t-39 -85t-62.5 -68.5
t-85 -42.5q33 -60 33 -126q0 -61 -25.5 -118t-70.5 -102t-102.5 -71t-119.5 -26q-32 0 -63.5 8t-61.5 25q-14 -48 -43 -85.5t-68 -63t-85 -38.5t-94 -13t-94 13t-85 38.5t-69 62.5zM646 775q99 26 260 77q-6 22 -6 48q0 24 6 47q-161 52 -260 77.5t-146 25.5q-38 0 -66 -12
t-46.5 -33t-28 -48t-9.5 -57q0 -66 37.5 -108t112.5 -42q47 0 146 25zM1250 300q0 46 -26 145q-25 100 -77 261q-23 -6 -47 -6q-26 0 -48 6q-52 -161 -77 -260t-25 -146q0 -38 12 -66t33 -46.5t48 -28t57 -9.5q66 0 108 37.5t42 112.5zM975 1354q26 -99 78 -260q22 6 47 6
q12 0 24 -2t23 -4q51 161 77 260t26 146q0 75 -42 112.5t-108 37.5q-30 0 -57 -9.5t-48 -28t-33 -47t-12 -65.5q0 -47 25 -146zM1250 1030q11 -12 20 -26q150 77 239 129t122 85q26 26 38 53t12 53q0 56 -51 107q-23 23 -50 35t-56 12q-26 0 -53 -11t-52 -36
q-12 -12 -26.5 -31.5t-31.5 -45.5q-23 -60 -56.5 -134t-78.5 -166q14 -11 24 -24zM1300 900q0 -12 -2 -24t-4 -23q160 -52 259.5 -77.5t146.5 -25.5q75 0 112.5 42t37.5 108q0 30 -9.5 57t-28 48t-47 33t-65.5 12q-17 0 -40 -3.5t-53 -9.5q-59 -27 -135 -55.5t-173 -62.5z
M599 1192q19 -13 45 -30q61 -23 135 -56.5t167 -78.5q12 15 27 27q-45 94 -79 168.5t-57 134.5q-16 26 -30 44t-25 30q-25 25 -51.5 36t-52.5 11q-29 0 -57 -12.5t-51 -35.5q-24 -24 -37 -50.5t-13 -55.5q0 -26 12 -53t38 -53q11 -12 29 -26zM1304 580q34 -73 56 -133
q17 -27 32 -46t27 -31q50 -50 105 -50q29 0 56 13t51 37q23 23 35.5 50.5t12.5 56.5q0 26 -11.5 53t-36.5 52q-22 21 -72 55q-61 22 -136 56t-169 80q-12 -15 -28 -28q45 -91 78 -165zM782 370q23 23 56 74q22 61 56 135t79 167q-13 11 -28 27q-92 -45 -166 -78.5
t-134 -56.5q-26 -17 -44.5 -30.5t-30.5 -25.5q-25 -25 -36.5 -52t-11.5 -53q0 -29 12.5 -56.5t35.5 -50.5q50 -50 107 -50q55 0 105 50zM1000 900q0 -42 29 -71t71 -29t71 29t29 71t-29 71t-71 29t-71 -29t-29 -71z" />
    <glyph glyph-name="zUnyam" unicode="&#x966;" horiz-adv-x="1600" 
d="M500 966q0 -125 70.5 -195.5t195.5 -70.5q69 0 130 26.5t106 71.5t71.5 106t26.5 130q0 125 -70.5 195.5t-195.5 70.5q-69 0 -130 -26.5t-106 -71.5t-71.5 -106t-26.5 -130zM596 587q-61 40 -115 94t-94 115t-63.5 126t-23.5 128q0 94 35 176t96 143t143 96t176 35
q62 0 127.5 -23.5t126.5 -63.5t115 -94t94 -115t63.5 -126.5t23.5 -127.5q0 -94 -35 -176t-96 -143t-143 -96t-176 -35q-63 0 -128 23.5t-126 63.5z" />
    <glyph glyph-name="ekam" unicode="&#x967;" horiz-adv-x="1400" 
d="M700 -50l58 58q16 6 32 14.5t29.5 23t22 35.5t8.5 53q0 25 -19.5 56t-51 66t-72 72.5t-82.5 75.5t-82.5 76.5t-72 74.5t-51 69t-19.5 61q0 22 22.5 55t59 74t83 88t94.5 98q-73 55 -138.5 112.5t-114.5 116.5t-77.5 119t-28.5 120q0 49 19 107.5t58 108t98.5 83
t140.5 33.5q52 0 108.5 -23t110.5 -62t102 -90t84 -106.5t57.5 -112t21.5 -106.5q0 -47 -21.5 -98t-56.5 -103t-80 -104t-92 -101t-92 -94t-80 -83t-56.5 -67.5t-21.5 -48.5q0 -35 33.5 -77.5t83.5 -89t108 -96t108 -99t83.5 -97.5t33.5 -92q0 -47 -17.5 -84.5t-46 -67.5
t-66.5 -52t-78 -38zM734 1081q34 39 64.5 78.5t53 78t35.5 75.5t13 71q0 43 -13.5 82.5t-39.5 69t-63 47t-84 17.5q-46 0 -83 -17.5t-63 -47t-40 -69t-14 -82.5q0 -42 17.5 -81t47 -74t68.5 -67t83 -62z" />
    <glyph glyph-name="dve" unicode="&#x968;" horiz-adv-x="1700" 
d="M1450 -100l-142 142l-391 573q-65 -15 -133 -15q-46 0 -92.5 17.5t-89 46t-79.5 65t-64.5 73.5t-43 71.5t-15.5 60.5q0 25 12.5 54t35 54t53 41.5t65.5 16.5q66 0 144 -66t185 -202q70 25 126.5 66.5t96.5 95.5t61 119t21 137q0 75 -30 139t-80.5 111t-116.5 73.5
t-139 26.5q-69 0 -123.5 -12t-100 -32.5t-84.5 -48t-76 -57.5l-142 142l58 58q31 27 67 54t81.5 48t103 34.5t132.5 13.5q69 0 144.5 -27t147.5 -74t137 -109.5t114 -133t78 -145t29 -145.5q0 -68 -26 -142t-74.5 -144t-117.5 -130t-154 -98l480 -694zM737 801q19 1 37 3
q-45 54 -73.5 75t-50.5 21q-20 0 -35 -12.5t-15 -37.5q0 -11 8.5 -20t22.5 -16t32 -10.5t37 -3.5t37 1z" />
    <glyph glyph-name="trINi" unicode="&#x969;" horiz-adv-x="1700" 
d="M1342 -150l-142 142l-228 268q-32 -5 -66 -7.5t-72 -2.5q-55 0 -108.5 16.5t-101.5 43.5t-89 62t-71 72.5t-47 73.5t-17 66q0 43 16.5 74.5t41.5 52t54 30t54 9.5q56 0 144 -75.5t210 -209.5q80 15 133.5 44.5t86 67.5t46.5 82.5t14 90.5q0 55 -24.5 100t-65 78
t-92.5 51.5t-107 20.5h-311l-142 142l58 58h334q75 0 123.5 17t76.5 45.5t39 64t11 73.5q0 37 -18 73t-51 64.5t-79 45.5t-102 17h-400l-142 142l58 58h400q58 0 120.5 -23t122 -61.5t112.5 -88.5t92.5 -103.5t63 -107t23.5 -99.5t-11.5 -85t-32 -71.5t-48.5 -58t-60 -44.5
q52 -41 98 -90t80 -102t54 -108t20 -108q0 -45 -18.5 -97.5t-57.5 -103t-100 -94t-146 -70.5l322 -377zM803 451q-51 52 -86 75.5t-67 23.5q-23 0 -36.5 -15.5t-13.5 -34.5q0 -50 150 -50h27t26 1z" />
    <glyph glyph-name="catvAri" unicode="&#x96a;" horiz-adv-x="1700" 
d="M200 1742l58 58l583 -550l517 550l142 -142l-513 -543q106 -99 184 -177.5t129 -143.5t75.5 -120.5t24.5 -107.5q0 -34 -14 -74t-40 -80.5t-62 -78.5t-79.5 -67.5t-93 -47.5t-102.5 -18q-65 0 -131.5 23t-128.5 62t-116.5 90t-95 106.5t-64 112t-23.5 106.5q0 45 22 94.5
t64.5 108t104 128.5t140.5 155zM1049 923q-52 57 -124 127q-68 -72 -119.5 -129.5t-86 -108.5t-52 -98.5t-17.5 -97.5q0 -38 18.5 -76t53.5 -69.5t86 -51t117 -19.5t117 25t86 62.5t53.5 81t18.5 81.5q0 40 -16 81t-49.5 88.5t-85.5 103.5z" />
    <glyph glyph-name="paYca" unicode="&#x96b;" horiz-adv-x="1750" 
d="M1350 -84l58 58q26 26 34 58.5t8 67.5q0 47 -26 110t-67.5 135.5t-93.5 151.5l-104 158q-50 -26 -106.5 -40.5t-118.5 -14.5q-71 0 -145.5 24t-145 66.5t-133 101.5t-109.5 129t-74 149.5t-27 162.5q0 63 15.5 137t34.5 144.5t34.5 128.5t15.5 89l58 58l142 -142
q0 -25 -7.5 -60.5t-18.5 -78.5t-24 -90.5t-24 -94.5t-18.5 -92t-7.5 -82q0 -94 26.5 -160.5t73.5 -108.5t111 -61.5t139 -19.5q54 0 102 10.5t89 29.5q-48 80 -77.5 149t-29.5 120q0 30 10.5 56t29 44.5t44 29.5t55.5 11q27 0 61 -13.5t68.5 -37t67 -54t58 -65t41 -70.5
t15.5 -69q0 -51 -33 -108t-90 -108q38 -62 82 -128t87 -131.5t83 -129t70.5 -121.5t48.5 -109t18 -90q0 -77 -38.5 -138.5t-119.5 -103.5zM1134 1025q0 -40 20 -94q14 22 22 45t8 49q0 25 -27 25q-10 0 -16.5 -7t-6.5 -18z" />
    <glyph glyph-name="paYca" unicode="&#xf115;" horiz-adv-x="1750" 
d="M1350 -84l58 58q26 26 34 58.5t8 67.5q0 47 -26 110t-67.5 135.5t-93.5 151.5l-104 158q-50 -26 -106.5 -40.5t-118.5 -14.5q-71 0 -145.5 24t-145 66.5t-133 101.5t-109.5 129t-74 149.5t-27 162.5q0 63 15.5 137t34.5 144.5t34.5 128.5t15.5 89l58 58l142 -142
q0 -25 -7.5 -60.5t-18.5 -78.5t-24 -90.5t-24 -94.5t-18.5 -92t-7.5 -82q0 -94 26.5 -160.5t73.5 -108.5t111 -61.5t139 -19.5q54 0 102 10.5t89 29.5q-48 80 -77.5 149t-29.5 120q0 30 10.5 56t29 44.5t44 29.5t55.5 11q27 0 61 -13.5t68.5 -37t67 -54t58 -65t41 -70.5
t15.5 -69q0 -51 -33 -108t-90 -108q38 -62 82 -128t87 -131.5t83 -129t70.5 -121.5t48.5 -109t18 -90q0 -77 -38.5 -138.5t-119.5 -103.5zM1134 1025q0 -40 20 -94q14 22 22 45t8 49q0 25 -27 25q-10 0 -16.5 -7t-6.5 -18z" />
    <glyph glyph-name="SaT" unicode="&#x96c;" horiz-adv-x="1600" 
d="M1492 -58q-103 103 -189 186.5t-155 153.5q-48 -15 -101.5 -23.5t-112.5 -8.5q-71 0 -145.5 23.5t-145 63.5t-133 94t-109.5 115t-74 126.5t-27 127.5q0 52 17 102.5t48.5 96.5t75.5 84.5t97 65.5q-48 41 -91.5 87t-76 92.5t-51.5 91t-19 80.5q0 75 32 131t83.5 93.5
t117 56.5t133.5 19h442l142 -142l-58 -58h-442q-46 0 -91 -10t-80 -32t-57 -57t-22 -85q0 -44 25 -83t62.5 -68.5t81 -47t81.5 -17.5h308l142 -142l-58 -58h-308q-69 0 -130 -18.5t-106 -54.5t-71.5 -89t-26.5 -122q0 -71 33.5 -121.5t85 -82.5t113.5 -47t118 -15q38 0 71 3
t62 8q-41 51 -62 93.5t-21 79.5q0 30 12.5 56t32.5 44.5t45 29.5t51 11q27 0 60.5 -13.5t68 -36.5t67 -54t57.5 -65.5t40.5 -70.5t15.5 -69q0 -42 -30 -79t-81 -66q32 -38 73.5 -81.5t95.5 -97.5l142 -142zM1100 550q0 -20 11 -46q39 24 39 46q0 11 -7.5 18t-17.5 7
q-25 0 -25 -25z" />
    <glyph glyph-name="sapta" unicode="&#x96d;" horiz-adv-x="2200" 
d="M358 1758l142 -142q12 -167 45 -325.5t84.5 -299t120.5 -258.5t153.5 -203t184 -132.5t212.5 -47.5q72 0 133 21t108.5 61t81.5 97t53 128q-88 12 -169 41t-150.5 70t-126 92.5t-96.5 108t-62 115.5t-22 116q0 53 23 106.5t63.5 96.5t95.5 70t118 27q62 0 127.5 -25.5
t126.5 -72.5t115 -113t94 -147.5t63.5 -176.5t23.5 -199q0 -79 -16.5 -155.5t-47.5 -145t-75.5 -126t-102 -100t-126.5 -66t-148 -23.5q-121 0 -245 56t-240 157t-219.5 243t-183.5 314.5t-131.5 370t-64.5 409.5zM1524 868q82 -18 176 -18q0 94 -18 176t-52.5 143t-84 96
t-111.5 35q-45 0 -79.5 -14.5t-57.5 -40t-35 -59t-12 -70.5q0 -62 35 -111.5t96 -84t143 -52.5z" />
    <glyph glyph-name="aSTau" unicode="&#x96e;" horiz-adv-x="1600" 
d="M600 966q-42 -42 -78.5 -83.5t-63.5 -85.5t-42.5 -92.5t-15.5 -104.5q0 -50 15.5 -88t40.5 -65.5t56.5 -46.5t65 -30t65.5 -15.5t57 -4.5q75 0 134.5 16.5t112 47t101.5 74t102 96.5l58 58l142 -142q-56 -65 -114 -127.5t-125.5 -112t-147 -80t-179.5 -30.5
q-59 0 -125 20t-130.5 55.5t-124 85t-105 109t-72.5 126.5t-27 138q0 62 17 113t45.5 94.5t64 82t73.5 76.5l750 750l142 -142z" />
    <glyph glyph-name="nava" unicode="&#x96f;" horiz-adv-x="1600" 
d="M1050 0l58 58q18 16 35 34.5t29.5 39.5t20 46t7.5 56q0 29 -4.5 56t-18 57.5t-38.5 67t-65.5 84.5t-99.5 109t-140 142q-125 124 -224 217.5t-168 171.5t-105.5 148t-36.5 147q0 70 30.5 136t81.5 117t117 82t137 31q58 0 120.5 -23.5t122 -63t112.5 -92.5t92.5 -112.5
t63 -122t23.5 -120.5q0 -66 -27 -127t-73.5 -115t-108 -100.5t-130.5 -84.5q96 -94 173 -169t137 -136.5t103 -112t71 -95.5t41.5 -87.5t13.5 -88.5q0 -47 -19 -89t-49 -78t-67 -67.5t-73 -57.5zM617 1088q37 -42 83 -88q51 19 104 52t96.5 78t71.5 100.5t28 119.5
q0 56 -21.5 102t-56.5 79t-80 51t-92 18t-92 -18t-80 -51t-56.5 -79t-21.5 -102q0 -50 14 -93.5t40 -85t63 -83.5z" />
    <glyph glyph-name="ekam1" unicode="&#xf112;" horiz-adv-x="1450" 
d="M1284 -200q-75 40 -144.5 88t-122.5 108t-85 135t-32 169v619q-61 18 -129 51t-135 76.5t-127.5 95.5t-107 108.5t-74 116t-27.5 117.5q0 49 18.5 105t56 102.5t94 77.5t131.5 31q58 0 118 -23.5t115.5 -63t104 -92.5t84.5 -112.5t57 -122t21 -120.5v-1050q0 -36 6.5 -65
t19 -54.5t31 -48.5t43.5 -48l142 -142zM900 1350q0 45 -12.5 90t-39 80.5t-67.5 57.5t-97 22q-41 0 -74.5 -14t-58 -40t-38 -63t-13.5 -83q0 -66 34.5 -116t90.5 -86t128 -60t147 -38v250z" />
    <glyph glyph-name="catvAri1" unicode="&#xf113;" horiz-adv-x="1650" 
d="M671 974q-77 64 -145 123t-118 117t-79 116t-29 120q0 47 17 89t45.5 79t64 70t73.5 62l142 -142l-58 -58q-41 -45 -62.5 -87.5t-21.5 -96.5q0 -33 5.5 -60.5t19 -52.5t36 -50t55.5 -53l140 -117q124 88 244 172q42 29 70.5 57t46.5 57t25.5 61t7.5 70q0 25 -3 44.5
t-10 37.5t-18 36t-27 40l-142 142l58 58q75 -52 138 -103t108 -104.5t70.5 -111.5t25.5 -123q0 -44 -12 -84.5t-42 -83.5t-81.5 -90t-130.5 -103l-160 -112q87 -73 164.5 -139t135.5 -129.5t92 -127t34 -131.5q0 -81 -39.5 -148.5t-103 -115.5t-142 -75t-156.5 -27
q-57 0 -124 22.5t-134.5 61t-131 90.5t-112 111t-78 123t-29.5 126t19 111t53.5 91.5t84 82t109.5 81.5zM650 700q-33 -23 -60.5 -48.5t-47.5 -55.5t-31 -65.5t-11 -80.5q0 -56 31.5 -102t79.5 -79t105.5 -51t108.5 -18q65 0 124 18t103.5 51t71 79t26.5 102q0 75 -39.5 133
t-110.5 117l-160 133z" />
    <glyph glyph-name="paYca1" unicode="&#xf114;" horiz-adv-x="1600" 
d="M1242 -58l-142 142q-79 87 -141.5 152.5t-113.5 114.5q-27 -15 -49.5 -24.5t-46.5 -15.5t-51.5 -8.5t-63.5 -2.5q-34 0 -71.5 15.5t-74.5 40.5t-71 57.5t-60 67t-41.5 68t-15.5 60.5q0 34 16.5 60.5t41.5 44.5t54 27t54 9q32 0 64.5 -11t68.5 -34.5t78 -59.5t93 -86
q67 52 116.5 148.5t86.5 221.5q-60 -29 -123 -29t-128 24.5t-126 73t-115 120t-94 165t-63.5 208.5t-23.5 251l58 58l142 -142q0 -172 18 -280.5t52.5 -170t84 -84.5t111.5 -23q60 0 106 19.5t82 60t63 103.5t50 151l33 308l58 58l142 -142l-33 -308q-17 -151 -42 -293.5
t-65.5 -266t-98.5 -223t-139 -165.5q75 -80 167.5 -178.5t210.5 -223.5zM605 502q28 3 54 9q-36 23 -61.5 31t-47.5 8q-50 0 -50 -25q0 -10 13.5 -17.5t36.5 -7.5q27 0 55 2z" />
    <glyph glyph-name="SaT1" unicode="&#xf116;" horiz-adv-x="1550" 
d="M1384 -100q-96 96 -175.5 171t-143.5 137q-26 -4 -54.5 -6t-60.5 -2q-66 0 -136.5 23.5t-137 63t-126 92.5t-104 112.5t-70.5 122t-26 120.5q0 95 47 170.5t130 123.5q-49 37 -90.5 81.5t-72 91t-47.5 93.5t-17 90q0 56 27 101.5t70.5 79t97.5 54.5t107 28
q-66 63 -109 134.5t-43 152.5q0 43 16.5 82.5t46 69t69 47t84.5 17.5q31 0 57 -4t48.5 -11.5t43.5 -18t43 -24.5l142 -142l-58 -58q-35 16 -62 27.5t-49.5 18t-42 9.5t-38.5 3q-43 0 -71.5 -25t-28.5 -75q0 -23 9.5 -50.5t28 -54.5t46.5 -51.5t66 -43.5h208l142 -142
l-58 -58h-358q-123 0 -178.5 -37.5t-55.5 -112.5q0 -38 18 -73.5t52.5 -64t84 -45.5t111.5 -17h234l142 -142l-58 -58h-184q-94 0 -160.5 -17.5t-108.5 -50.5t-61.5 -79.5t-19.5 -102.5t26 -102t69.5 -79t101 -51t119.5 -18h28q-22 35 -33 67.5t-11 66.5q0 28 14 57.5
t37 53.5t53 39.5t62 15.5q35 0 70 -15t66.5 -39.5t58.5 -55.5t47 -62.5t31 -61t11 -50.5q0 -18 -4 -41.5t-18 -49t-40.5 -49.5t-70.5 -42q27 -29 60 -61.5t73 -72.5l142 -142zM1050 438q0 -5 1 -10q22 11 35.5 28.5t13.5 43.5q-9 0 -17.5 -5t-16 -12.5t-12 -16.5t-4.5 -16
v-12z" />
    <glyph glyph-name="aSTau1" unicode="&#xf117;" horiz-adv-x="2300" 
d="M1492 392l58 58q75 22 112.5 63t37.5 87q0 19 -9 37t-24.5 32t-36.5 22.5t-46 8.5q-50 0 -111 -23.5t-127 -51.5t-133 -51.5t-129 -23.5q-59 0 -125 23.5t-130.5 65.5t-124 98.5t-105 123.5t-72.5 140.5t-27 148.5q0 57 17.5 116.5t48.5 117.5t73.5 113t91.5 103h-331
l-142 142l58 58h1584l142 -142l-58 -58h-834q-59 -13 -115 -41t-106 -67.5t-92 -89.5t-72.5 -105t-47.5 -114t-17 -117q0 -81 26 -140.5t68 -98.5t96 -58t110 -19t120 23.5t130 51.5t130 51.5t120 23.5q37 0 81.5 -19t89 -50.5t86 -72t73.5 -83.5t51 -84.5t19 -74.5
q0 -98 -70.5 -163t-195.5 -103z" />
    <glyph glyph-name="nava1" unicode="&#xf118;" horiz-adv-x="1500" 
d="M1350 0q-125 87 -251.5 186t-243 206t-218 221t-176.5 233t-118 241.5t-43 246.5q0 107 37.5 193.5t95.5 147t129 93t138 32.5q62 0 123.5 -22.5t117 -60t103 -86.5t82.5 -103t54.5 -108.5t19.5 -103.5q0 -62 -27 -127t-75 -118t-115.5 -87t-148.5 -34l-142 142l58 58
q56 0 102 18t79 51t51 79t18 102q0 42 -15.5 78.5t-44 63.5t-68 42.5t-88.5 15.5q-69 0 -122 -26.5t-89 -73.5t-54.5 -111t-18.5 -139q0 -150 61 -295t166 -279t244 -254.5t295 -221.5l142 -142z" />
    <glyph glyph-name="nava2" unicode="&#xf119;" horiz-adv-x="1600" 
d="M1384 -200q-69 19 -152 57.5t-172 93t-180 122.5t-175.5 145.5t-158.5 162t-128.5 172t-86 175.5t-31.5 172q0 69 24.5 135t66 120.5t97 92t117.5 48.5q-27 45 -41 95t-14 109q0 56 26 110t68 96t96 68t110 26q75 0 134.5 -23.5t115.5 -71.5t115.5 -120t134.5 -169
l-58 -58l-142 142q-19 19 -38.5 37t-44.5 32t-57.5 22.5t-75.5 8.5q-50 0 -85 -17t-57 -43.5t-32 -59.5t-10 -64q0 -62 21 -104.5t53 -73.5t70 -54t72 -46l142 -142l-58 -58q-57 34 -108.5 65.5t-97.5 63.5q-31 17 -57 25t-53 8q-37 0 -78 -16.5t-75.5 -51t-57.5 -88
t-23 -128.5q0 -92 31.5 -177.5t87 -163.5t131.5 -148t165 -130t187 -110t198 -87l142 -142z" />
    <glyph glyph-name="nava3" unicode="&#xf11a;" horiz-adv-x="1750" 
d="M1142 -108l58 58q75 22 112.5 63t37.5 87q0 19 -9 37t-24.5 32t-36.5 22.5t-46 8.5q-27 0 -58.5 -15t-65.5 -37t-71.5 -48t-76.5 -48t-80 -37t-82 -15q-52 0 -106 16t-104 44.5t-93.5 68.5t-76 88.5t-51.5 103.5t-19 113q0 86 40 166.5t115 149.5h-205l-142 142l58 58
h857q-95 62 -173 129t-133.5 136.5t-86 141t-30.5 143.5q0 56 22.5 110t62 96t94.5 68t121 26q75 0 134.5 -23.5t115.5 -71.5t115.5 -120t134.5 -169l-58 -58l-142 142q-19 19 -38.5 37t-44.5 32t-57.5 22.5t-75.5 8.5q-50 0 -85 -17t-57 -43.5t-32 -59.5t-10 -64
q0 -62 29 -121.5t90.5 -117.5t158 -114.5t230.5 -112.5l142 -142l-58 -58h-392q-113 -19 -205 -55.5t-157.5 -88t-101.5 -116.5t-36 -140t45.5 -112.5t120.5 -37.5q31 0 65 15t69.5 37t73 48t75 48t75.5 37t76 15q44 0 90.5 -17.5t91 -47t84 -68t69.5 -81t47.5 -86.5
t17.5 -84q0 -98 -70.5 -163t-195.5 -103z" />
    <glyph glyph-name="saMkSepa" unicode="&#x970;" horiz-adv-x="1400" 
d="M513 1201q13 -30 35.5 -52.5t53 -35.5t64.5 -13q50 0 93 17.5t74.5 49t49 74.5t17.5 93q0 34 -13 64.5t-35.5 53t-53 35.5t-64.5 13q-50 0 -93 -17.5t-74.5 -49t-49 -74.5t-17.5 -93q0 -34 13 -65zM459 1050q-46 44 -81.5 94t-56.5 103t-21 103q0 75 26.5 139t73.5 111
t111 73.5t139 26.5q44 0 94 -19.5t100 -53t96.5 -77.5t82 -94t56.5 -103t21 -103q0 -75 -26.5 -139t-73.5 -111t-111 -73.5t-139 -26.5q-44 0 -94 19.5t-100 53t-97 77.5z" />
    <glyph glyph-name="spacingdot" unicode="&#x971;" horiz-adv-x="1150" 
d="M400 1700l175 177l175 -177l-175 -176z" />
    <glyph glyph-name="zirorekhA" unicode="&#xa8fb;" horiz-adv-x="2050" 
d="M542 1600l-142 142l58 58h1034l142 -142l-58 -58h-1034z" />
    <glyph glyph-name="dev_caret" unicode="&#xa8fa;" horiz-adv-x="0" 
d="M408 2392l142 -142l-450 -450h-16l-542 542l58 58l400 -400h16z" />
    <glyph glyph-name="dev_caret" unicode="&#xf12b;" horiz-adv-x="0" 
d="M408 2392l142 -142l-450 -450h-16l-542 542l58 58l400 -400h16z" />
    <glyph glyph-name="sAma_nizzvAsa" unicode="&#x1cd3;" horiz-adv-x="1550" 
d="M342 1808l-142 142l500 500l142 -142zM844 1808l-142 142l500 500l142 -142z" />
    <glyph glyph-name="sAma_nizzvAsa" unicode="&#xf1de;" horiz-adv-x="1550" 
d="M342 1808l-142 142l500 500l142 -142zM844 1808l-142 142l500 500l142 -142z" />
    <glyph glyph-name="pRSThamAtrA" unicode="&#x94e;" horiz-adv-x="750" 
d="M392 0l-142 142v1458h-250l-142 142l58 58h834l142 -142l-58 -58h-384v-1542z" />
    <glyph glyph-name="puSpikA" unicode="&#xa8f8;" horiz-adv-x="2300" 
d="M1650 -258l58 58q18 16 35 34.5t29.5 39.5t20 46t7.5 56q0 27 -4 52t-15 52.5t-31.5 59.5t-53.5 73q-113 -97 -253 -155t-293 -58q-92 0 -176 21.5t-156.5 58.5t-131 87.5t-100 107.5t-64 118.5t-22.5 121.5q0 107 63 184q-53 32 -100.5 71.5t-83.5 85.5t-57.5 98.5
t-21.5 109.5q0 51 20 102t63.5 92t113 66.5t169.5 25.5h184l142 -142l-58 -58h-184q-66 0 -113 -13t-77.5 -36t-45 -54t-14.5 -67q0 -39 17.5 -68.5t46.5 -51.5t67 -36.5t80 -23.5q35 12 73.5 18.5t81.5 6.5h50l142 -142l-58 -58h-50q-56 0 -102 -13.5t-79 -39t-51 -61
t-18 -80.5q0 -49 22.5 -91.5t68 -73.5t114.5 -48.5t161 -17.5q130 0 250 48.5t218 130.5q-74 67 -143.5 138t-123 147t-85.5 156t-32 164q0 81 26.5 148.5t72.5 115.5t108 75t134 27q65 0 128 -20t119.5 -55.5t104.5 -85t83 -109t54.5 -126.5t19.5 -138q0 -72 -16.5 -143.5
t-46.5 -139.5t-73.5 -132t-97.5 -121q61 -62 105.5 -113t73 -97t42 -89t13.5 -89q0 -47 -19 -89t-49 -78t-67 -67.5t-73 -57.5zM1518 534q45 -48 86 -88q45 48 81 102t61.5 111.5t39.5 118.5t14 122q0 56 -16 102t-45.5 79t-71 51t-92.5 18t-92.5 -18t-71 -51t-45.5 -79
t-16 -102q0 -74 24.5 -139.5t62 -122t81.5 -104.5z" />
    <glyph glyph-name="puSpikA" unicode="&#xf126;" horiz-adv-x="2300" 
d="M1650 -258l58 58q18 16 35 34.5t29.5 39.5t20 46t7.5 56q0 27 -4 52t-15 52.5t-31.5 59.5t-53.5 73q-113 -97 -253 -155t-293 -58q-92 0 -176 21.5t-156.5 58.5t-131 87.5t-100 107.5t-64 118.5t-22.5 121.5q0 107 63 184q-53 32 -100.5 71.5t-83.5 85.5t-57.5 98.5
t-21.5 109.5q0 51 20 102t63.5 92t113 66.5t169.5 25.5h184l142 -142l-58 -58h-184q-66 0 -113 -13t-77.5 -36t-45 -54t-14.5 -67q0 -39 17.5 -68.5t46.5 -51.5t67 -36.5t80 -23.5q35 12 73.5 18.5t81.5 6.5h50l142 -142l-58 -58h-50q-56 0 -102 -13.5t-79 -39t-51 -61
t-18 -80.5q0 -49 22.5 -91.5t68 -73.5t114.5 -48.5t161 -17.5q130 0 250 48.5t218 130.5q-74 67 -143.5 138t-123 147t-85.5 156t-32 164q0 81 26.5 148.5t72.5 115.5t108 75t134 27q65 0 128 -20t119.5 -55.5t104.5 -85t83 -109t54.5 -126.5t19.5 -138q0 -72 -16.5 -143.5
t-46.5 -139.5t-73.5 -132t-97.5 -121q61 -62 105.5 -113t73 -97t42 -89t13.5 -89q0 -47 -19 -89t-49 -78t-67 -67.5t-73 -57.5zM1518 534q45 -48 86 -88q45 48 81 102t61.5 111.5t39.5 118.5t14 122q0 56 -16 102t-45.5 79t-71 51t-92.5 18t-92.5 -18t-71 -51t-45.5 -79
t-16 -102q0 -74 24.5 -139.5t62 -122t81.5 -104.5z" />
    <glyph glyph-name="gap_filler" unicode="&#xa8f9;" horiz-adv-x="2100" 
d="M750 625q-56 0 -102 -13.5t-79 -39t-51 -61t-18 -80.5q0 -49 22.5 -91.5t68 -73.5t114.5 -48.5t161 -17.5q96 0 187.5 27.5t173.5 76t150 115t118 144.5t77.5 164t27.5 173q0 56 -16 102t-45.5 79t-71 51t-92.5 18t-92.5 -18t-71 -51t-45.5 -79t-16 -102l-58 -58
l-142 142q0 81 26.5 148.5t72.5 115.5t108 75t134 27q65 0 128 -20t119.5 -55.5t104.5 -85t83 -109t54.5 -126.5t19.5 -138q0 -101 -31.5 -200.5t-88.5 -190t-136 -168.5t-173.5 -135t-201.5 -89.5t-219 -32.5q-92 0 -176 21.5t-156.5 58.5t-131 87.5t-100 107.5t-64 118.5
t-22.5 121.5q0 69 27 126.5t75 98t115.5 63t148.5 22.5h50l142 -142l-58 -58h-50z" />
    <glyph glyph-name="daNDa" unicode="&#x964;" horiz-adv-x="1100" 
d="M592 -58l-142 142v1716l58 58l142 -142v-1716z" />
    <glyph glyph-name="daNDa" unicode="&#xa830;" horiz-adv-x="1100" 
d="M592 -58l-142 142v1716l58 58l142 -142v-1716z" />
    <glyph glyph-name="dvidaNDa" unicode="&#x965;" horiz-adv-x="1600" 
d="M1142 -58l-142 142v1716l58 58l142 -142v-1716zM642 -58l-142 142v1716l58 58l142 -142v-1716z" />
    <glyph glyph-name="dvidaNDa" unicode="&#xa831;" horiz-adv-x="1600" 
d="M1142 -58l-142 142v1716l58 58l142 -142v-1716zM642 -58l-142 142v1716l58 58l142 -142v-1716z" />
    <glyph glyph-name="avagraha" unicode="&#x93d;" horiz-adv-x="1500" 
d="M300 700l142 -142q54 -72 106.5 -137t107.5 -114t115 -78t129 -29q70 0 126 20.5t94.5 59t59 94t20.5 126.5q0 66 -30 127t-79.5 119.5t-112 115t-128.5 113.5t-128.5 115.5t-112 121t-79.5 130t-30 142.5q0 47 17.5 88.5t47 77t69.5 63t84.5 47t91 30t90.5 10.5h600
l142 -142l-58 -58h-600q-52 0 -102.5 -12.5t-91 -37.5t-65.5 -62.5t-25 -87.5q0 -67 30 -128.5t79.5 -120t112 -115t128.5 -113.5t128.5 -115t112 -120.5t79.5 -129.5t30 -142q0 -91 -33.5 -167.5t-90.5 -131.5t-132.5 -86t-159.5 -31q-92 0 -182.5 52t-182 140.5t-185 205
t-192.5 244.5z" />
    <glyph glyph-name="visarga" unicode="&#x903;" horiz-adv-x="700" 
d="M173 1223l177 177l177 -177l-177 -176zM173 523l177 177l177 -177l-177 -176z" />
    <glyph glyph-name="visarga" unicode="&#xf130;" horiz-adv-x="700" 
d="M173 1223l177 177l177 -177l-177 -176zM173 523l177 177l177 -177l-177 -176z" />
    <glyph glyph-name="visarga" unicode="&#xe003;" horiz-adv-x="700" 
d="M173 1223l177 177l177 -177l-177 -176zM173 523l177 177l177 -177l-177 -176z" />
    <glyph glyph-name="anusvAra" unicode="&#x902;" horiz-adv-x="0" 
d="M-577 2273l177 177l177 -177l-177 -176z" />
    <glyph glyph-name="anusvAra" unicode="&#xf150;" horiz-adv-x="0" 
d="M-577 2273l177 177l177 -177l-177 -176z" />
    <glyph glyph-name="svarita" unicode="&#x951;" horiz-adv-x="0" 
d="M-358 2050l-142 142v600l58 58l142 -142v-600z" />
    <glyph glyph-name="svarita" unicode="&#xf175;" horiz-adv-x="0" 
d="M-358 2050l-142 142v600l58 58l142 -142v-600z" />
    <glyph glyph-name="svarita" unicode="&#xe007;" horiz-adv-x="0" 
d="M-358 2050l-142 142v600l58 58l142 -142v-600z" />
    <glyph glyph-name="yajur_dvisvarita" unicode="&#x1cda;" horiz-adv-x="0" 
d="M-208 2050l-142 142v600l58 58l142 -142v-600zM-558 2050l-142 142v600l58 58l142 -142v-600z" />
    <glyph glyph-name="yajur_dvisvarita" unicode="&#xf176;" horiz-adv-x="0" 
d="M-208 2050l-142 142v600l58 58l142 -142v-600zM-558 2050l-142 142v600l58 58l142 -142v-600z" />
    <glyph glyph-name="yajur_dvisvarita" unicode="&#xe008;" horiz-adv-x="0" 
d="M-208 2050l-142 142v600l58 58l142 -142v-600zM-558 2050l-142 142v600l58 58l142 -142v-600z" />
    <glyph glyph-name="yajur_dvisvarita" unicode="&#xe002;" horiz-adv-x="0" 
d="M-208 2050l-142 142v600l58 58l142 -142v-600zM-558 2050l-142 142v600l58 58l142 -142v-600z" />
    <glyph glyph-name="yajur_trisvarita" unicode="&#x1cdb;" 
d="M-158 2050l-142 142v600l58 58l142 -142v-600zM-458 2050l-142 142v600l58 58l142 -142v-600zM-758 2050l-142 142v600l58 58l142 -142v-600z" />
    <glyph glyph-name="yajur_trisvarita" unicode="&#xf177;" 
d="M-158 2050l-142 142v600l58 58l142 -142v-600zM-458 2050l-142 142v600l58 58l142 -142v-600zM-758 2050l-142 142v600l58 58l142 -142v-600z" />
    <glyph glyph-name="rk_kashmiri_svarita" unicode="&#x1ce0;" horiz-adv-x="0" 
d="M-466 2050q-64 0 -120.5 17.5t-105 46t-87 65.5t-65.5 77t-41.5 79.5t-14.5 73.5q0 38 18 72.5t52.5 61t84 42t111.5 15.5h492l142 -142l-58 -58h-492q-45 0 -74 -7t-46 -17.5t-23.5 -24t-6.5 -26.5t6.5 -26.5t23.5 -24t46 -17.5t74 -7h100l142 -142l-58 -58h-100z" />
    <glyph glyph-name="devgravis" unicode="&#x953;" horiz-adv-x="0" 
d="M-450 2150l-400 400l100 100l400 -400z" />
    <glyph glyph-name="devacutus" unicode="&#x954;" horiz-adv-x="0" 
d="M-550 2150l-100 100l400 400l100 -100z" />
    <glyph glyph-name="anunAsika" unicode="&#x901;" horiz-adv-x="0" 
d="M-827 2526l177 177l177 -177l-177 -176zM-1142 2600l142 -142q19 -44 48 -97.5t72.5 -100.5t104 -78.5t141.5 -31.5q69 0 122.5 30.5t92.5 74.5t63.5 93t35.5 86l58 58l142 -142q-7 -29 -24.5 -70t-44.5 -85.5t-63 -88t-81.5 -78.5t-100 -56.5t-116.5 -21.5
q-88 0 -166.5 30.5t-146.5 80.5t-124.5 113t-99.5 129t-72 128.5t-41 110.5z" />
    <glyph glyph-name="anunAsika" unicode="&#xf151;" horiz-adv-x="0" 
d="M-827 2526l177 177l177 -177l-177 -176zM-1142 2600l142 -142q19 -44 48 -97.5t72.5 -100.5t104 -78.5t141.5 -31.5q69 0 122.5 30.5t92.5 74.5t63.5 93t35.5 86l58 58l142 -142q-7 -29 -24.5 -70t-44.5 -85.5t-63 -88t-81.5 -78.5t-100 -56.5t-116.5 -21.5
q-88 0 -166.5 30.5t-146.5 80.5t-124.5 113t-99.5 129t-72 128.5t-41 110.5z" />
    <glyph glyph-name="alpaanunAsika" unicode="&#xf300;" horiz-adv-x="0" 
d="M-826 2642l142 -142q13 -32 30 -67.5t41 -65t56 -48.5t73 -19q39 0 64.5 14t42 35t24.5 46t11 47l58 58l142 -142q-6 -41 -26 -86t-53 -83.5t-78 -63.5t-101 -25t-111 29t-106 74t-95.5 101t-80 109.5t-59 99.5t-32.5 71zM-483 2417l-142 142l141 141l142 -142z" />
    <glyph glyph-name="adhomukhacandrabindu" unicode="&#x900;" horiz-adv-x="0" 
d="M-847 2126l177 176l177 -176l-177 -177zM-1058 2157l-142 143q7 29 25.5 70t46 85.5t65 88t83 78.5t98 56.5t112.5 21.5q87 0 166 -30.5t147 -80.5t124.5 -113t99.5 -129t71.5 -128.5t41.5 -110.5l-58 -58l-141 142q-19 44 -48.5 97.5t-73 100.5t-104 78.5t-141.5 31.5
q-69 0 -122.5 -30.5t-92.5 -74.5t-63.5 -93t-35.5 -86z" />
    <glyph glyph-name="alpaadhocandrabindu" unicode="&#xf301;" horiz-adv-x="0" 
d="M-700 2350l-142 142q6 40 26 85.5t53 84t78 63.5t101 25q55 0 110.5 -29t106.5 -74t95.5 -101t80 -109.5t59 -99.5t32.5 -71l-58 -58l-142 142q-13 32 -30.5 67.5t-41.5 65t-55.5 48.5t-72.5 19q-39 0 -64.5 -14t-42 -35t-24.5 -46t-11 -47zM-500 2150l-142 142l141 141
l142 -142z" />
    <glyph glyph-name="candra" unicode="&#x945;" horiz-adv-x="0" 
d="M-1142 2600l142 -142q19 -44 48 -97.5t72.5 -100.5t104 -78.5t141.5 -31.5q69 0 122.5 30.5t92.5 74.5t63.5 93t35.5 86l58 58l142 -142q-7 -29 -24.5 -70t-44.5 -85.5t-63 -88t-81.5 -78.5t-100 -56.5t-116.5 -21.5q-88 0 -166.5 30.5t-146.5 80.5t-124.5 113t-99.5 129
t-72 128.5t-41 110.5z" />
    <glyph glyph-name="alpacandra" unicode="&#xf302;" horiz-adv-x="0" 
d="M-1443 2558l142 -142q5 -44 26.5 -98.5t59 -103t91.5 -81.5t123 -33q53 0 89 17t59 43.5t35 59t18 64.5l58 58l142 -142q-12 -50 -39.5 -103t-68.5 -97t-93.5 -72t-115.5 -28q-73 0 -143 32t-133 83.5t-117 116.5t-95 132t-66 129t-30 107z" />
    <glyph glyph-name="alpacandra1" unicode="&#xf303;" horiz-adv-x="0" 
d="M-1529 2558l142 -142q5 -44 26.5 -98.5t59 -103t91.5 -81.5t123 -33q53 0 89 17t59 43.5t35 59t18 64.5l58 58l142 -142q-12 -50 -39.5 -103t-68.5 -97t-93.5 -72t-115.5 -28q-73 0 -143 32t-133 83.5t-117 116.5t-95 132t-66 129t-30 107z" />
    <glyph glyph-name="pRSThamAtrAe" unicode="&#x955;" horiz-adv-x="0" 
d="M-958 1900l-142 142l58 58h900l142 -142l-58 -58h-900zM-1066 2700l142 -142q30 -30 63 -58.5t71.5 -50.5t83 -35.5t97.5 -13.5q76 0 132 25t95.5 61.5t65.5 78.5t42 77l58 58l142 -142q-7 -27 -23.5 -64t-44 -77t-65 -78.5t-85.5 -69.5t-106 -50t-127 -19
q-94 0 -174.5 35t-153.5 95t-139.5 140.5t-131.5 171.5z" />
    <glyph glyph-name="pRSThamAtrAe" unicode="&#xf180;" horiz-adv-x="0" 
d="M-958 1900l-142 142l58 58h900l142 -142l-58 -58h-900zM-1066 2700l142 -142q30 -30 63 -58.5t71.5 -50.5t83 -35.5t97.5 -13.5q76 0 132 25t95.5 61.5t65.5 78.5t42 77l58 58l142 -142q-7 -27 -23.5 -64t-44 -77t-65 -78.5t-85.5 -69.5t-106 -50t-127 -19
q-94 0 -174.5 35t-153.5 95t-139.5 140.5t-131.5 171.5z" />
    <glyph glyph-name="alpapRSTha" unicode="&#xf304;" horiz-adv-x="0" 
d="M-1366 1900l-142 142l58 58h558l142 -142l-58 -58h-558zM-1492 2599l142 -142q13 -21 30.5 -40.5t38.5 -34.5t45.5 -23.5t51.5 -8.5q31 0 54.5 14t39.5 35t25 46t12 47l58 58l142 -142q-6 -41 -24.5 -86t-49 -83.5t-74 -63.5t-99.5 -25q-55 0 -106.5 19t-97 51t-85 73
t-71.5 84t-55 86t-35 78z" />
    <glyph glyph-name="alpapRSTha1" unicode="&#xf305;" horiz-adv-x="0" 
d="M-1250 1900l-142 142l58 58h650l142 -142l-58 -58h-650zM-1334 2599l142 -142q13 -21 30.5 -40.5t38.5 -34.5t45.5 -23.5t51.5 -8.5q28 0 50 14t38.5 35t28 46t19.5 47l58 58l142 -142q-12 -41 -33 -86t-52 -83.5t-72.5 -63.5t-94.5 -25q-55 0 -106.5 19t-97 51t-85 73
t-71.5 84t-54.5 86t-35.5 78z" />
    <glyph glyph-name="emAtrA" unicode="&#x947;" horiz-adv-x="0" 
d="M-1542 2492l58 58h42q105 0 194 -24.5t171.5 -73t164 -119.5t173.5 -163.5t199 -206.5t240 -247l-58 -58l-142 142q-100 100 -181 179.5t-150.5 140.5t-132 105t-124.5 71.5t-127.5 40.5t-142.5 13h-42z" />
    <glyph glyph-name="aimAtrA" unicode="&#x948;" horiz-adv-x="0" 
d="M-1250 2000l-142 142l58 58h134q76 0 137.5 -7t114.5 -20.5t99.5 -34.5t93.5 -49q-76 85 -135 144.5t-111.5 96.5t-103.5 53.5t-111 16.5h-184l-142 142l58 58h184q75 0 144 -28.5t139 -82t144.5 -131t160.5 -176t187.5 -216t224.5 -250.5l-58 -58q-142 142 -204 181
t-153.5 80.5t-190 61t-210.5 19.5h-134z" />
    <glyph glyph-name="EmAtrA" unicode="&#x946;" horiz-adv-x="0" 
d="M-1055 2050q-54 0 -110 21t-116.5 72t-127 136t-141.5 213l58 58l142 -142q19 -34 38.5 -63t44 -50t55.5 -33t73 -12h205q93 0 167.5 -43.5t143 -117t136.5 -170.5t146 -203l-58 -58l-142 142q-33 56 -64.5 102t-67 79t-78.5 51t-99 18h-205z" />
    <glyph glyph-name="repha" unicode="&#xf306;" horiz-adv-x="0" 
d="M-358 1658l-142 142q-75 75 -131.5 138t-94 121t-56 115t-18.5 120q0 60 21 115.5t58.5 98t89 67.5t113.5 25q36 0 67.5 -8.5t60.5 -22.5t55 -32t51 -37l142 -142l-58 -58q-25 19 -51 37t-54 32t-59.5 22.5t-68.5 8.5q-44 0 -75.5 -15t-52 -41t-30 -60.5t-9.5 -73.5
q0 -66 19.5 -125t58 -117t94.5 -119t128 -133z" />
    <glyph glyph-name="rephaanusvAra" unicode="&#xf307;" horiz-adv-x="0" 
d="M-358 1658l-142 142q-75 75 -131.5 138t-94 121t-56 115t-18.5 120q0 60 21 115.5t58.5 98t89 67.5t113.5 25q44 0 77 -5t59.5 -13t49.5 -18.5t48 -21.5l142 -142l-58 -58q-38 16 -67 27t-55.5 18t-53 10t-57.5 3q-44 0 -75.5 -15t-52 -41t-30 -60.5t-9.5 -73.5
q0 -66 19.5 -125t58 -117t94.5 -119t128 -133zM-477 2123l177 177l177 -177l-177 -176z" />
    <glyph glyph-name="rephaanunAsika" unicode="&#xf308;" horiz-adv-x="0" 
d="M-358 1658l-142 142l-151.5 151.5t-130 146.5t-91 148t-34.5 155q0 68 30.5 123.5t76 94.5t99.5 60t101 21q37 0 63 -2t47.5 -7.5t44 -15.5t54.5 -26l142 -142l-58 -58q-32 15 -57.5 25t-49.5 16t-48 8t-53 2q-38 0 -73 -11.5t-61.5 -34.5t-42 -57t-15.5 -80
q0 -76 36.5 -152.5t94.5 -152t131 -150t145 -146.5zM-556 2372l142 -142q13 -32 30 -67.5t41 -65t56 -48.5t73 -19q39 0 64.5 14t42 35t24.5 46t11 47l58 58l142 -142q-6 -41 -26 -86t-53 -83.5t-78 -63.5t-101 -25t-111 29t-106 74t-95.5 101t-80 109.5t-59.5 99.5t-32 71z
M-213 2147l-142 142l141 141l142 -142z" />
    <glyph glyph-name="rephaadhoanunAsika" unicode="&#xf309;" horiz-adv-x="0" 
d="M-358 1658l-142 142l-151.5 151.5t-130 146.5t-91 148t-34.5 155q0 68 30.5 123.5t76 94.5t99.5 60t101 21q37 0 63 -2t47.5 -7.5t44 -15.5t54.5 -26l142 -142l-58 -58q-32 15 -57.5 25t-49.5 16t-48 8t-53 2q-38 0 -73 -11.5t-61.5 -34.5t-42 -57t-15.5 -80
q0 -76 36.5 -152.5t94.5 -152t131 -150t145 -146.5zM-458 2058l-142 142q7 19 26.5 52.5t51.5 66.5t75 57t97 24q59 0 115.5 -29t107.5 -74t95 -101t78 -109.5t57 -99.5t31 -71l-58 -58l-142 142q-13 32 -30.5 67.5t-41.5 65t-55.5 48.5t-72.5 19q-24 0 -45 -8.5t-38.5 -21
t-30.5 -27t-20 -27.5zM-258 1835l-142 142l141 141l142 -142z" />
    <glyph glyph-name="anudAtta" unicode="&#x952;" horiz-adv-x="0" 
d="M-1050 -800l-142 142l58 58h784l142 -142l-58 -58h-784z" />
    <glyph glyph-name="anudAtta" unicode="&#xf1a2;" horiz-adv-x="0" 
d="M-1050 -800l-142 142l58 58h784l142 -142l-58 -58h-784z" />
    <glyph glyph-name="anudAtta" unicode="&#xe009;" horiz-adv-x="0" 
d="M-1050 -800l-142 142l58 58h784l142 -142l-58 -58h-784z" />
    <glyph glyph-name="virAma" unicode="&#x94d;" horiz-adv-x="0" 
d="M-542 -108l58 58h50q50 0 100 -28.5t112.5 -84.5t143.5 -140.5t194 -196.5l142 -142l-58 -58l-142 142q-89 89 -149.5 148t-105.5 94.5t-80.5 50.5t-72.5 15h-50z" />
    <glyph glyph-name="nukta" unicode="&#x93c;" horiz-adv-x="0" 
d="M-577 -377l177 177l177 -177l-177 -176z" />
    <glyph glyph-name="umAtrA" unicode="&#x941;" horiz-adv-x="0" 
d="M-1042 -42l142 -142q78 -78 147.5 -137t132.5 -99t121.5 -60t114.5 -20q48 0 82.5 12t57 33t33.5 48t11 57t-12 57t-33 48t-48 33t-57 12q-38 0 -67.5 -15.5t-66.5 -47.5l-142 142l58 58q9 9 24.5 20t33.5 20.5t37.5 16t38.5 6.5q46 0 96 -19.5t98.5 -52.5t91.5 -76
t76 -91.5t52.5 -98.5t19.5 -96q0 -51 -23.5 -98.5t-64 -85t-95.5 -60t-117 -22.5q-75 0 -151.5 32t-169.5 103t-209 185.5t-270 279.5z" />
    <glyph glyph-name="UmAtrA" unicode="&#x942;" horiz-adv-x="0" 
d="M-232 -637q-9 -9 -24.5 -20t-33.5 -20.5t-37.5 -16t-38.5 -6.5q-46 0 -96 19.5t-98.5 52.5t-91.5 76t-76 91.5t-52.5 98.5t-19.5 96q0 51 23.5 98.5t64 85t95.5 60t117 22.5q75 0 157 -38.5t181 -117.5t220.5 -200t275.5 -286l-58 -58l-142 142q-97 97 -173.5 165
t-141.5 111t-121.5 62.5t-113.5 19.5q-48 0 -82.5 -12t-57 -33t-33.5 -48t-11 -57t12 -57t33 -48t48 -33t57 -12q38 0 67.5 15.5t66.5 47.5l142 -142z" />
    <glyph glyph-name="RmAtrA" unicode="&#x943;" horiz-adv-x="0" 
d="M-300 58l-58 -58q-44 -19 -87 -43t-77.5 -52.5t-56 -61t-21.5 -68.5q0 -57 41.5 -91t108.5 -34q37 0 71 11t64.5 29t59 42.5t55.5 51.5l58 58l142 -142q-27 -41 -64.5 -85t-83.5 -80.5t-101 -60.5t-117 -24q-52 0 -104.5 17.5t-101 47.5t-90 70.5t-72.5 86t-48.5 93.5
t-17.5 94q0 60 33.5 114t86 98t116 77t122.5 52z" />
    <glyph glyph-name="RRmAtrA" unicode="&#x944;" horiz-adv-x="0" 
d="M-358 0q-53 -12 -97.5 -28.5t-76.5 -37.5t-50 -46.5t-18 -55.5q0 -19 8.5 -34t22.5 -25.5t32 -16.5t37 -6q46 0 111.5 24.5t146.5 75.5l142 -142q-43 -42 -96.5 -78t-153.5 -80q-39 -19 -62.5 -35.5t-46 -39t-32 -44.5t-9.5 -46q0 -19 8.5 -34.5t22.5 -27t32 -17.5t37 -6
q30 0 58.5 10t59.5 28.5t65 45t75 58.5l142 -142q-32 -38 -69 -73.5t-77.5 -64t-83.5 -45.5t-86 -17q-39 0 -83 15.5t-86.5 42.5t-81.5 63t-68.5 77t-47 84.5t-17.5 85.5q0 47 23 88t61 76q-38 28 -71 62t-58.5 70.5t-40 75t-14.5 75.5q0 51 26.5 92.5t74.5 76.5t113.5 63.5
t143.5 52.5l142 -142z" />
    <glyph glyph-name="LmAtrA" unicode="&#x962;" horiz-adv-x="0" 
d="M8 -600l142 -142q-16 -31 -38.5 -59.5t-48.5 -50.5t-55 -35t-58 -13q-38 0 -78.5 18t-79 47t-73.5 65.5t-61.5 73.5t-42 71.5t-15.5 58.5q0 29 15 53t37 45.5t48 40.5t48 39t37 41.5t15 46.5q0 19 -8 37t-21.5 32t-31.5 22.5t-39 8.5q-25 0 -48.5 -12.5t-42.5 -32.5
t-32.5 -45.5t-18.5 -51.5l-58 -58l-142 142q-25 29 -59 43.5t-65 14.5q-38 0 -61 -23t-23 -61q0 -35 27 -61t73 -55l142 -142l-58 -58q-69 46 -137.5 93t-123.5 96.5t-89 102t-34 108.5q0 37 16 73t43 64.5t63.5 45.5t77.5 17q33 0 65.5 -11t64.5 -30.5t63 -46t61 -57.5
q18 29 42 55t51 46t57 32t62 12q46 0 92.5 -19t89 -50.5t79.5 -72t64.5 -83t43 -84t15.5 -74.5q0 -29 -15 -53.5t-37 -45.5t-48 -40.5t-48 -39.5t-37 -41.5t-15 -46.5q0 -23 19.5 -36.5t45.5 -13.5q43 0 85 42z" />
    <glyph glyph-name="LLmAtrA" unicode="&#x963;" horiz-adv-x="0" 
d="M8 -600l142 -142q-14 -26 -32 -50.5t-39.5 -45t-45.5 -35.5t-48 -22q-48 -25 -66.5 -52t-18.5 -53q0 -23 16.5 -36.5t33.5 -13.5q43 0 81.5 27t76.5 70l142 -147q-44 -68 -99.5 -109t-115.5 -41q-34 0 -72 15.5t-75 41.5t-71 60t-60 71t-41.5 74.5t-15.5 71.5
q0 29 13 59.5t36 58.5q-32 28 -59 60t-47 63.5t-31.5 59.5t-11.5 49q0 29 15 53t37 45.5t48 40.5t48 39t37 41.5t15 46.5q0 19 -8 37t-21.5 32t-31.5 22.5t-39 8.5q-25 0 -48.5 -12.5t-42.5 -32.5t-32.5 -45.5t-18.5 -51.5l-58 -58l-142 142q-25 29 -59 43.5t-65 14.5
q-38 0 -61 -23t-23 -61q0 -35 27 -61t73 -55l142 -142l-58 -58q-69 46 -137.5 93t-123.5 96.5t-89 102t-34 108.5q0 37 16 73t43 64.5t63.5 45.5t77.5 17q33 0 65.5 -11t64.5 -30.5t63 -46t61 -57.5q18 29 42 55t51 46t57 32t62 12q46 0 92.5 -19t89 -50.5t79.5 -72
t64.5 -83t43 -84t15.5 -74.5q0 -29 -15 -53.5t-37 -45.5t-48 -40.5t-48 -39.5t-37 -41.5t-15 -46.5q0 -23 19.5 -36.5t45.5 -13.5q43 0 85 42z" />
    <glyph glyph-name="vattu" unicode="&#xf30a;" horiz-adv-x="0" 
d="M-708 -592l-142 142l450 450h16l542 -542l-58 -58l-400 400h-16z" />
    <glyph glyph-name="vattu1" unicode="&#xf30b;" horiz-adv-x="0" 
d="M-358 -750l-142 142v358v50l-550 -550l-142 142l750 750l142 -142v-692z" />
    <glyph glyph-name="AmAtrA" unicode="&#x93e;" horiz-adv-x="750" 
d="M392 0l-142 142v1458h-250l-142 142l58 58h834l142 -142l-58 -58h-384v-1542z" />
    <glyph glyph-name="i1" unicode="&#xf30c;" horiz-adv-x="800" 
d="M442 0l-142 142v1458h-300l-142 142l58 58h384q-33 37 -76.5 82.5t-82 99.5t-65 116.5t-26.5 135.5q0 72 28 130t73 99.5t101.5 64t113.5 22.5q96 0 197 -33.5t204.5 -92t209.5 -138t211 -172t208.5 -194.5t203.5 -204l-58 -58l-142 142q-62 62 -137 127t-157.5 126
t-168.5 115t-171 94.5t-165.5 64t-150.5 23.5q-95 0 -147.5 -53t-52.5 -147q0 -47 11 -89t32.5 -83t54.5 -84.5t77 -93.5h375l142 -142l-58 -58h-384v-1542z" />
    <glyph glyph-name="i2" unicode="&#xf30d;" horiz-adv-x="800" 
d="M442 0l-142 142v1458h-300l-142 142l58 58h384q-40 40 -84 81.5t-81 88t-61 99.5t-24 115q0 76 29.5 143t79.5 116.5t116.5 78t140.5 28.5q121 0 239 -36.5t231.5 -99t222 -145t210.5 -175.5t198 -190t183 -188l-58 -58l-142 142q-63 62 -137 127.5t-156 126.5
t-169.5 115t-178 94t-181.5 63.5t-178 23.5q-56 0 -102 -18t-79 -51t-51 -79t-18 -102q0 -42 11.5 -79.5t33.5 -73t52.5 -71.5t69.5 -76h383l142 -142l-58 -58h-384v-1542z" />
    <glyph glyph-name="i3" unicode="&#xf30e;" horiz-adv-x="800" 
d="M442 0l-142 142v1458h-300l-142 142l58 58h384l-84 84t-81 93.5t-61 105t-24 117.5q0 75 32.5 139t88.5 111t132 73.5t163 26.5q133 0 268 -34.5t264 -91.5t249.5 -130t225 -150t190 -151.5t145.5 -134.5l142 -142l-58 -58q-158 147 -324 273.5t-336 219.5t-341.5 146
t-340.5 53q-69 0 -124.5 -15.5t-94.5 -45.5t-60 -73.5t-21 -99.5q0 -43 12 -82t33.5 -77.5t52.5 -77t70 -79.5h382l142 -142l-58 -58h-384v-1542z" />
    <glyph glyph-name="i4" unicode="&#xf30f;" horiz-adv-x="800" 
d="M442 0l-142 142v1458h-300l-142 142l58 58h384l-84 84t-81 93.5t-61 105t-24 117.5q0 75 30 139t83 111t126.5 73.5t160.5 26.5q150 0 296 -34.5t282.5 -91.5t261 -130t231 -150t192 -151.5t145.5 -134.5l142 -142l-58 -58q-158 147 -318 273.5t-331.5 219.5t-359 146
t-399.5 53q-139 0 -211.5 -60.5t-72.5 -173.5q0 -43 12 -82t33.5 -77.5t52.5 -77t70 -79.5h382l142 -142l-58 -58h-384v-1542z" />
    <glyph glyph-name="i5" unicode="&#xf310;" horiz-adv-x="800" 
d="M442 0l-142 142v1458h-300l-142 142l58 58h384l-84 84t-81 93.5t-61 105t-24 117.5q0 75 28.5 139t86 111t145 73.5t206.5 26.5q163 0 340 -47.5t357 -136.5t356.5 -217.5t338.5 -290.5l142 -142l-58 -58q-222 203 -412 336.5t-358.5 212.5t-321 111t-300.5 32
q-94 0 -160.5 -15.5t-108.5 -45.5t-61.5 -73.5t-19.5 -99.5q0 -43 12 -82t33.5 -77.5t52.5 -77t70 -79.5h382l142 -142l-58 -58h-384v-1542z" />
    <glyph glyph-name="i6" unicode="&#xf311;" horiz-adv-x="800" 
d="M442 0l-142 142v1458h-300l-142 142l58 58h384q-56 56 -102 104.5t-79 93.5t-51 90.5t-18 95.5q0 81 37 148.5t100 115.5t148 75t181 27q158 0 310 -34.5t292 -91t266 -129.5t233.5 -150t193.5 -151.5t147 -135.5l142 -142l-58 -58q-86 84 -187.5 168t-216 161
t-239.5 143.5t-256.5 115t-268.5 76.5t-274 28q-75 0 -139 -14.5t-111 -45t-73.5 -78t-26.5 -112.5q0 -32 8.5 -64t28 -68t51 -77t78.5 -91h384l142 -142l-58 -58h-384v-1542z" />
    <glyph glyph-name="imAtrA" unicode="&#x93f;" horiz-adv-x="800" 
d="M442 0l-142 142v1458h-300l-142 142l58 58h384q-56 56 -102 104.5t-79 93.5t-51 90.5t-18 95.5q0 81 37 148.5t100 115.5t148 75t181 27q158 0 313.5 -34.5t301 -91t278.5 -129.5t245.5 -150t202.5 -151.5t151 -135.5l142 -142l-58 -58q-86 84 -195 168t-233 161
t-259 143.5t-272 115t-272.5 76.5t-260.5 28q-75 0 -139 -14.5t-111 -45t-73.5 -78t-26.5 -112.5q0 -32 8.5 -64t28 -68t51 -77t78.5 -91h384l142 -142l-58 -58h-384v-1542z" />
    <glyph glyph-name="i8" unicode="&#xf312;" horiz-adv-x="800" 
d="M442 0l-142 142v1458h-300l-142 142l58 58h384q-56 56 -102 104.5t-79 93.5t-51 90.5t-18 95.5q0 72 29 142t91.5 125.5t160.5 89.5t235 34q119 0 240 -24.5t239 -65.5t230.5 -95.5t215.5 -114.5t193.5 -121.5t163.5 -117.5t127 -102.5t83 -75.5l142 -142l-58 -58
q-73 65 -173.5 143.5t-220.5 158t-255 154.5t-276.5 133t-285.5 93t-281 35q-204 0 -302 -72t-98 -203q0 -32 8.5 -64t28 -68t51 -77t78.5 -91h384l142 -142l-58 -58h-384v-1542z" />
    <glyph glyph-name="i9" unicode="&#xf313;" horiz-adv-x="800" 
d="M442 0l-142 142v1458h-300l-142 142l58 58h384q-56 56 -102 104.5t-79 93.5t-51 90.5t-18 95.5q0 72 29 142t91.5 125.5t160.5 89.5t235 34q128 0 256 -24.5t251.5 -65.5t240 -95.5t221.5 -114.5t197 -121.5t165.5 -117.5t127.5 -102.5t83 -75.5l142 -142l-58 -58
q-73 65 -172.5 143.5t-219 158t-256 154.5t-283.5 133t-301.5 93t-309.5 35q-204 0 -302 -72t-98 -203q0 -32 8.5 -64t28 -68t51 -77t78.5 -91h384l142 -142l-58 -58h-384v-1542z" />
    <glyph glyph-name="i10" unicode="&#xf314;" horiz-adv-x="800" 
d="M442 0l-142 142v1458h-300l-142 142l58 58h384q-38 37 -81.5 82t-81 98t-62.5 116t-25 138q0 72 29 138t91.5 116.5t160.5 81t235 30.5q138 0 272.5 -25t263 -68t248 -99t227 -118t200 -126t167.5 -122t129.5 -106t84.5 -78l142 -142l-58 -58q-86 82 -195.5 169
t-236 169.5t-267.5 156t-289.5 128.5t-301 87t-302.5 32q-113 0 -189.5 -18t-123 -51t-67 -79t-20.5 -102q0 -47 9.5 -89t30 -83t53 -84.5t77.5 -93.5h380l142 -142l-58 -58h-384v-1542z" />
    <glyph glyph-name="i11" unicode="&#xf315;" horiz-adv-x="800" 
d="M442 0l-142 142v1458h-300l-142 142l58 58h384q-38 37 -81.5 82t-81 98t-62.5 116t-25 138q0 72 29 138t91.5 116.5t160.5 81t235 30.5q147 0 289 -25t275.5 -68t257 -99t233 -118t203.5 -126t169.5 -122t130 -106t84.5 -78l142 -142l-58 -58q-86 82 -195.5 169
t-238 169.5t-272 156t-297.5 128.5t-315.5 87t-323.5 32q-113 0 -189.5 -18t-123 -51t-67 -79t-20.5 -102q0 -47 9.5 -89t30 -83t53 -84.5t77.5 -93.5h380l142 -142l-58 -58h-384v-1542z" />
    <glyph glyph-name="i12" unicode="&#xf316;" horiz-adv-x="800" 
d="M442 0l-142 142v1458h-300l-142 142l58 58h384q-38 37 -81.5 82t-81 98t-62.5 116t-25 138q0 72 29 138t91.5 116.5t160.5 81t235 30.5q142 0 284 -25t278 -68t264 -99t243.5 -118t216 -126t180.5 -122t138 -106t88 -78l142 -142l-58 -58q-86 82 -202.5 169t-254.5 169.5
t-292 156t-313.5 128.5t-319.5 87t-310 32q-113 0 -189.5 -18t-123 -51t-67 -79t-20.5 -102q0 -47 9.5 -89t30 -83t53 -84.5t77.5 -93.5h380l142 -142l-58 -58h-384v-1542z" />
    <glyph glyph-name="i13" unicode="&#xf317;" horiz-adv-x="800" 
d="M442 0l-142 142v1458h-300l-142 142l58 58h384q-38 37 -81.5 82t-81 98t-62.5 116t-25 138q0 72 29 142t91.5 125.5t160.5 89.5t235 34q144 0 289 -26.5t285 -71t272.5 -102.5t252.5 -122.5t224 -130.5t187 -125.5t142.5 -109t89.5 -79.5l142 -142l-58 -58
q-86 82 -206 171t-262.5 174t-299.5 161.5t-316.5 134.5t-314.5 92t-293 34q-131 0 -218 -22t-138.5 -59.5t-72.5 -87.5t-21 -106q0 -47 9.5 -89t30 -83t53 -84.5t77.5 -93.5h380l142 -142l-58 -58h-384v-1542z" />
    <glyph glyph-name="i14" unicode="&#xf318;" horiz-adv-x="800" 
d="M442 0l-142 142v1458h-300l-142 142l58 58h384q-38 37 -81.5 82t-81 98t-62.5 116t-25 138q0 72 30 142t97 125.5t175.5 89.5t264.5 34q147 0 293 -26.5t286.5 -71t272.5 -102.5t251 -122.5t222.5 -130.5t185.5 -125.5t141 -109t89 -79.5l142 -142l-58 -58
q-86 79 -201.5 167t-253.5 173t-293.5 162.5t-320.5 136.5t-335.5 93.5t-337.5 34.5q-113 0 -197 -22t-140.5 -59.5t-84.5 -87.5t-28 -106q0 -47 9.5 -89t30 -83t53 -84.5t77.5 -93.5h380l142 -142l-58 -58h-384v-1542z" />
    <glyph glyph-name="i15" unicode="&#xf319;" horiz-adv-x="800" 
d="M442 0l-142 142v1458h-300l-142 142l58 58h384q-38 37 -81.5 82t-81 98t-62.5 116t-25 138q0 48 13.5 95.5t43 91t77 81t116 65t159.5 43t207 15.5q128 0 264.5 -26.5t273.5 -71t271 -102.5t257.5 -122.5t233.5 -130.5t198 -125.5t151 -109t93 -79.5l142 -142l-58 -58
q-64 60 -150.5 124.5t-188.5 129.5t-217.5 128.5t-237 120.5t-246 105.5t-246.5 83.5t-237.5 55t-218.5 20q-131 0 -225.5 -22t-155.5 -59.5t-90 -87.5t-29 -106q0 -47 9.5 -89t30 -83t53 -84.5t77.5 -93.5h380l142 -142l-58 -58h-384v-1542z" />
    <glyph glyph-name="i16" unicode="&#xf31a;" horiz-adv-x="800" 
d="M442 0l-142 142v1458h-300l-142 142l58 58h384q-38 37 -81.5 82t-81 98t-62.5 116t-25 138q0 72 34 142t108 125.5t191 89.5t283 34q138 0 280.5 -25.5t283.5 -69t277.5 -100.5t261.5 -120.5t236 -129.5t200 -126t154 -111t99 -85l142 -142l-58 -58q-64 60 -150.5 124.5
t-189.5 129.5t-219 128.5t-240 120.5t-252.5 105.5t-255.5 83.5t-250 55t-235 20q-131 0 -225.5 -22t-155.5 -59.5t-90 -87.5t-29 -106q0 -47 9.5 -89t30 -83t53 -84.5t77.5 -93.5h380l142 -142l-58 -58h-384v-1542z" />
    <glyph glyph-name="i17" unicode="&#xf31b;" horiz-adv-x="800" 
d="M442 0l-142 142v1458h-300l-142 142l58 58h384q-38 37 -81.5 82t-81 98t-62.5 116t-25 138q0 72 34 142t108 125.5t191 89.5t283 34q147 0 297 -25.5t296.5 -69t286.5 -100.5t267.5 -120.5t239 -129.5t201.5 -126t155 -111t99 -85l142 -142l-58 -58q-64 60 -150.5 124.5
t-190 129.5t-221 128.5t-244 120.5t-258.5 105.5t-264 83.5t-262 55t-252 20q-131 0 -225.5 -22t-155.5 -59.5t-90 -87.5t-29 -106q0 -47 9.5 -89t30 -83t53 -84.5t77.5 -93.5h380l142 -142l-58 -58h-384v-1542z" />
    <glyph glyph-name="i18" unicode="&#xf31c;" horiz-adv-x="800" 
d="M442 0l-142 142v1458h-300l-142 142l58 58h384q-38 37 -81.5 82t-81 98t-62.5 116t-25 138q0 41 13.5 86.5t43 89t77 82.5t116 68.5t159.5 47t207 17.5q156 0 313 -25.5t309 -69t295.5 -100.5t273.5 -120.5t243 -129.5t203.5 -126t155.5 -111t99 -85l142 -142l-58 -58
q-86 79 -210.5 167t-276.5 173t-325 162.5t-354.5 136.5t-366 93.5t-359.5 34.5q-131 0 -225.5 -22t-155.5 -59.5t-90 -87.5t-29 -106q0 -47 9.5 -89t30 -83t53 -84.5t77.5 -93.5h380l142 -142l-58 -58h-384v-1542z" />
    <glyph glyph-name="i19" unicode="&#xf31d;" horiz-adv-x="800" 
d="M442 0l-142 142v1458h-300l-142 142l58 58h384q-38 37 -81.5 82t-81 98t-62.5 116t-25 138q0 41 13.5 86.5t43 89t77 82.5t116 68.5t159.5 47t207 17.5q156 0 315.5 -25.5t314.5 -69t303 -100.5t282.5 -120.5t252 -129.5t212 -126t161.5 -111t101 -85l142 -142l-58 -58
q-64 60 -153 124.5t-196.5 129.5t-231 128.5t-256.5 120.5t-273 105.5t-281 83.5t-280.5 55t-270.5 20t-225.5 -22t-155.5 -59.5t-90 -87.5t-29 -106q0 -47 9.5 -89t30 -83t53 -84.5t77.5 -93.5h380l142 -142l-58 -58h-384v-1542z" />
    <glyph glyph-name="i20" unicode="&#xf31e;" horiz-adv-x="800" 
d="M442 0l-142 142v1458h-300l-142 142l58 58h384q-38 37 -81.5 82t-81 98t-62.5 116t-25 138q0 41 13.5 86.5t44.5 89t81.5 82.5t124.5 68.5t173.5 47t228.5 17.5q154 0 312 -25.5t313 -69t303 -100.5t283 -120.5t253.5 -129.5t213.5 -126t162.5 -111t101.5 -85l142 -142
l-58 -58q-64 60 -153 124.5t-196.5 129.5t-231 128.5t-256.5 120.5t-273 105.5t-281 83.5t-280.5 55t-270.5 20q-150 0 -254.5 -22t-170.5 -59.5t-95.5 -87.5t-29.5 -106q0 -47 9.5 -89t30 -83t53 -84.5t77.5 -93.5h380l142 -142l-58 -58h-384v-1542z" />
    <glyph glyph-name="i21" unicode="&#xf31f;" horiz-adv-x="750" 
d="M442 0l-142 142v1458h-300l-142 142l58 58h384q-53 56 -91 104.5t-62 95.5t-35.5 95.5t-11.5 104.5q0 65 29 135.5t91.5 129.5t160.5 97t235 38q138 0 284.5 -34.5t299 -90.5t308.5 -128t312.5 -147t311 -147t304 -128t291.5 -90.5t273 -34.5l142 -142l-58 -58
q-138 0 -282.5 34.5t-294 90.5t-302.5 128t-307 147t-307.5 147t-304.5 128t-298 90.5t-288 34.5q-113 0 -189.5 -25.5t-123 -66t-67 -91.5t-20.5 -101q0 -43 6.5 -82.5t21 -78t37.5 -76.5t57 -79h328l142 -142l-58 -58h-334v-1542z" />
    <glyph glyph-name="i22" unicode="&#xf320;" horiz-adv-x="750" 
d="M442 0l-142 142v1458h-300l-142 142l58 58h384q-32 37 -67 76t-64.5 84.5t-49 100t-19.5 123.5q0 100 46 185t135 147.5t219.5 98t299.5 35.5q225 0 461.5 -42t475 -115.5t473 -174.5t456.5 -218l142 -142l-58 -58q-231 124 -472 225.5t-480 173.5t-470.5 111.5
t-443.5 39.5q-174 0 -287 -26.5t-179 -73.5t-92 -111t-26 -139t34 -149t94 -151h322l142 -142l-58 -58h-334v-1542z" />
    <glyph glyph-name="ImAtrA" unicode="&#x940;" horiz-adv-x="750" 
d="M392 0l-142 142v1458h-250l-142 142l58 58h337q-118 118 -217.5 211t-185.5 157.5t-160 98t-140 33.5q-38 0 -66 -12t-46.5 -33t-28 -48t-9.5 -57q0 -38 8.5 -72t27.5 -68.5t49 -71.5t73 -80l142 -142l-58 -58q-116 115 -199.5 194t-137.5 140.5t-79.5 117t-25.5 124.5
q0 60 25 109t64 84t86 54t91 19q88 0 187 -54t206 -143.5t220 -205t287 -297.5h384l142 -142l-58 -58h-384v-1542z" />
    <glyph glyph-name="I2" unicode="&#xf321;" horiz-adv-x="750" 
d="M392 0l-142 142v1458h-250l-142 142l58 58h333q-119 118 -222.5 214.5t-192.5 165.5t-164 107t-136 38q-48 0 -83 -13.5t-57.5 -36.5t-33 -55.5t-10.5 -69.5q0 -38 8.5 -72t27.5 -68.5t49 -71.5t73 -80l142 -142l-58 -58q-110 105 -192.5 182.5t-138 142t-83.5 123.5
t-28 128q0 62 23.5 115.5t64 92.5t95.5 61t117 22q55 0 118 -27.5t131.5 -75t142.5 -111.5t151 -138t156 -154.5t159 -160.5l58 -58h384l142 -142l-58 -58h-384v-1542z" />
    <glyph glyph-name="I3" unicode="&#xf322;" horiz-adv-x="750" 
d="M392 0l-142 142v1458h-250l-142 142l58 58h332q-121 118 -228 214.5t-201 165.5t-173.5 107t-145.5 38q-56 0 -94.5 -13.5t-62 -36.5t-33.5 -55.5t-10 -69.5q0 -38 8.5 -72t27.5 -68.5t49 -71.5t73 -80l142 -142l-58 -58q-110 105 -192.5 182.5t-138 142t-83.5 123.5
t-28 128q0 62 24.5 115.5t67 92.5t100 61t124.5 22q88 0 188 -54t211.5 -145.5t235 -212.5t257.5 -255l58 -58h384l142 -142l-58 -58h-384v-1542z" />
    <glyph glyph-name="I4" unicode="&#xf323;" horiz-adv-x="750" 
d="M392 0l-142 142v1458h-250l-142 142l58 58h334q-113 113 -217 213t-202 175t-192.5 118.5t-188.5 43.5q-56 0 -94.5 -17t-62 -43.5t-33.5 -59.5t-10 -64q0 -48 16 -91.5t52 -94t93 -113.5t139 -151l-58 -58l-142 142q-56 56 -110 107.5t-96 104.5t-68 111t-26 127
q0 56 22.5 110t63.5 96t99.5 68t130.5 26q106 0 215.5 -55.5t231 -154.5t258.5 -237t297 -303h382l142 -142l-58 -58h-384v-1542z" />
    <glyph glyph-name="I5" unicode="&#xf324;" horiz-adv-x="750" 
d="M392 0l-142 142v1458h-250l-142 142l58 58h334q-75 75 -146 145t-139.5 131t-135 111.5t-132.5 86.5t-131.5 56t-131.5 20q-69 0 -114 -17t-72 -43.5t-37.5 -59.5t-10.5 -64q0 -48 16 -91.5t52 -94t93 -113.5t139 -151l-58 -58l-142 142q-56 56 -110 107.5t-96 104.5
t-68 111t-26 127q0 56 25.5 110t71.5 96t110.5 68t142.5 26q124 0 239 -55.5t235 -154.5t252.5 -237t291.5 -303h382l142 -142l-58 -58h-384v-1542z" />
    <glyph glyph-name="I6" unicode="&#xf325;" horiz-adv-x="750" 
d="M392 0l-142 142v1458h-250l-142 142l58 58h334q-113 112 -224.5 212t-221 175t-215 119t-205.5 44q-69 0 -114 -17t-72 -43.5t-37.5 -59.5t-10.5 -64q0 -48 16 -91.5t52 -94t93 -113.5t139 -151l-58 -58l-142 142q-56 56 -110 107.5t-96 104.5t-68 111t-26 127
q0 56 25.5 110t71.5 96t110.5 68t142.5 26q124 0 246 -55.5t251 -154.5t269.5 -237t301.5 -303h382l142 -142l-58 -58h-384v-1542z" />
    <glyph glyph-name="I7" unicode="&#xf326;" horiz-adv-x="750" 
d="M392 0l-142 142v1458h-250l-142 142l58 58h334q-113 112 -225.5 212t-225 175t-225 119t-224.5 44q-75 0 -123.5 -20t-76.5 -50t-39 -65t-11 -65q0 -75 39 -144t119 -148l142 -142l-58 -58q-86 73 -151.5 131.5t-115 107t-83 90t-54 81t-29.5 80t-9 86.5q0 62 30 119.5
t80.5 101t116.5 69.5t139 26q130 0 258 -55.5t261.5 -154.5t277.5 -237t305 -303h382l142 -142l-58 -58h-384v-1542z" />
    <glyph glyph-name="I8" unicode="&#xf327;" horiz-adv-x="750" 
d="M392 0l-142 142v1458h-250l-142 142l58 58h334q-113 112 -225.5 212t-225 175t-225 119t-224.5 44q-75 0 -123.5 -20t-76.5 -50t-39 -65t-11 -65q0 -28 7.5 -66.5t33 -91t75.5 -120.5t134 -156l-58 -58l-142 142q-56 56 -102 108.5t-79 105t-51 106.5t-18 114
q0 53 23.5 109t69.5 102t114.5 75.5t158.5 29.5q130 0 258 -55.5t261.5 -154.5t277.5 -237t305 -303h382l142 -142l-58 -58h-384v-1542z" />
    <glyph glyph-name="I9" unicode="&#xf328;" horiz-adv-x="750" 
d="M392 0l-142 142v1458h-250l-142 142l58 58h327q-141 132 -262 234.5t-233.5 172.5t-221.5 106.5t-226 36.5q-75 0 -123.5 -21t-76.5 -54.5t-39 -75t-11 -83.5q0 -56 21.5 -106.5t57 -99t80 -96.5t91.5 -98l-58 -58l-142 142q-38 38 -82 81.5t-81.5 93t-62 106
t-24.5 119.5q0 81 31 146t82.5 110t117.5 69.5t135 24.5q139 0 272 -52.5t266 -145.5t269.5 -219.5t284.5 -274.5l58 -58h384l142 -142l-58 -58h-384v-1542z" />
    <glyph glyph-name="I10" unicode="&#xf329;" horiz-adv-x="750" 
d="M392 0l-142 142v1458h-250l-142 142l58 58h324q-317 285 -577.5 417.5t-462.5 132.5q-84 0 -141.5 -21t-93 -54t-50.5 -73t-15 -77q0 -47 13 -91t42 -91.5t77 -102.5t118 -124l-58 -58l-142 142q-38 38 -82 84.5t-81.5 98.5t-62 109t-24.5 117q0 62 24 123t75 109.5
t129.5 78.5t187.5 30q144 0 293 -52.5t299.5 -145.5t301 -219.5t298.5 -274.5l58 -58h384l142 -142l-58 -58h-384v-1542z" />
    <glyph glyph-name="I11" unicode="&#xf32a;" horiz-adv-x="750" 
d="M392 0l-142 142v1458h-250l-142 142l58 58h334q-71 71 -154.5 139t-175 129t-189 113t-196.5 89.5t-196.5 58.5t-188.5 21q-88 0 -145.5 -21t-92 -55t-48.5 -75.5t-14 -82.5q0 -51 18 -97.5t51 -94t79 -98.5t102 -110l-58 -58l-142 142q-38 38 -82 81.5t-81.5 93t-62 106
t-24.5 119.5q0 81 33.5 146t90.5 110t132.5 69.5t159.5 24.5q159 0 326 -55.5t334.5 -154.5t331.5 -237t316 -303h376l142 -142l-58 -58h-384v-1542z" />
    <glyph glyph-name="I12" unicode="&#xf32b;" horiz-adv-x="750" 
d="M392 0l-142 142v1458h-250l-142 142l58 58h334q-71 71 -159.5 139t-187 129t-203.5 113t-209 89.5t-204 58.5t-187 21q-88 0 -145.5 -21t-92 -55t-48.5 -75.5t-14 -82.5q0 -51 18 -97.5t51 -94t79 -98.5t102 -110l-58 -58l-142 142q-38 38 -82 81.5t-81.5 93t-62 106
t-24.5 119.5q0 81 33.5 146t90.5 110t132.5 69.5t159.5 24.5q102 0 213.5 -25t228 -71.5t235.5 -113.5t235.5 -150t229 -181.5t215.5 -208.5h377l142 -142l-58 -58h-384v-1542z" />
    <glyph glyph-name="I13" unicode="&#xf32c;" horiz-adv-x="750" 
d="M-1408 1658l-142 142q-38 37 -81.5 82t-81 98t-62.5 116t-25 138q0 72 35.5 138t98 116.5t147.5 81t185 30.5q125 0 236 -17.5t202 -42t158 -50t104 -40.5q133 -56 255 -122.5t245 -146t253.5 -174.5t280.5 -207h350l142 -142l-58 -58h-384v-1542l-58 -58l-142 142v1458
h-250l-142 142l58 58h299q-135 98 -241.5 169.5t-196 124t-168.5 89.5t-159 67q-91 34 -176.5 61.5t-170.5 47t-172 30.5t-181 11q-75 0 -139 -18t-111 -51t-73.5 -79t-26.5 -102t13.5 -105t43.5 -99t77.5 -105.5t115.5 -124.5z" />
    <glyph glyph-name="candraAmAtrA" unicode="&#x949;" horiz-adv-x="750" 
d="M392 0l-142 142v1458h-250l-142 142l58 58h834l142 -142l-58 -58h-384v-1542zM-392 2600l142 -142q19 -44 48 -97.5t72.5 -100.5t104 -78.5t141.5 -31.5q69 0 122.5 30.5t92.5 74.5t63.5 93t35.5 86l58 58l142 -142q-7 -29 -24.5 -70t-44.5 -85.5t-63 -88t-81.5 -78.5
t-100 -56.5t-116.5 -21.5q-88 0 -166.5 30.5t-146.5 80.5t-124.5 113t-99.5 129t-72 128.5t-41 110.5z" />
    <glyph glyph-name="OmAtrA" unicode="&#x94a;" horiz-adv-x="750" 
d="M392 0l-142 142v1458h-250l-142 142l58 58h834l142 -142l-58 -58h-384v-1542zM-305 2050q-54 0 -110 21t-116.5 72t-127 136t-141.5 213l58 58l142 -142q19 -34 38.5 -63t44 -50t55.5 -33t73 -12h205q93 0 167.5 -43.5t143 -117t136.5 -170.5t146 -203l-58 -58l-142 142
q-33 56 -64.5 102t-67 79t-78.5 51t-99 18h-205z" />
    <glyph glyph-name="omAtrA" unicode="&#x94b;" horiz-adv-x="750" 
d="M392 0l-142 142v1458h-250l-142 142l58 58h834l142 -142l-58 -58h-384v-1542zM-792 2492l58 58h42q105 0 194 -24.5t171.5 -73t164 -119.5t173.5 -163.5t199 -206.5t240 -247l-58 -58l-142 142q-100 100 -181 179.5t-150.5 140.5t-132 105t-124.5 71.5t-127.5 40.5
t-142.5 13h-42z" />
    <glyph glyph-name="aumAtrA" unicode="&#x94c;" horiz-adv-x="750" 
d="M392 0l-142 142v1458h-250l-142 142l58 58h834l142 -142l-58 -58h-384v-1542zM-500 2000l-142 142l58 58h134q76 0 137.5 -7t114.5 -20.5t99.5 -34.5t93.5 -49q-76 85 -135 144.5t-111.5 96.5t-103.5 53.5t-111 16.5h-184l-142 142l58 58h184q75 0 144 -28.5t139 -82
t144.5 -131t160.5 -176t187.5 -216t224.5 -250.5l-58 -58q-142 142 -204 181t-153.5 80.5t-190 61t-210.5 19.5h-134z" />
    <glyph glyph-name="akAra" unicode="&#x905;" horiz-adv-x="2250" 
d="M208 958l142 -142q37 -62 83 -127t103 -118t126.5 -87t153.5 -34q69 0 122 23.5t89 62.5t54.5 90.5t18.5 107.5q0 40 -12.5 78.5t-39 72.5t-67 61.5t-96.5 46.5q-84 -34 -151 -43l-142 142l58 58q75 17 139 40t111 56.5t73.5 79.5t26.5 108q0 25 -10 54t-33.5 54
t-62 41.5t-94.5 16.5q-45 0 -83.5 -9.5t-75 -27.5t-73 -44.5t-76.5 -60.5l-142 142l58 58q29 29 64.5 54.5t75 45t82 31t86.5 11.5q58 0 117 -21t112.5 -56.5t100 -81.5t81 -96t54 -100.5t19.5 -94.5t-14 -84t-38 -75t-56.5 -66t-69.5 -57q48 -27 96.5 -53t100 -46
t108.5 -32t123 -12q75 0 127.5 21t87 54t54.5 72.5t31 77.5v450h-250l-142 142l58 58h834l142 -142l-58 -58h-384v-1542l-58 -58l-142 142v644q-44 -28 -97 -44.5t-119 -16.5q-60 0 -124 13.5t-136 42.5q26 -67 26 -131q0 -75 -27.5 -147t-79 -128t-125.5 -90.5t-168 -34.5
q-77 0 -149 27.5t-139.5 74.5t-130 110.5t-120 135.5t-110.5 149.5t-101 152.5z" />
    <glyph glyph-name="candraa" unicode="&#x972;" horiz-adv-x="2250" 
d="M208 958l142 -142q37 -62 83 -127t103 -118t126.5 -87t153.5 -34q69 0 122 23.5t89 62.5t54.5 90.5t18.5 107.5q0 40 -12.5 78.5t-39 72.5t-67 61.5t-96.5 46.5q-84 -34 -151 -43l-142 142l58 58q75 17 139 40t111 56.5t73.5 79.5t26.5 108q0 25 -10 54t-33.5 54
t-62 41.5t-94.5 16.5q-45 0 -83.5 -9.5t-75 -27.5t-73 -44.5t-76.5 -60.5l-142 142l58 58q29 29 64.5 54.5t75 45t82 31t86.5 11.5q58 0 117 -21t112.5 -56.5t100 -81.5t81 -96t54 -100.5t19.5 -94.5t-14 -84t-38 -75t-56.5 -66t-69.5 -57q48 -27 96.5 -53t100 -46
t108.5 -32t123 -12q75 0 127.5 21t87 54t54.5 72.5t31 77.5v450h-250l-142 142l58 58h834l142 -142l-58 -58h-384v-1542l-58 -58l-142 142v644q-44 -28 -97 -44.5t-119 -16.5q-60 0 -124 13.5t-136 42.5q26 -67 26 -131q0 -75 -27.5 -147t-79 -128t-125.5 -90.5t-168 -34.5
q-77 0 -149 27.5t-139.5 74.5t-130 110.5t-120 135.5t-110.5 149.5t-101 152.5zM1108 2600l142 -142q19 -44 48 -97.5t72.5 -100.5t104 -78.5t141.5 -31.5q69 0 122.5 30.5t92.5 74.5t63.5 93t35.5 86l58 58l142 -142q-7 -29 -24.5 -70t-44.5 -85.5t-63 -88t-81.5 -78.5
t-100 -56.5t-116.5 -21.5q-88 0 -166.5 30.5t-146.5 80.5t-124.5 113t-99.5 129t-72 128.5t-41 110.5z" />
    <glyph glyph-name="aE" unicode="&#x904;" horiz-adv-x="2250" 
d="M208 958l142 -142q37 -62 83 -127t103 -118t126.5 -87t153.5 -34q69 0 122 23.5t89 62.5t54.5 90.5t18.5 107.5q0 40 -12.5 78.5t-39 72.5t-67 61.5t-96.5 46.5q-84 -34 -151 -43l-142 142l58 58q75 17 139 40t111 56.5t73.5 79.5t26.5 108q0 25 -10 54t-33.5 54
t-62 41.5t-94.5 16.5q-45 0 -83.5 -9.5t-75 -27.5t-73 -44.5t-76.5 -60.5l-142 142l58 58q29 29 64.5 54.5t75 45t82 31t86.5 11.5q58 0 117 -21t112.5 -56.5t100 -81.5t81 -96t54 -100.5t19.5 -94.5t-14 -84t-38 -75t-56.5 -66t-69.5 -57q48 -27 96.5 -53t100 -46
t108.5 -32t123 -12q75 0 127.5 21t87 54t54.5 72.5t31 77.5v450h-250l-142 142l58 58h834l142 -142l-58 -58h-384v-1542l-58 -58l-142 142v644q-44 -28 -97 -44.5t-119 -16.5q-60 0 -124 13.5t-136 42.5q26 -67 26 -131q0 -75 -27.5 -147t-79 -128t-125.5 -90.5t-168 -34.5
q-77 0 -149 27.5t-139.5 74.5t-130 110.5t-120 135.5t-110.5 149.5t-101 152.5zM1195 2050q-54 0 -110 21t-116.5 72t-127 136t-141.5 213l58 58l142 -142q19 -34 38.5 -63t44 -50t55.5 -33t73 -12h205q93 0 167.5 -43.5t143 -117t136.5 -170.5t146 -203l-58 -58l-142 142
q-33 56 -64.5 102t-67 79t-78.5 51t-99 18h-205z" />
    <glyph glyph-name="AkAra" unicode="&#x906;" horiz-adv-x="3000" 
d="M208 958l142 -142q37 -62 83 -127t103 -118t126.5 -87t153.5 -34q69 0 122 23.5t89 62.5t54.5 90.5t18.5 107.5q0 40 -12.5 78.5t-39 72.5t-67 61.5t-96.5 46.5q-84 -34 -151 -43l-142 142l58 58q75 17 139 40t111 56.5t73.5 79.5t26.5 108q0 25 -10 54t-33.5 54
t-62 41.5t-94.5 16.5q-45 0 -83.5 -9.5t-75 -27.5t-73 -44.5t-76.5 -60.5l-142 142l58 58q29 29 64.5 54.5t75 45t82 31t86.5 11.5q58 0 117 -21t112.5 -56.5t100 -81.5t81 -96t54 -100.5t19.5 -94.5t-14 -84t-38 -75t-56.5 -66t-69.5 -57q48 -27 96.5 -53t100 -46
t108.5 -32t123 -12q75 0 127.5 21t87 54t54.5 72.5t31 77.5v450h-250l-142 142l58 58h834l142 -142l-58 -58h-384v-1542l-58 -58l-142 142v644q-44 -28 -97 -44.5t-119 -16.5q-60 0 -124 13.5t-136 42.5q26 -67 26 -131q0 -75 -27.5 -147t-79 -128t-125.5 -90.5t-168 -34.5
q-77 0 -149 27.5t-139.5 74.5t-130 110.5t-120 135.5t-110.5 149.5t-101 152.5zM2642 0l-142 142v1458h-250l-142 142l58 58h834l142 -142l-58 -58h-384v-1542z" />
    <glyph glyph-name="candraA" unicode="&#x911;" horiz-adv-x="3000" 
d="M208 958l142 -142q37 -62 83 -127t103 -118t126.5 -87t153.5 -34q69 0 122 23.5t89 62.5t54.5 90.5t18.5 107.5q0 40 -12.5 78.5t-39 72.5t-67 61.5t-96.5 46.5q-84 -34 -151 -43l-142 142l58 58q75 17 139 40t111 56.5t73.5 79.5t26.5 108q0 25 -10 54t-33.5 54
t-62 41.5t-94.5 16.5q-45 0 -83.5 -9.5t-75 -27.5t-73 -44.5t-76.5 -60.5l-142 142l58 58q29 29 64.5 54.5t75 45t82 31t86.5 11.5q58 0 117 -21t112.5 -56.5t100 -81.5t81 -96t54 -100.5t19.5 -94.5t-14 -84t-38 -75t-56.5 -66t-69.5 -57q48 -27 96.5 -53t100 -46
t108.5 -32t123 -12q75 0 127.5 21t87 54t54.5 72.5t31 77.5v450h-250l-142 142l58 58h834l142 -142l-58 -58h-384v-1542l-58 -58l-142 142v644q-44 -28 -97 -44.5t-119 -16.5q-60 0 -124 13.5t-136 42.5q26 -67 26 -131q0 -75 -27.5 -147t-79 -128t-125.5 -90.5t-168 -34.5
q-77 0 -149 27.5t-139.5 74.5t-130 110.5t-120 135.5t-110.5 149.5t-101 152.5zM2642 0l-142 142v1458h-250l-142 142l58 58h834l142 -142l-58 -58h-384v-1542zM1858 2600l142 -142q19 -44 48 -97.5t72.5 -100.5t104 -78.5t141.5 -31.5q69 0 122.5 30.5t92.5 74.5t63.5 93
t35.5 86l58 58l142 -142q-7 -29 -24.5 -70t-44.5 -85.5t-63 -88t-81.5 -78.5t-100 -56.5t-116.5 -21.5q-88 0 -166.5 30.5t-146.5 80.5t-124.5 113t-99.5 129t-72 128.5t-41 110.5z" />
    <glyph glyph-name="OkAra" unicode="&#x912;" horiz-adv-x="3000" 
d="M208 958l142 -142q37 -62 83 -127t103 -118t126.5 -87t153.5 -34q69 0 122 23.5t89 62.5t54.5 90.5t18.5 107.5q0 40 -12.5 78.5t-39 72.5t-67 61.5t-96.5 46.5q-84 -34 -151 -43l-142 142l58 58q75 17 139 40t111 56.5t73.5 79.5t26.5 108q0 25 -10 54t-33.5 54
t-62 41.5t-94.5 16.5q-45 0 -83.5 -9.5t-75 -27.5t-73 -44.5t-76.5 -60.5l-142 142l58 58q29 29 64.5 54.5t75 45t82 31t86.5 11.5q58 0 117 -21t112.5 -56.5t100 -81.5t81 -96t54 -100.5t19.5 -94.5t-14 -84t-38 -75t-56.5 -66t-69.5 -57q48 -27 96.5 -53t100 -46
t108.5 -32t123 -12q75 0 127.5 21t87 54t54.5 72.5t31 77.5v450h-250l-142 142l58 58h834l142 -142l-58 -58h-384v-1542l-58 -58l-142 142v644q-44 -28 -97 -44.5t-119 -16.5q-60 0 -124 13.5t-136 42.5q26 -67 26 -131q0 -75 -27.5 -147t-79 -128t-125.5 -90.5t-168 -34.5
q-77 0 -149 27.5t-139.5 74.5t-130 110.5t-120 135.5t-110.5 149.5t-101 152.5zM2642 0l-142 142v1458h-250l-142 142l58 58h834l142 -142l-58 -58h-384v-1542zM1945 2050q-54 0 -110 21t-116.5 72t-127 136t-141.5 213l58 58l142 -142q19 -34 38.5 -63t44 -50t55.5 -33
t73 -12h205q93 0 167.5 -43.5t143 -117t136.5 -170.5t146 -203l-58 -58l-142 142q-33 56 -64.5 102t-67 79t-78.5 51t-99 18h-205z" />
    <glyph glyph-name="okAra" unicode="&#x913;" horiz-adv-x="3000" 
d="M208 958l142 -142q37 -62 83 -127t103 -118t126.5 -87t153.5 -34q69 0 122 23.5t89 62.5t54.5 90.5t18.5 107.5q0 40 -12.5 78.5t-39 72.5t-67 61.5t-96.5 46.5q-84 -34 -151 -43l-142 142l58 58q75 17 139 40t111 56.5t73.5 79.5t26.5 108q0 25 -10 54t-33.5 54
t-62 41.5t-94.5 16.5q-45 0 -83.5 -9.5t-75 -27.5t-73 -44.5t-76.5 -60.5l-142 142l58 58q29 29 64.5 54.5t75 45t82 31t86.5 11.5q58 0 117 -21t112.5 -56.5t100 -81.5t81 -96t54 -100.5t19.5 -94.5t-14 -84t-38 -75t-56.5 -66t-69.5 -57q48 -27 96.5 -53t100 -46
t108.5 -32t123 -12q75 0 127.5 21t87 54t54.5 72.5t31 77.5v450h-250l-142 142l58 58h834l142 -142l-58 -58h-384v-1542l-58 -58l-142 142v644q-44 -28 -97 -44.5t-119 -16.5q-60 0 -124 13.5t-136 42.5q26 -67 26 -131q0 -75 -27.5 -147t-79 -128t-125.5 -90.5t-168 -34.5
q-77 0 -149 27.5t-139.5 74.5t-130 110.5t-120 135.5t-110.5 149.5t-101 152.5zM2642 0l-142 142v1458h-250l-142 142l58 58h834l142 -142l-58 -58h-384v-1542zM1458 2492l58 58h42q105 0 194 -24.5t171.5 -73t164 -119.5t173.5 -163.5t199 -206.5t240 -247l-58 -58
l-142 142q-100 100 -181 179.5t-150.5 140.5t-132 105t-124.5 71.5t-127.5 40.5t-142.5 13h-42z" />
    <glyph glyph-name="aukAra" unicode="&#x914;" horiz-adv-x="3000" 
d="M208 958l142 -142q37 -62 83 -127t103 -118t126.5 -87t153.5 -34q69 0 122 23.5t89 62.5t54.5 90.5t18.5 107.5q0 40 -12.5 78.5t-39 72.5t-67 61.5t-96.5 46.5q-84 -34 -151 -43l-142 142l58 58q75 17 139 40t111 56.5t73.5 79.5t26.5 108q0 25 -10 54t-33.5 54
t-62 41.5t-94.5 16.5q-45 0 -83.5 -9.5t-75 -27.5t-73 -44.5t-76.5 -60.5l-142 142l58 58q29 29 64.5 54.5t75 45t82 31t86.5 11.5q58 0 117 -21t112.5 -56.5t100 -81.5t81 -96t54 -100.5t19.5 -94.5t-14 -84t-38 -75t-56.5 -66t-69.5 -57q48 -27 96.5 -53t100 -46
t108.5 -32t123 -12q75 0 127.5 21t87 54t54.5 72.5t31 77.5v450h-250l-142 142l58 58h834l142 -142l-58 -58h-384v-1542l-58 -58l-142 142v644q-44 -28 -97 -44.5t-119 -16.5q-60 0 -124 13.5t-136 42.5q26 -67 26 -131q0 -75 -27.5 -147t-79 -128t-125.5 -90.5t-168 -34.5
q-77 0 -149 27.5t-139.5 74.5t-130 110.5t-120 135.5t-110.5 149.5t-101 152.5zM2642 0l-142 142v1458h-250l-142 142l58 58h834l142 -142l-58 -58h-384v-1542zM1750 2000l-142 142l58 58h134q76 0 137.5 -7t114.5 -20.5t99.5 -34.5t93.5 -49q-76 85 -135 144.5t-111.5 96.5
t-103.5 53.5t-111 16.5h-184l-142 142l58 58h184q75 0 144 -28.5t139 -82t144.5 -131t160.5 -176t187.5 -216t224.5 -250.5l-58 -58q-142 142 -204 181t-153.5 80.5t-190 61t-210.5 19.5h-134z" />
    <glyph glyph-name="ikAra" unicode="&#x907;" horiz-adv-x="1650" 
d="M824 0q-130 0 -228.5 22.5t-171 58.5t-120.5 79.5t-77 86.5t-41 79.5t-12 57.5q0 35 12 65t36 52.5t60.5 35.5t86.5 13t109.5 -28t124 -75.5t133.5 -110t139 -130.5q75 11 143 40t119.5 69t82 87.5t30.5 97.5q0 37 -10 73t-33.5 64.5t-62 45.5t-94.5 17q-51 0 -102 -15.5
t-99.5 -34.5t-93 -34.5t-81.5 -15.5q-38 0 -89.5 23t-107 62t-110 90t-97.5 106.5t-69.5 112t-26.5 106.5q0 56 17.5 102t47 79t68.5 51t83 18h660v250h-1050l-142 142l58 58h1734l142 -142l-58 -58h-484v-392l-58 -58h-718q-50 0 -75 -35.5t-25 -98.5q0 -44 21 -83
t53 -68.5t70 -47t72 -17.5q31 0 75 15.5t94.5 34.5t104.5 34.5t105 15.5q58 0 116.5 -23t112 -61.5t99.5 -88.5t80 -104t53.5 -107.5t19.5 -99.5q0 -63 -33.5 -122.5t-89 -110.5t-127.5 -90.5t-148 -63.5l272 -271l-58 -58l-307 307q-22 -4 -43.5 -5.5t-41.5 -1.5h-50z
M751 200q-87 69 -168.5 109.5t-158.5 40.5q-29 0 -39.5 -16.5t-10.5 -33.5q0 -26 34 -44.5t87 -31t118 -18.5t127 -6h11z" />
    <glyph glyph-name="IkAra" unicode="&#x908;" horiz-adv-x="1650" 
d="M824 0q-130 0 -228.5 22.5t-171 58.5t-120.5 79.5t-77 86.5t-41 79.5t-12 57.5q0 35 12 65t36 52.5t60.5 35.5t86.5 13t109.5 -28t124 -75.5t133.5 -110t139 -130.5q75 11 143 40t119.5 69t82 87.5t30.5 97.5q0 37 -10 73t-33.5 64.5t-62 45.5t-94.5 17q-51 0 -102 -15.5
t-99.5 -34.5t-93 -34.5t-81.5 -15.5q-38 0 -89.5 23t-107 62t-110 90t-97.5 106.5t-69.5 112t-26.5 106.5q0 56 17.5 102t47 79t68.5 51t83 18h660v250h-1050l-142 142l58 58h1134l-151.5 151.5t-130 146.5t-91 148t-34.5 155q0 68 30.5 123.5t76 94.5t99.5 60t101 21
q37 0 63 -2t47.5 -7.5t44 -15.5t54.5 -26l142 -142l-58 -58q-32 15 -57.5 25t-49.5 16t-48 8t-53 2q-38 0 -73 -11.5t-61.5 -34.5t-42 -57t-15.5 -80q0 -65 27 -130.5t72 -130.5t103 -129t120 -127h485l142 -142l-58 -58h-484v-392l-58 -58h-718q-50 0 -75 -35.5t-25 -98.5
q0 -44 21 -83t53 -68.5t70 -47t72 -17.5q31 0 75 15.5t94.5 34.5t104.5 34.5t105 15.5q58 0 116.5 -23t112 -61.5t99.5 -88.5t80 -104t53.5 -107.5t19.5 -99.5q0 -63 -33.5 -122.5t-89 -110.5t-127.5 -90.5t-148 -63.5l272 -271l-58 -58l-307 307q-22 -4 -43.5 -5.5
t-41.5 -1.5h-50zM751 200q-87 69 -168.5 109.5t-158.5 40.5q-29 0 -39.5 -16.5t-10.5 -33.5q0 -26 34 -44.5t87 -31t118 -18.5t127 -6h11z" />
    <glyph glyph-name="ukAra" unicode="&#x909;" horiz-adv-x="1650" 
d="M158 808l142 -142q37 -78 101.5 -160.5t148.5 -150.5t185.5 -111.5t214.5 -43.5q94 0 160.5 30t108.5 77.5t61.5 107t19.5 119.5q0 72 -26.5 131t-73 104.5t-110 78t-137.5 51.5q-70 -32 -153 -49l-142 142l58 58q69 19 130 43.5t106 59.5t71.5 81.5t26.5 108.5
q0 48 -26 90.5t-68 76.5t-96 57.5t-110 32.5h-750l-142 142l58 58h1734l142 -142l-58 -58h-687q43 -39 80.5 -82t64.5 -87t42.5 -88t15.5 -84q0 -72 -39 -140t-106 -125q79 -49 150.5 -111.5t126 -133.5t86.5 -147t32 -152q0 -83 -35.5 -163.5t-98 -144.5t-147.5 -103
t-185 -39q-76 0 -157 24.5t-164 70t-166 111.5t-161.5 149.5t-151 183t-134.5 211.5z" />
    <glyph glyph-name="UkAra" unicode="&#x90a;" horiz-adv-x="2350" 
d="M158 808l142 -142q37 -78 101.5 -160.5t148.5 -150.5t185.5 -111.5t214.5 -43.5q94 0 160.5 30t108.5 77.5t61.5 107t19.5 119.5q0 72 -26.5 131t-73 104.5t-110 78t-137.5 51.5q-70 -32 -153 -49l-142 142l58 58q69 19 130 43.5t106 59.5t71.5 81.5t26.5 108.5
q0 48 -26 90.5t-68 76.5t-96 57.5t-110 32.5h-750l-142 142l58 58h2434l142 -142l-58 -58h-1387q43 -39 80.5 -82t64.5 -87t42.5 -88t15.5 -84q0 -72 -39 -140t-106 -125q57 -35 110.5 -78t100.5 -92q48 63 96.5 114t98 87t101 55.5t104.5 19.5q75 0 143.5 -24.5t128 -64.5
t108 -92t83 -107.5t53 -110.5t18.5 -101q0 -75 -16 -140t-42.5 -124.5t-61.5 -115.5t-72 -112l-58 -58l-142 142q37 57 71.5 115t61.5 119t43 125t16 133q0 43 -20 82.5t-54 69t-79.5 47t-96.5 17.5q-56 0 -104 -18t-90 -51t-80.5 -79t-75.5 -102l-3 -3q25 -49 39 -98.5
t14 -98.5q0 -83 -35.5 -163.5t-98 -144.5t-147.5 -103t-185 -39q-76 0 -157 24.5t-164 70t-166 111.5t-161.5 149.5t-151 183t-134.5 211.5z" />
    <glyph glyph-name="RkAra" unicode="&#x90b;" horiz-adv-x="2400" 
d="M484 350l-142 142l58 58l674 400q-51 41 -107.5 77.5t-116.5 63.5t-123 43t-127 16q-59 0 -104.5 -8.5t-81 -22.5t-63 -32t-51.5 -37l-142 142l58 58q13 13 38.5 30.5t63 33t87 26t111.5 10.5q79 0 154.5 -21.5t148 -60.5t142.5 -93t139 -119v544h-1100l-142 142l58 58
h2484l142 -142l-58 -58h-1184v-577l338 86q-15 29 -26.5 61t-11.5 64q0 34 13.5 64.5t36 53t53 35.5t63.5 13q34 0 68 -13.5t65.5 -36t59 -52t48 -61t32 -63t11.5 -58.5q0 -52 -39.5 -97.5t-126.5 -68.5l216 -350l-58 -58q-72 -16 -119 -41.5t-74 -55t-38 -61t-11 -59.5
q0 -57 41.5 -91t108.5 -34q37 0 67.5 10t54.5 24.5t41 30t29 27.5l58 58l142 -142q-20 -36 -51 -73t-70.5 -67t-87 -49t-99.5 -19t-104.5 17.5t-101 47.5t-90 70.5t-72.5 86t-48.5 93.5t-17.5 94t20 91.5t56.5 87t88 75.5t113.5 56l-122 198l-456 -115v-744l-58 -58
l-142 142v573zM1814 1185q-14 -15 -14 -35q26 7 38 21.5t12 28.5q-21 0 -36 -15z" />
    <glyph glyph-name="RRkAra" unicode="&#x960;" horiz-adv-x="2400" 
d="M484 350l-142 142l58 58l674 400q-51 41 -107.5 77.5t-116.5 63.5t-123 43t-127 16q-59 0 -104.5 -8.5t-80.5 -22.5t-63 -32t-52 -37l-142 142l58 58q13 13 38.5 30.5t63 33t87 26t111.5 10.5q79 0 154.5 -21.5t147.5 -60.5t142.5 -93t139.5 -119v544h-1100l-142 142
l58 58h2484l142 -142l-58 -58h-1184v-577l340 86q-16 30 -28 63t-12 62q0 34 13.5 64.5t36 53t53 35.5t63.5 13t67.5 -13.5t66 -36t59 -52t48 -61t32 -63t11.5 -58.5q0 -52 -40 -98t-126 -68l174 -292l-58 -58q-56 -8 -102 -18t-79 -26t-51 -39.5t-18 -57.5q0 -22 8 -42
t24.5 -35t43 -23.5t64.5 -8.5q61 0 111 25.5t91 66.5l58 58l142 -142q-22 -41 -53.5 -78.5t-71 -66t-88 -46t-105.5 -17.5q-64 -17 -94 -51.5t-30 -72.5q0 -50 33 -75.5t83 -25.5q125 0 234 109l58 58l142 -142q-32 -47 -70 -88t-81.5 -71.5t-93 -48t-105.5 -17.5
q-75 0 -147 35.5t-128 91.5t-90.5 124t-34.5 134q0 38 16.5 74t44.5 66q-36 28 -65.5 62.5t-50.5 72.5t-33 78t-12 80q0 51 20 90.5t56.5 69.5t88.5 50.5t116 33.5l-78 130l-453 -115v-744l-58 -58l-142 142v573zM1814 1185q-14 -15 -14 -35q26 7 38 21.5t12 28.5
q-21 0 -36 -15z" />
    <glyph glyph-name="LkAra" unicode="&#x90c;" horiz-adv-x="2100" 
d="M800 0l-142 142q-99 99 -183 184.5t-145 167t-95.5 164t-34.5 176.5q0 100 34.5 177.5t92.5 130.5t133 80.5t156 27.5q59 0 109.5 -14t97 -40.5t91.5 -65t97 -90.5q65 85 139.5 135.5t149.5 67.5v357h-1300l-142 142l58 58h2184l142 -142l-58 -58h-684v-371
q79 -23 151 -71.5t127.5 -117t88.5 -155t33 -185.5q0 -56 -21 -104.5t-55.5 -93.5t-80 -90.5t-93.5 -95.5q-27 -29 -46 -53.5t-31 -48t-17.5 -47.5t-5.5 -51q0 -25 9 -46t24.5 -36.5t36.5 -24.5t45 -9q32 0 56 7t45 20t41 31.5t43 41.5l58 58l142 -142q-75 -106 -150 -161
t-150 -55q-38 0 -82 15.5t-88.5 43.5t-86 66t-73.5 82.5t-51 93.5t-19 99q0 36 8 63t21.5 49.5t31.5 43t39 44.5q51 56 96.5 104.5t79.5 93.5t54 90.5t20 95.5q0 65 -20.5 114.5t-55 83.5t-79.5 51t-95 17q-56 0 -105 -20t-92 -57t-81 -89.5t-72 -117.5l-58 -58l-142 142
q13 29 26.5 55.5t28.5 52.5q-54 41 -114.5 66.5t-140.5 25.5q-64 0 -118.5 -18.5t-95 -56t-63.5 -94t-23 -131.5q0 -85 35.5 -164t97 -161t145 -171.5t180.5 -195.5z" />
    <glyph glyph-name="LLkAra" unicode="&#x961;" horiz-adv-x="2150" 
d="M800 0l-142 142q-99 99 -183 184.5t-145 167t-95.5 164t-34.5 176.5q0 100 34.5 177.5t92.5 130.5t133 80.5t156 27.5q59 0 109.5 -14t97 -40.5t91.5 -65t97 -90.5q65 85 139.5 135.5t149.5 67.5v357h-1300l-142 142l58 58h2234l142 -142l-58 -58h-734v-373
q79 -27 151.5 -78.5t127.5 -117t88 -138.5t33 -143q0 -56 -18 -102.5t-52.5 -86t-84 -73t-111.5 -63.5q-63 -31 -98.5 -66.5t-35.5 -83.5q0 -50 33 -75t82 -25q36 0 66 10t56 25.5t47.5 35t40.5 38.5l58 58l142 -142q-28 -47 -65 -88t-79 -71.5t-88 -48t-93 -17.5
q-61 -17 -93 -50t-32 -75q0 -24 10.5 -42.5t27.5 -31.5t40 -19.5t47 -6.5q47 0 84.5 12.5t67.5 30.5t52 38t38 36l58 58l142 -142q-32 -44 -68.5 -85.5t-80 -74.5t-95 -53t-113.5 -20q-46 0 -94.5 16t-94 44t-86 65.5t-70.5 80t-47.5 88.5t-17.5 90q0 36 23 76t60 75
q-33 28 -62 60.5t-50 67.5t-33.5 72t-12.5 74q0 43 18 78.5t51 67t79 60.5t102 60q29 16 56 34.5t48 43t33.5 56.5t12.5 75q0 44 -18 83t-51 68.5t-79 47t-102 17.5t-105 -20t-92 -57t-81 -89.5t-72 -117.5l-58 -58l-142 142q13 29 26.5 55.5t28.5 52.5q-54 41 -114.5 66.5
t-140.5 25.5q-64 0 -118.5 -18.5t-95 -56t-63.5 -94t-23 -131.5q0 -85 35.5 -164t97 -161t145 -171.5t180.5 -195.5z" />
    <glyph glyph-name="ekAra" unicode="&#x90f;" horiz-adv-x="1500" 
d="M781 -258l58 58q23 4 51 16.5t52.5 35t41 55.5t16.5 77q0 51 -46.5 103t-119.5 113q-59 49 -128.5 102t-140 110.5t-136.5 119.5t-117 129t-81.5 139.5t-30.5 149.5v650h-200l-142 142l58 58h1584l142 -142l-58 -58h-384v-534q0 -119 -26 -213t-69.5 -160t-101 -102.5
t-119.5 -40.5l-142 142l58 58q56 5 94.5 39t62 88.5t33.5 124.5t10 148v450h-600v-734q0 -76 29 -139.5t77.5 -120t112 -107t131.5 -99.5q81 -58 161 -119.5t144.5 -125t104.5 -128t40 -127.5q0 -51 -18.5 -97.5t-53.5 -85t-87 -68.5t-118 -49z" />
    <glyph glyph-name="candrae" unicode="&#x90d;" horiz-adv-x="1500" 
d="M781 -258l58 58q23 4 51 16.5t52.5 35t41 55.5t16.5 77q0 51 -46.5 103t-119.5 113q-59 49 -128.5 102t-140 110.5t-136.5 119.5t-117 129t-81.5 139.5t-30.5 149.5v650h-200l-142 142l58 58h1584l142 -142l-58 -58h-384v-534q0 -119 -26 -213t-69.5 -160t-101 -102.5
t-119.5 -40.5l-142 142l58 58q56 5 94.5 39t62 88.5t33.5 124.5t10 148v450h-600v-734q0 -76 29 -139.5t77.5 -120t112 -107t131.5 -99.5q81 -58 161 -119.5t144.5 -125t104.5 -128t40 -127.5q0 -51 -18.5 -97.5t-53.5 -85t-87 -68.5t-118 -49zM358 2600l142 -142
q19 -44 48 -97.5t72.5 -100.5t104 -78.5t141.5 -31.5q69 0 122.5 30.5t92.5 74.5t63.5 93t35.5 86l58 58l142 -142q-7 -29 -24.5 -70t-44.5 -85.5t-63 -88t-81.5 -78.5t-100 -56.5t-116.5 -21.5q-88 0 -166.5 30.5t-146.5 80.5t-124.5 113t-99.5 129t-72 128.5t-41 110.5z
" />
    <glyph glyph-name="EkAra" unicode="&#x90e;" horiz-adv-x="1500" 
d="M781 -258l58 58q23 4 51 16.5t52.5 35t41 55.5t16.5 77q0 51 -46.5 103t-119.5 113q-59 49 -128.5 102t-140 110.5t-136.5 119.5t-117 129t-81.5 139.5t-30.5 149.5v650h-200l-142 142l58 58h1584l142 -142l-58 -58h-384v-534q0 -119 -26 -213t-69.5 -160t-101 -102.5
t-119.5 -40.5l-142 142l58 58q56 5 94.5 39t62 88.5t33.5 124.5t10 148v450h-600v-734q0 -76 29 -139.5t77.5 -120t112 -107t131.5 -99.5q81 -58 161 -119.5t144.5 -125t104.5 -128t40 -127.5q0 -51 -18.5 -97.5t-53.5 -85t-87 -68.5t-118 -49zM445 2050q-54 0 -110 21
t-116.5 72t-127 136t-141.5 213l58 58l142 -142q19 -34 38.5 -63t44 -50t55.5 -33t73 -12h205q93 0 167.5 -43.5t143 -117t136.5 -170.5t146 -203l-58 -58l-142 142q-33 56 -64.5 102t-67 79t-78.5 51t-99 18h-205z" />
    <glyph glyph-name="aikAra" unicode="&#x910;" horiz-adv-x="1500" 
d="M781 -258l58 58q23 4 51 16.5t52.5 35t41 55.5t16.5 77q0 51 -46.5 103t-119.5 113q-59 49 -128.5 102t-140 110.5t-136.5 119.5t-117 129t-81.5 139.5t-30.5 149.5v650h-200l-142 142l58 58h1584l142 -142l-58 -58h-384v-534q0 -119 -26 -213t-69.5 -160t-101 -102.5
t-119.5 -40.5l-142 142l58 58q56 5 94.5 39t62 88.5t33.5 124.5t10 148v450h-600v-734q0 -76 29 -139.5t77.5 -120t112 -107t131.5 -99.5q81 -58 161 -119.5t144.5 -125t104.5 -128t40 -127.5q0 -51 -18.5 -97.5t-53.5 -85t-87 -68.5t-118 -49zM-42 2492l58 58h42
q105 0 194 -24.5t171.5 -73t164 -119.5t173.5 -163.5t199 -206.5t240 -247l-58 -58l-142 142q-100 100 -181 179.5t-150.5 140.5t-132 105t-124.5 71.5t-127.5 40.5t-142.5 13h-42z" />
    <glyph glyph-name="akAra1" unicode="&#xf100;" horiz-adv-x="2150" 
d="M550 600l-142 142l58 58l405 243q-49 34 -92 56.5t-82.5 35.5t-77.5 18t-77 5h-250l-142 142l58 58h250q105 0 204.5 -43t208.5 -133q-10 37 -15.5 75t-5.5 77v266h-850l-142 142l58 58h2234l142 -142l-58 -58h-384v-1542l-58 -58l-142 142v591l-650 -533l-142 142l58 58
l385 316q-68 21 -136 66.5t-128 109.5zM1050 1250q0 -75 18 -139t52.5 -111t84 -73.5t111.5 -26.5q104 0 184.5 30.5t149.5 77.5v592h-600v-350z" />
    <glyph glyph-name="akAra1" unicode="&#xf102;" horiz-adv-x="2150" 
d="M550 600l-142 142l58 58l405 243q-49 34 -92 56.5t-82.5 35.5t-77.5 18t-77 5h-250l-142 142l58 58h250q105 0 204.5 -43t208.5 -133q-10 37 -15.5 75t-5.5 77v266h-850l-142 142l58 58h2234l142 -142l-58 -58h-384v-1542l-58 -58l-142 142v591l-650 -533l-142 142l58 58
l385 316q-68 21 -136 66.5t-128 109.5zM1050 1250q0 -75 18 -139t52.5 -111t84 -73.5t111.5 -26.5q104 0 184.5 30.5t149.5 77.5v592h-600v-350z" />
    <glyph glyph-name="akAra1" unicode="&#xf101;" horiz-adv-x="2150" 
d="M550 600l-142 142l58 58l405 243q-49 34 -92 56.5t-82.5 35.5t-77.5 18t-77 5h-250l-142 142l58 58h250q105 0 204.5 -43t208.5 -133q-10 37 -15.5 75t-5.5 77v266h-850l-142 142l58 58h2234l142 -142l-58 -58h-384v-1542l-58 -58l-142 142v591l-650 -533l-142 142l58 58
l385 316q-68 21 -136 66.5t-128 109.5zM1050 1250q0 -75 18 -139t52.5 -111t84 -73.5t111.5 -26.5q104 0 184.5 30.5t149.5 77.5v592h-600v-350z" />
    <glyph glyph-name="candraa1" unicode="&#xf32d;" horiz-adv-x="2150" 
d="M550 600l-142 142l58 58l405 243q-49 34 -92 56.5t-82.5 35.5t-77.5 18t-77 5h-250l-142 142l58 58h250q105 0 204.5 -43t208.5 -133q-10 37 -15.5 75t-5.5 77v266h-850l-142 142l58 58h2234l142 -142l-58 -58h-384v-1542l-58 -58l-142 142v591l-650 -533l-142 142l58 58
l385 316q-68 21 -136 66.5t-128 109.5zM1050 1250q0 -75 18 -139t52.5 -111t84 -73.5t111.5 -26.5q104 0 184.5 30.5t149.5 77.5v592h-600v-350zM1008 2600l142 -142q19 -44 48 -97.5t72.5 -100.5t104 -78.5t141.5 -31.5q69 0 122.5 30.5t92.5 74.5t63.5 93t35.5 86l58 58
l142 -142q-7 -29 -24.5 -70t-44.5 -85.5t-63 -88t-81.5 -78.5t-100 -56.5t-116.5 -21.5q-88 0 -166.5 30.5t-146.5 80.5t-124.5 113t-99.5 129t-72 128.5t-41 110.5z" />
    <glyph glyph-name="aE1" unicode="&#xf32e;" horiz-adv-x="2150" 
d="M550 600l-142 142l58 58l405 243q-49 34 -92 56.5t-82.5 35.5t-77.5 18t-77 5h-250l-142 142l58 58h250q105 0 204.5 -43t208.5 -133q-10 37 -15.5 75t-5.5 77v266h-850l-142 142l58 58h2234l142 -142l-58 -58h-384v-1542l-58 -58l-142 142v591l-650 -533l-142 142l58 58
l385 316q-68 21 -136 66.5t-128 109.5zM1050 1250q0 -75 18 -139t52.5 -111t84 -73.5t111.5 -26.5q104 0 184.5 30.5t149.5 77.5v592h-600v-350zM1095 2050q-54 0 -110 21t-116.5 72t-127 136t-141.5 213l58 58l142 -142q19 -34 38.5 -63t44 -50t55.5 -33t73 -12h205
q93 0 167.5 -43.5t143 -117t136.5 -170.5t146 -203l-58 -58l-142 142q-33 56 -64.5 102t-67 79t-78.5 51t-99 18h-205z" />
    <glyph glyph-name="AkAra1" unicode="&#xf32f;" horiz-adv-x="2900" 
d="M550 600l-142 142l58 58l405 243q-49 34 -92 56.5t-82.5 35.5t-77.5 18t-77 5h-250l-142 142l58 58h250q105 0 204.5 -43t208.5 -133q-10 37 -15.5 75t-5.5 77v266h-850l-142 142l58 58h2234l142 -142l-58 -58h-384v-1542l-58 -58l-142 142v591l-650 -533l-142 142l58 58
l385 316q-68 21 -136 66.5t-128 109.5zM1050 1250q0 -75 18 -139t52.5 -111t84 -73.5t111.5 -26.5q104 0 184.5 30.5t149.5 77.5v592h-600v-350zM2542 0l-142 142v1458h-250l-142 142l58 58h834l142 -142l-58 -58h-384v-1542z" />
    <glyph glyph-name="candraA1" unicode="&#xf330;" horiz-adv-x="2900" 
d="M550 600l-142 142l58 58l405 243q-49 34 -92 56.5t-82.5 35.5t-77.5 18t-77 5h-250l-142 142l58 58h250q105 0 204.5 -43t208.5 -133q-10 37 -15.5 75t-5.5 77v266h-850l-142 142l58 58h2234l142 -142l-58 -58h-384v-1542l-58 -58l-142 142v591l-650 -533l-142 142l58 58
l385 316q-68 21 -136 66.5t-128 109.5zM1050 1250q0 -75 18 -139t52.5 -111t84 -73.5t111.5 -26.5q104 0 184.5 30.5t149.5 77.5v592h-600v-350zM2542 0l-142 142v1458h-250l-142 142l58 58h834l142 -142l-58 -58h-384v-1542zM1758 2600l142 -142q19 -44 48 -97.5
t72.5 -100.5t104 -78.5t141.5 -31.5q69 0 122.5 30.5t92.5 74.5t63.5 93t35.5 86l58 58l142 -142q-7 -29 -24.5 -70t-44.5 -85.5t-63 -88t-81.5 -78.5t-100 -56.5t-116.5 -21.5q-88 0 -166.5 30.5t-146.5 80.5t-124.5 113t-99.5 129t-72 128.5t-41 110.5z" />
    <glyph glyph-name="OkAra1" unicode="&#xf331;" horiz-adv-x="2900" 
d="M550 600l-142 142l58 58l405 243q-49 34 -92 56.5t-82.5 35.5t-77.5 18t-77 5h-250l-142 142l58 58h250q105 0 204.5 -43t208.5 -133q-10 37 -15.5 75t-5.5 77v266h-850l-142 142l58 58h2234l142 -142l-58 -58h-384v-1542l-58 -58l-142 142v591l-650 -533l-142 142l58 58
l385 316q-68 21 -136 66.5t-128 109.5zM1050 1250q0 -75 18 -139t52.5 -111t84 -73.5t111.5 -26.5q104 0 184.5 30.5t149.5 77.5v592h-600v-350zM2542 0l-142 142v1458h-250l-142 142l58 58h834l142 -142l-58 -58h-384v-1542zM1845 2050q-54 0 -110 21t-116.5 72t-127 136
t-141.5 213l58 58l142 -142q19 -34 38.5 -63t44 -50t55.5 -33t73 -12h205q93 0 167.5 -43.5t143 -117t136.5 -170.5t146 -203l-58 -58l-142 142q-33 56 -64.5 102t-67 79t-78.5 51t-99 18h-205z" />
    <glyph glyph-name="okAra1" unicode="&#xf332;" horiz-adv-x="2900" 
d="M550 600l-142 142l58 58l405 243q-49 34 -92 56.5t-82.5 35.5t-77.5 18t-77 5h-250l-142 142l58 58h250q105 0 204.5 -43t208.5 -133q-10 37 -15.5 75t-5.5 77v266h-850l-142 142l58 58h2234l142 -142l-58 -58h-384v-1542l-58 -58l-142 142v591l-650 -533l-142 142l58 58
l385 316q-68 21 -136 66.5t-128 109.5zM1050 1250q0 -75 18 -139t52.5 -111t84 -73.5t111.5 -26.5q104 0 184.5 30.5t149.5 77.5v592h-600v-350zM2542 0l-142 142v1458h-250l-142 142l58 58h834l142 -142l-58 -58h-384v-1542zM1358 2492l58 58h42q105 0 194 -24.5t171.5 -73
t164 -119.5t173.5 -163.5t199 -206.5t240 -247l-58 -58l-142 142q-100 100 -181 179.5t-150.5 140.5t-132 105t-124.5 71.5t-127.5 40.5t-142.5 13h-42z" />
    <glyph glyph-name="aukAra1" unicode="&#xf333;" horiz-adv-x="2900" 
d="M550 600l-142 142l58 58l405 243q-49 34 -92 56.5t-82.5 35.5t-77.5 18t-77 5h-250l-142 142l58 58h250q105 0 204.5 -43t208.5 -133q-10 37 -15.5 75t-5.5 77v266h-850l-142 142l58 58h2234l142 -142l-58 -58h-384v-1542l-58 -58l-142 142v591l-650 -533l-142 142l58 58
l385 316q-68 21 -136 66.5t-128 109.5zM1050 1250q0 -75 18 -139t52.5 -111t84 -73.5t111.5 -26.5q104 0 184.5 30.5t149.5 77.5v592h-600v-350zM2542 0l-142 142v1458h-250l-142 142l58 58h834l142 -142l-58 -58h-384v-1542zM1650 2000l-142 142l58 58h134q76 0 137.5 -7
t114.5 -20.5t99.5 -34.5t93.5 -49q-76 85 -135 144.5t-111.5 96.5t-103.5 53.5t-111 16.5h-184l-142 142l58 58h184q75 0 144 -28.5t139 -82t144.5 -131t160.5 -176t187.5 -216t224.5 -250.5l-58 -58q-142 142 -204 181t-153.5 80.5t-190 61t-210.5 19.5h-134z" />
    <glyph glyph-name="RkAra1" unicode="&#xf103;" horiz-adv-x="2400" 
d="M500 450l-142 142l58 58l595 301q-60 45 -111.5 74t-101.5 45.5t-101.5 23t-112.5 6.5h-234l-142 142l58 58h234q136 0 273 -59t277 -186v545h-1050l-142 142l58 58h2484l142 -142l-58 -58h-384v-1192l-58 -58q-53 -19 -97.5 -42.5t-76.5 -51.5t-50 -61t-18 -70
q0 -57 41.5 -91t108.5 -34q37 0 71 11t64.5 29t59 42.5t55.5 51.5l58 58l142 -142q-27 -41 -64.5 -85t-84 -81t-101 -60.5t-116.5 -23.5q-52 0 -104.5 17.5t-101 47.5t-90 70.5t-72.5 86t-48.5 93.5t-17.5 94q0 56 22 106t61.5 91t94.5 73.5t122 54.5v266h-650v-742l-58 -58
l-142 142v586zM1250 1000h650v600h-650v-600z" />
    <glyph glyph-name="RRkAra1" unicode="&#xf105;" horiz-adv-x="2400" 
d="M2042 450q-53 -9 -97.5 -25.5t-76.5 -38t-50 -48t-18 -56.5q0 -19 8.5 -34t22.5 -25.5t32 -16.5t37 -6q46 0 111.5 24.5t146.5 75.5l142 -142q-45 -43 -97 -78q-54 -37 -153 -80q-39 -19 -62.5 -35.5t-46.5 -38.5q-22 -23 -31.5 -45t-9.5 -46q0 -19 8.5 -34.5t22.5 -27
t32 -17.5t37 -6q30 0 58.5 10t59 28.5t65 45t75.5 58.5l142 -142q-32 -38 -69 -73.5t-77.5 -64t-83.5 -45.5t-86 -17q-39 0 -83 15.5t-86.5 42.5t-81.5 63t-68.5 77t-47 84.5t-17.5 85.5q0 48 23 88.5t61 75.5q-38 28 -71.5 62t-58.5 70.5t-39.5 75t-14.5 75.5
q0 51 26.5 94.5t74.5 79.5t113 64q41 17 86 31v166h-650v-742l-58 -58l-142 142v586l-550 -278l-142 142l58 58l595 301q-60 45 -111.5 74t-101.5 45.5t-101.5 23t-112.5 6.5h-234l-142 142l58 58h234q136 0 273 -59t277 -186v545h-1050l-142 142l58 58h2484l142 -142
l-58 -58h-384v-1092zM1250 1000h650v600h-650v-600z" />
    <glyph glyph-name="RkAra2" unicode="&#xf104;" horiz-adv-x="2450" 
d="M484 350l-142 142l58 58l674 400q-51 41 -107.5 77.5t-116.5 63.5t-123 43t-127 16q-59 0 -104.5 -8.5t-80.5 -22.5t-63 -32t-52 -37l-142 142l58 58q13 13 38.5 30.5t63 33t87 26t111.5 10.5q79 0 154.5 -21.5t147.5 -60.5t142.5 -93t139.5 -119v544h-1100l-142 142
l58 58h2534l142 -142l-58 -58h-1234v-577q87 14 175.5 29.5t167.5 35.5q-20 41 -31.5 81t-11.5 81q0 37 17 73t45.5 64.5t64 45.5t73.5 17q37 0 74 -15.5t70.5 -40.5t62 -56.5t49 -65t32.5 -65.5t12 -57q0 -36 -16.5 -66.5t-46.5 -56.5t-70.5 -47.5t-88.5 -39.5
q35 -54 80 -106.5t92 -104t91.5 -103t80 -102.5t57 -103t21.5 -105q0 -62 -26 -119.5t-68 -101t-96 -69.5t-110 -26q-58 0 -120.5 38.5t-118.5 96.5t-99 125t-62 124l58 58l142 -142q14 -51 40 -75.5t76 -24.5t85 17t57 45.5t32 64t10 73.5q0 57 -31.5 118t-80.5 124.5
t-108 129t-114 132.5q-61 -17 -125 -30.5t-125 -24.5t-116.5 -20t-99.5 -17v-754l-58 -58l-142 142v573zM1800 1154q0 -6 1 -12q46 22 72.5 48.5t26.5 59.5q-18 0 -36 -8.5t-32.5 -21t-23 -27t-8.5 -27.5v-12z" />
    <glyph glyph-name="ka" unicode="&#x915;" horiz-adv-x="2200" 
d="M1242 0l-142 142v426q-64 -52 -145.5 -85t-186.5 -33q-71 0 -140.5 21.5t-133 59.5t-117 89t-93 110.5t-62 124t-22.5 129.5q0 66 25 131.5t75 117.5t125 84.5t175 32.5q78 0 150 -29t136 -72.5t118 -94.5t96 -94v540h-1100l-142 142l58 58h2284l142 -142l-58 -58h-984
v-541q54 40 116 65.5t134 25.5q75 0 141 -21.5t122 -59t99.5 -89t74.5 -110.5t47 -124t16 -130q0 -106 -37.5 -202.5t-112.5 -197.5l-58 -58l-142 142q75 113 112.5 208.5t37.5 191.5q0 56 -14.5 102t-42 79t-68 51t-91.5 18q-50 0 -95.5 -15.5t-86.5 -41t-79 -59t-73 -68.5
v-708zM1100 940q-47 43 -96 81.5t-100.5 67t-106.5 45t-113 16.5q-62 0 -114 -18t-90 -51t-59 -79t-21 -102t21 -102t59 -79t90 -51t114 -18q81 0 149 25t121 61.5t90 78.5t56 77v48z" />
    <glyph glyph-name="nuktaka" unicode="&#x958;" horiz-adv-x="2200" 
d="M1242 0l-142 142v426q-64 -52 -145.5 -85t-186.5 -33q-71 0 -140.5 21.5t-133 59.5t-117 89t-93 110.5t-62 124t-22.5 129.5q0 66 25 131.5t75 117.5t125 84.5t175 32.5q78 0 150 -29t136 -72.5t118 -94.5t96 -94v540h-1100l-142 142l58 58h2284l142 -142l-58 -58h-984
v-541q54 40 116 65.5t134 25.5q75 0 141 -21.5t122 -59t99.5 -89t74.5 -110.5t47 -124t16 -130q0 -106 -37.5 -202.5t-112.5 -197.5l-58 -58l-142 142q75 113 112.5 208.5t37.5 191.5q0 56 -14.5 102t-42 79t-68 51t-91.5 18q-50 0 -95.5 -15.5t-86.5 -41t-79 -59t-73 -68.5
v-708zM1100 940q-47 43 -96 81.5t-100.5 67t-106.5 45t-113 16.5q-62 0 -114 -18t-90 -51t-59 -79t-21 -102t21 -102t59 -79t90 -51t114 -18q81 0 149 25t121 61.5t90 78.5t56 77v48zM423 179l177 177l177 -177l-177 -176z" />
    <glyph glyph-name="kha" unicode="&#x916;" horiz-adv-x="2400" 
d="M290 852q-30 30 -47.5 57.5t-27 54t-12.5 50.5t-3 46t10 43t26 37t35.5 25.5t38.5 9.5q60 -1 103.5 -29t86.5 -71l119 -120q44 118 62.5 284t18.5 361h-700l-142 142l58 58h2484l142 -142l-58 -58h-384v-1542l-58 -58l-142 142v443q-56 -49 -119 -79.5t-131 -30.5
t-135 21.5t-128 59t-113.5 88t-91 109t-60.5 121.5t-22 126q0 75 30 135t79 102.5t112 65t129 22.5q57 0 104.5 -12.5t91 -36t85 -57.5t85.5 -77l84 -84v542h-1000v-84q0 -155 -11 -295.5t-40.5 -257t-81 -203t-132.5 -133.5q82 -78 162.5 -146t157.5 -124t157 -85.5
t164.5 -45.5t168 -21t155.5 -5l142 -142l-58 -58q-89 0 -172.5 5.5t-162 21.5t-153 45.5t-160.5 86.5t-205 164t-257 245zM1900 890v52q-44 36 -83.5 69.5t-81.5 58.5t-90.5 40t-110.5 15q-53 0 -96.5 -16.5t-74 -44.5t-47 -66.5t-16.5 -81.5q0 -44 15.5 -81t38.5 -65
t54.5 -49t71 -33.5t86.5 -12.5q57 0 104 20.5t85 52t79.5 69.5t65.5 73zM494 776q0 69 -7.5 108t-17.5 57.5t-20 22.5t-14 4q-15 0 -21.5 -12t-6.5 -31q0 -29 22.5 -65t64.5 -84z" />
    <glyph glyph-name="nuktakha" unicode="&#x959;" horiz-adv-x="2400" 
d="M273 179l177 177l177 -177l-177 -176zM290 852q-30 30 -47.5 57.5t-27 54t-12.5 50.5t-3 46t10 43t26 37t35.5 25.5t38.5 9.5q60 -1 103.5 -29t86.5 -71l119 -120q44 118 62.5 284t18.5 361h-700l-142 142l58 58h2484l142 -142l-58 -58h-384v-1542l-58 -58l-142 142v443
q-56 -49 -119 -79.5t-131 -30.5t-135 21.5t-128 59t-113.5 88t-91 109t-60.5 121.5t-22 126q0 75 30 135t79 102.5t112 65t129 22.5q57 0 104.5 -12.5t91 -36t85 -57.5t85.5 -77l84 -84v542h-1000v-84q0 -155 -11 -295.5t-40.5 -257t-81 -203t-132.5 -133.5
q82 -78 162.5 -146t157.5 -124t157 -85.5t164.5 -45.5t168 -21t155.5 -5l142 -142l-58 -58q-89 0 -172.5 5.5t-162 21.5t-153 45.5t-160.5 86.5t-205 164t-257 245zM1900 890v52q-44 36 -83.5 69.5t-81.5 58.5t-90.5 40t-110.5 15q-53 0 -96.5 -16.5t-74 -44.5t-47 -66.5
t-16.5 -81.5q0 -44 15.5 -81t38.5 -65t54.5 -49t71 -33.5t86.5 -12.5q57 0 104 20.5t85 52t79.5 69.5t65.5 73zM494 776q0 69 -7.5 108t-17.5 57.5t-20 22.5t-14 4q-15 0 -21.5 -12t-6.5 -31q0 -29 22.5 -65t64.5 -84z" />
    <glyph glyph-name="ga" unicode="&#x917;" horiz-adv-x="1750" 
d="M600 950v650h-600l-142 142l58 58h1834l142 -142l-58 -58h-384v-1542l-58 -58l-142 142v1458h-450v-784q0 -106 -38 -161t-117 -55q-36 0 -66.5 6t-63.5 23.5t-71 49t-88 81.5q-35 34 -63.5 65.5t-49 62.5t-32 64.5t-11.5 72.5q0 28 10.5 51t26.5 39.5t35.5 25.5t37.5 9
q47 0 91.5 -23t98.5 -77zM469 813q17 -7 31 -7q0 23 -5.5 47t-15 44t-21 33t-23.5 13q-15 0 -21.5 -12t-6.5 -31t9 -36q10 -17 23.5 -30t29.5 -21z" />
    <glyph glyph-name="nuktaga" unicode="&#x95a;" horiz-adv-x="1750" 
d="M373 179l177 177l177 -177l-177 -176zM600 950v650h-600l-142 142l58 58h1834l142 -142l-58 -58h-384v-1542l-58 -58l-142 142v1458h-450v-784q0 -106 -38 -161t-117 -55q-36 0 -66.5 6t-63.5 23.5t-71 49t-88 81.5q-35 34 -63.5 65.5t-49 62.5t-32 64.5t-11.5 72.5
q0 28 10.5 51t26.5 39.5t35.5 25.5t37.5 9q47 0 91.5 -23t98.5 -77zM469 813q17 -7 31 -7q0 23 -5.5 47t-15 44t-21 33t-23.5 13q-15 0 -21.5 -12t-6.5 -31t9 -36q10 -17 23.5 -30t29.5 -21z" />
    <glyph glyph-name="gha" unicode="&#x918;" horiz-adv-x="1700" 
d="M1342 0l-142 142v446q-93 -100 -195 -156.5t-221 -56.5q-69 0 -135 21.5t-125.5 58.5t-109.5 86t-86.5 104.5t-57 114t-20.5 114.5q0 23 5 51t15.5 58t28 61t42.5 60q-48 35 -92 78t-77 91t-52.5 101.5t-19.5 109.5q0 60 21 116h-121l-142 142l58 58h1784l142 -142
l-58 -58h-384v-1542zM300 1400q0 -72 45 -124.5t115 -80.5q49 25 112 40t144 15l142 -142l-58 -58q-94 0 -160.5 -24t-108.5 -61.5t-61.5 -83.5t-19.5 -91t18 -84t51 -68.5t79 -46t102 -16.5q64 0 125.5 20t122.5 63.5t123.5 113.5t128.5 170v658h-716q-41 0 -75 -17
t-58 -45.5t-37.5 -64.5t-13.5 -73z" />
    <glyph glyph-name="Ga" unicode="&#x919;" horiz-adv-x="1900" 
d="M108 708l142 -142q81 -81 156.5 -148.5t149 -115.5t146.5 -75t148 -27q88 0 161.5 21t126.5 60t82.5 94.5t29.5 124.5q0 37 -10 73t-33.5 64.5t-62 45.5t-94.5 17q-38 0 -83 -19t-92 -42.5t-92.5 -42.5t-82.5 -19q-38 0 -89.5 25t-107 66.5t-110 95t-97.5 112
t-69.5 116.5t-26.5 108q0 56 17.5 102t47 79t68.5 51t83 18h584v250h-1000l-142 142l58 58h1984l142 -142l-58 -58h-784v-392l-58 -58h-642q-50 0 -75 -35.5t-25 -98.5q0 -44 19.5 -86.5t51 -76.5t69.5 -55t76 -21q31 0 73.5 19t90 42.5t96 42.5t93.5 19q58 0 116.5 -23
t112 -61.5t99.5 -88.5t80 -104t53.5 -107.5t19.5 -99.5q0 -81 -38.5 -156t-107 -133t-163.5 -92.5t-207 -34.5q-88 0 -180.5 38.5t-199 118t-230.5 202t-274 291.5zM1450 1000l177 177l177 -177l-177 -176z" />
    <glyph glyph-name="ca" unicode="&#x91a;" horiz-adv-x="1800" 
d="M0 1600l-142 142l58 58h1884l142 -142l-58 -58h-384v-1542l-58 -58l-142 142v484q-44 -43 -89 -75.5t-92 -55t-98.5 -34t-109.5 -11.5q-65 0 -128.5 19.5t-120 54t-104.5 81t-83.5 100t-55 112.5t-19.5 117q0 54 12.5 101.5t35.5 89.5h-314l-142 142l58 58h1008l142 -142
l-58 -58h-258q-69 -9 -122 -33.5t-89 -60.5t-54.5 -82.5t-18.5 -98.5q0 -47 17.5 -84t48.5 -63t72 -39.5t89 -13.5q130 0 245 74t228 218v658h-1300z" />
    <glyph glyph-name="cha" unicode="&#x91b;" horiz-adv-x="2100" 
d="M1550 -258l58 58q18 16 35 34.5t29.5 39.5t20 46t7.5 56q0 27 -4 52t-15 52.5t-31.5 59.5t-53.5 73q-113 -97 -253 -155t-293 -58q-92 0 -176 21.5t-156.5 58.5t-131 87.5t-100 107.5t-64 118.5t-22.5 121.5q0 107 63 184q-53 32 -100.5 71.5t-83.5 85.5t-57.5 98.5
t-21.5 109.5q0 51 20 102t63.5 92t113 66.5t169.5 25.5h184l142 -142l-58 -58h-184q-66 0 -113 -13t-77.5 -36t-45 -54t-14.5 -67q0 -39 17.5 -68.5t46.5 -51.5t67 -36.5t80 -23.5q35 12 73.5 18.5t81.5 6.5h50l142 -142l-58 -58h-50q-56 0 -102 -13.5t-79 -39t-51 -61
t-18 -80.5q0 -49 22.5 -91.5t68 -73.5t114.5 -48.5t161 -17.5q130 0 250 48.5t218 130.5q-74 67 -143.5 138t-123 147t-85.5 156t-32 164q0 81 26.5 148.5t72.5 115.5t108 75t134 27h9v250h-1400l-142 142l58 58h2184l142 -142l-58 -58h-584v-304q63 -33 118 -83.5
t95.5 -113t63.5 -134.5t23 -149q0 -72 -16.5 -143.5t-46.5 -139.5t-73.5 -132t-97.5 -121q61 -62 105.5 -113t73 -97t42 -89t13.5 -89q0 -47 -19 -89t-49 -78t-67 -67.5t-73 -57.5zM1418 534q45 -48 86 -88q45 48 81 102t61.5 111.5t39.5 118.5t14 122q0 56 -16 102
t-45.5 79t-71 51t-92.5 18t-92.5 -18t-71 -51t-45.5 -79t-16 -102q0 -74 24.5 -139.5t62 -122t81.5 -104.5z" />
    <glyph glyph-name="cha1" unicode="&#xf334;" horiz-adv-x="2100" 
d="M850 625q-56 0 -102 -13.5t-79 -39t-51 -61t-18 -80.5q0 -49 22.5 -91.5t68 -73.5t114.5 -48.5t161 -17.5q127 0 236 36.5t198 100.5q-73 69 -136.5 144.5t-111 157t-75 168t-27.5 177.5q0 81 26.5 148.5t72.5 115.5t108 75t134 27h9v250h-1400l-142 142l58 58h2184
l142 -142l-58 -58h-584v-304q63 -33 118 -83.5t95.5 -113t63.5 -134.5t23 -149q0 -98 -28 -196.5t-81 -189t-128.5 -169t-170 -136.5t-206 -91.5t-236.5 -33.5q-92 0 -176 21.5t-156.5 58.5t-131 87.5t-100 107.5t-64 118.5t-22.5 121.5q0 107 63 184q-53 32 -100.5 71.5
t-83.5 85.5t-57.5 98.5t-21.5 109.5q0 51 20 102t63.5 92t113 66.5t169.5 25.5h184l142 -142l-58 -58h-184q-66 0 -113 -13t-77.5 -36t-45 -54t-14.5 -67q0 -39 17.5 -68.5t46.5 -51.5t67 -36.5t80 -23.5q35 12 73.5 18.5t81.5 6.5h50l142 -142l-58 -58h-50zM1394 495
q40 -55 81 -95q53 49 95 107.5t71 123t44 132.5t15 137q0 56 -16 102t-45.5 79t-71 51t-92.5 18t-92.5 -18t-71 -51t-45.5 -79t-16 -102q0 -75 20 -147.5t52 -137t72 -120.5z" />
    <glyph glyph-name="cha2" unicode="&#xf335;" horiz-adv-x="2200" 
d="M0 1600l-142 142l58 58h2284l142 -142l-58 -58h-634v-179q81 -30 146 -87t110.5 -128t69.5 -150.5t24 -155.5q0 -144 -40.5 -266.5t-110 -222.5t-161 -176.5t-193.5 -129t-207.5 -79t-203.5 -26.5q-96 0 -184 23.5t-164 65t-138 97t-106 120.5t-68 136t-24 142
q0 66 23.5 130.5t68.5 122.5q-64 34 -117.5 81t-92.5 102t-60.5 114t-21.5 116q0 95 44 185t141 165h-385zM984 850q-88 -9 -159 -44t-121 -84t-77 -107.5t-27 -114.5q0 -66 27.5 -121t79 -94.5t125.5 -62t168 -22.5q75 0 163.5 21t177.5 63.5t171.5 107t146.5 152
t102.5 197.5t38.5 243q0 125 -58 195.5t-171 70.5q-55 0 -96.5 -21t-69 -55.5t-41.5 -79.5t-14 -94q0 -94 38.5 -189.5t119.5 -202.5l-58 -58l-142 142q-17 22 -43.5 60t-52 89t-44 112.5t-18.5 130.5q0 67 19.5 130t58 112.5t94.5 82t128 39.5v152h-266q-146 -6 -261 -28.5
t-202 -56t-148 -76t-99.5 -88.5t-56 -93.5t-17.5 -91.5q0 -97 62 -149t183 -46q54 32 118 52.5t137 26.5l142 -142z" />
    <glyph glyph-name="ja" unicode="&#x91c;" horiz-adv-x="2250" 
d="M208 1000l142 -142q50 -69 96.5 -137t92.5 -130t92.5 -115.5t96.5 -92.5t104.5 -61t117.5 -22q56 0 102 18t79 51t51 79t18 102q0 75 -33.5 140t-85 116.5t-113.5 88t-118 55.5h-116l-142 142l58 58h1100v450h-1800l-142 142l58 58h2384l142 -142l-58 -58h-384v-1542
l-58 -58l-142 142v808h-664q61 -51 118 -110t100.5 -121.5t69.5 -127t26 -125.5q0 -68 -28.5 -133.5t-78 -117.5t-116.5 -83.5t-143 -31.5q-107 0 -209 60.5t-208.5 171t-221 266t-245.5 344.5z" />
    <glyph glyph-name="nuktaja" unicode="&#x95b;" horiz-adv-x="2250" 
d="M208 1000l142 -142q50 -69 96.5 -137t92.5 -130t92.5 -115.5t96.5 -92.5t104.5 -61t117.5 -22q56 0 102 18t79 51t51 79t18 102q0 75 -33.5 140t-85 116.5t-113.5 88t-118 55.5h-116l-142 142l58 58h1100v450h-1800l-142 142l58 58h2384l142 -142l-58 -58h-384v-1542
l-58 -58l-142 142v808h-664q61 -51 118 -110t100.5 -121.5t69.5 -127t26 -125.5q0 -68 -28.5 -133.5t-78 -117.5t-116.5 -83.5t-143 -31.5q-107 0 -209 60.5t-208.5 171t-221 266t-245.5 344.5zM800 -224l177 177l177 -177l-177 -176z" />
    <glyph glyph-name="jha" unicode="&#x91d;" horiz-adv-x="2400" 
d="M824 0q-130 0 -228.5 22.5t-171 58.5t-120.5 79.5t-77 86.5t-41 79.5t-12 57.5q0 34 12 64.5t36 53t60.5 35.5t86.5 13q51 0 110 -28t123.5 -75.5t133.5 -110t139 -130.5q75 11 143 40t119.5 69t82 88t30.5 97q0 37 -10 73t-33.5 64.5t-62 45.5t-94.5 17
q-51 0 -102 -15.5t-99.5 -34.5t-93 -34.5t-81.5 -15.5q-38 0 -89.5 23t-107 62t-110 90t-97.5 106.5t-69.5 112t-26.5 106.5q2 56 18 102t45.5 79t70.5 51t92 18h650v250h-1050l-142 142l58 58h2484l142 -142l-58 -58h-384v-1542l-58 -58l-142 142v557q-47 -38 -102 -74.5
t-114 -67.5t-119.5 -56t-119.5 -41q2 -13 3.5 -23.5t1.5 -20.5q0 -63 -33.5 -122.5t-89 -110.5t-127.5 -90.5t-148 -63.5l272 -271l-58 -58l-307 307q-22 -4 -43.5 -5.5t-41.5 -1.5h-50zM1900 1600h-650v-392l-58 -58h-708q-60 0 -85 -35.5t-25 -98.5q0 -44 21 -83t53 -68.5
t70 -47t72 -17.5q31 0 75 15.5t94.5 34.5t104.5 34.5t105 15.5q53 0 106.5 -19.5t103.5 -52.5t94.5 -77t79.5 -93q82 21 157.5 56t140 74.5t115.5 80t84 73.5l50 50v608zM751 200q-88 69 -168.5 109.5t-158.5 40.5q-29 0 -39.5 -16.5t-10.5 -33.5q0 -26 34 -44.5t87 -31
t118 -18.5t127 -6h11z" />
    <glyph glyph-name="jha1" unicode="&#xf107;" horiz-adv-x="2350" 
d="M1392 0l-142 142v658h-622q-7 -24 -13.5 -45.5t-14.5 -38.5q-14 -33 -28.5 -63t-33 -53t-43.5 -36.5t-61 -13.5q-41 0 -90.5 25.5t-92.5 66t-72 91.5t-29 101q0 70 25.5 112.5t82.5 53.5h191q5 36 8 73.5t3 76.5q0 56 -10.5 123t-39 130.5t-79 116.5t-131.5 80h-200
l-142 142l58 58h200q144 -56 247 -141.5t169 -185t97 -205.5t31 -203q0 -17 -0.5 -33t-1.5 -32h592v600h-250l-142 142l58 58h1434l142 -142l-58 -58h-984v-600h16q146 0 257 -29t192.5 -77.5t136.5 -111t87.5 -129t46.5 -132.5t14 -121q0 -78 -22.5 -150.5t-60 -128
t-85 -88.5t-97.5 -33l-142 142l58 58q33 16 60.5 49.5t47 74t30.5 83t11 77.5q0 81 -21 140.5t-72.5 98.5t-138.5 58t-218 19h-100v-742zM365 785q-15 -15 -15 -35q18 0 30.5 16t19.5 34q-20 0 -35 -15z" />
    <glyph glyph-name="jha2" unicode="&#xf108;" horiz-adv-x="2150" 
d="M258 1000l142 -142q27 -27 56.5 -47.5t64.5 -34t79 -20t100 -6.5q60 0 114 18.5t95.5 54.5t66 89t24.5 122q0 76 -19 144t-54.5 135.5t-87.5 137t-118 149.5h-821l-142 142l58 58h2334l142 -142l-58 -58h-1378q52 -56 103.5 -119.5t96 -131t78.5 -138.5t51 -142
q51 37 108 59t123 22t135.5 -27.5t134.5 -74.5t122 -110.5t99.5 -135.5t67.5 -149.5t25 -152.5q0 -99 -34 -190.5t-98 -162.5l340 -339l-58 -58l-342 341q-55 -43 -124 -67t-150 -24q-42 0 -87 16.5t-87.5 44t-80.5 63.5t-66.5 75t-45.5 78t-17 73q0 42 17.5 78.5t47 63.5
t68.5 42.5t83 15.5t82 -17t74 -45.5t71 -64.5t73 -73l46 -47q48 55 68 128t20 152q0 70 -21.5 136t-60.5 117.5t-94.5 82.5t-123.5 31t-121.5 -20.5t-96.5 -52.5t-78 -70t-65 -74q-29 -44 -67.5 -78t-85 -57.5t-98 -35.5t-105.5 -12q-87 0 -161 27t-143 78t-136.5 123.5
t-142.5 163.5zM1559 212q48 12 86 35q-52 45 -102.5 74t-92.5 29q-45 0 -72.5 -21.5t-27.5 -62.5q0 -27 27.5 -46.5t72.5 -19.5q61 0 109 12z" />
    <glyph glyph-name="jha2" unicode="&#xf109;" horiz-adv-x="2150" 
d="M258 1000l142 -142q27 -27 56.5 -47.5t64.5 -34t79 -20t100 -6.5q60 0 114 18.5t95.5 54.5t66 89t24.5 122q0 76 -19 144t-54.5 135.5t-87.5 137t-118 149.5h-821l-142 142l58 58h2334l142 -142l-58 -58h-1378q52 -56 103.5 -119.5t96 -131t78.5 -138.5t51 -142
q51 37 108 59t123 22t135.5 -27.5t134.5 -74.5t122 -110.5t99.5 -135.5t67.5 -149.5t25 -152.5q0 -99 -34 -190.5t-98 -162.5l340 -339l-58 -58l-342 341q-55 -43 -124 -67t-150 -24q-42 0 -87 16.5t-87.5 44t-80.5 63.5t-66.5 75t-45.5 78t-17 73q0 42 17.5 78.5t47 63.5
t68.5 42.5t83 15.5t82 -17t74 -45.5t71 -64.5t73 -73l46 -47q48 55 68 128t20 152q0 70 -21.5 136t-60.5 117.5t-94.5 82.5t-123.5 31t-121.5 -20.5t-96.5 -52.5t-78 -70t-65 -74q-29 -44 -67.5 -78t-85 -57.5t-98 -35.5t-105.5 -12q-87 0 -161 27t-143 78t-136.5 123.5
t-142.5 163.5zM1559 212q48 12 86 35q-52 45 -102.5 74t-92.5 29q-45 0 -72.5 -21.5t-27.5 -62.5q0 -27 27.5 -46.5t72.5 -19.5q61 0 109 12z" />
    <glyph glyph-name="Ya" unicode="&#x91e;" horiz-adv-x="2150" 
d="M-50 1600l-142 142l58 58h2284l142 -142l-58 -58h-384v-1542l-58 -58l-142 142v658h-404q-10 -74 -47.5 -138t-94 -111t-126 -74t-144.5 -27q-96 0 -180 31t-164.5 92.5t-163 154t-176.5 214.5l58 58l142 -142q60 -60 115 -100t104.5 -64t94.5 -34t86 -10q64 0 119 21.5
t95.5 60t63 90.5t22.5 112q0 43 -18 82.5t-51 69t-79 47t-102 17.5q-71 0 -130 -24t-120 -76l-142 142q48 81 129 119.5t179 38.5q78 0 155 -27.5t144.5 -75t121 -111t82.5 -136.5h431v600h-1700z" />
    <glyph glyph-name="Ta" unicode="&#x91f;" horiz-adv-x="1700" 
d="M0 1600l-142 142l58 58h1784l142 -142l-58 -58h-534v-442l-58 -58h-292q-112 0 -204 -28.5t-158 -84.5t-102 -140.5t-36 -196.5q0 -113 43 -197t113.5 -140.5t160 -84.5t183.5 -28q75 0 135.5 15.5t109 40.5t85 56.5t64 65t46 65.5t31.5 57l58 58l142 -142
q-17 -42 -45 -88.5t-67 -93t-88.5 -89t-109 -74.5t-129 -51.5t-148.5 -19.5q-96 0 -191 27.5t-182.5 77.5t-162.5 118t-130 150t-86.5 173.5t-31.5 187.5q0 134 46 239.5t128.5 178t195 110.5t246.5 38h234v300h-1050z" />
    <glyph glyph-name="Tha" unicode="&#x920;" horiz-adv-x="1750" 
d="M0 1600l-142 142l58 58h1834l142 -142l-58 -58h-634v-427q82 -50 154.5 -108.5t127 -128.5t86.5 -153.5t32 -182.5q0 -75 -20 -148.5t-58 -140.5t-92.5 -123.5t-123 -98.5t-149.5 -65.5t-173 -23.5q-96 0 -191.5 27.5t-182.5 77.5t-162 118t-130 150t-86.5 173.5
t-31.5 187.5q0 100 25.5 181.5t69.5 144t103.5 108t128 75t142.5 43.5t147 14h184v300h-1000zM439 458q40 -83 107.5 -140.5t158.5 -87.5t195 -30q116 0 208.5 33t157.5 95t99.5 152t34.5 204q0 91 -36 167.5t-101.5 131.5t-158 86t-204.5 31q-113 0 -205 -30.5
t-157.5 -88.5t-101.5 -141.5t-36 -189.5q0 -108 39 -192z" />
    <glyph glyph-name="Da" unicode="&#x921;" horiz-adv-x="1650" 
d="M108 708l142 -142q81 -81 156.5 -148.5t149 -115.5t146.5 -75t148 -27q88 0 161.5 21t126.5 60t82.5 94.5t29.5 124.5q0 37 -10 73t-33.5 64.5t-62 45.5t-94.5 17q-38 0 -83 -19t-92 -42.5t-92.5 -42.5t-82.5 -19q-38 0 -89.5 25t-107 66.5t-110 95t-97.5 112
t-69.5 116.5t-26.5 108q0 56 17.5 102t47 79t68.5 51t83 18h584v250h-1000l-142 142l58 58h1734l142 -142l-58 -58h-534v-392l-58 -58h-642q-50 0 -75 -35.5t-25 -98.5q0 -44 19.5 -86.5t51 -76.5t69.5 -55t76 -21q31 0 73.5 19t90 42.5t96 42.5t93.5 19q58 0 116.5 -23
t112 -61.5t99.5 -88.5t80 -104t53.5 -107.5t19.5 -99.5q0 -81 -38.5 -156t-107 -133t-163.5 -92.5t-207 -34.5q-88 0 -180.5 38.5t-199 118t-230.5 202t-274 291.5z" />
    <glyph glyph-name="nuktaDa" unicode="&#x95c;" horiz-adv-x="1650" 
d="M108 708l142 -142q81 -81 156.5 -148.5t149 -115.5t146.5 -75t148 -27q88 0 161.5 21t126.5 60t82.5 94.5t29.5 124.5q0 37 -10 73t-33.5 64.5t-62 45.5t-94.5 17q-38 0 -83 -19t-92 -42.5t-92.5 -42.5t-82.5 -19q-38 0 -89.5 25t-107 66.5t-110 95t-97.5 112
t-69.5 116.5t-26.5 108q0 56 17.5 102t47 79t68.5 51t83 18h584v250h-1000l-142 142l58 58h1734l142 -142l-58 -58h-534v-392l-58 -58h-642q-50 0 -75 -35.5t-25 -98.5q0 -44 19.5 -86.5t51 -76.5t69.5 -55t76 -21q31 0 73.5 19t90 42.5t96 42.5t93.5 19q58 0 116.5 -23
t112 -61.5t99.5 -88.5t80 -104t53.5 -107.5t19.5 -99.5q0 -81 -38.5 -156t-107 -133t-163.5 -92.5t-207 -34.5q-88 0 -180.5 38.5t-199 118t-230.5 202t-274 291.5zM723 -324l177 177l177 -177l-177 -176z" />
    <glyph glyph-name="Dha" unicode="&#x922;" horiz-adv-x="1700" 
d="M1088 447q14 -32 40 -61q27 -28 65 -51q38 -22 86 -35q54 50 79.5 104t25.5 110q0 28 -10.5 55t-30.5 49t-48.5 35.5t-63.5 13.5q-31 0 -59 -9.5t-49.5 -28.5t-34.5 -48t-13 -67q0 -34 13 -67zM0 1600l-142 142l58 58h1784l142 -142l-58 -58h-534v-442l-58 -58h-292
q-112 0 -204 -28.5t-158 -84.5t-102 -140.5t-36 -196.5q0 -113 49 -197t128 -140.5t177 -84.5t196 -28q62 0 114 8t96 23q-50 26 -101 62t-92 82t-66.5 101.5t-25.5 121.5q0 46 18.5 93.5t54 86.5t86 64t113.5 25q89 0 168.5 -37.5t139 -99t94.5 -140t35 -160.5
q0 -48 -20 -98.5t-56 -98t-86.5 -90t-111.5 -74.5t-131 -50.5t-145 -18.5q-102 0 -203 26.5t-193.5 75t-172.5 116t-139 149t-92.5 174.5t-33.5 193q0 134 46 239.5t128.5 178t195 110.5t246.5 38h234v300h-1050z" />
    <glyph glyph-name="nuktaDha" unicode="&#x95d;" horiz-adv-x="1700" 
d="M1088 447q14 -32 40 -61q27 -28 65 -51q38 -22 86 -35q54 50 79.5 104t25.5 110q0 28 -10.5 55t-30.5 49t-48.5 35.5t-63.5 13.5q-31 0 -59 -9.5t-49.5 -28.5t-34.5 -48t-13 -67q0 -34 13 -67zM0 1600l-142 142l58 58h1784l142 -142l-58 -58h-534v-442l-58 -58h-292
q-112 0 -204 -28.5t-158 -84.5t-102 -140.5t-36 -196.5q0 -113 49 -197t128 -140.5t177 -84.5t196 -28q62 0 114 8t96 23q-50 26 -101 62t-92 82t-66.5 101.5t-25.5 121.5q0 46 18.5 93.5t54 86.5t86 64t113.5 25q89 0 168.5 -37.5t139 -99t94.5 -140t35 -160.5
q0 -48 -20 -98.5t-56 -98t-86.5 -90t-111.5 -74.5t-131 -50.5t-145 -18.5q-102 0 -203 26.5t-193.5 75t-172.5 116t-139 149t-92.5 174.5t-33.5 193q0 134 46 239.5t128.5 178t195 110.5t246.5 38h234v300h-1050zM773 -324l177 177l177 -177l-177 -176z" />
    <glyph glyph-name="Na" unicode="&#x923;" horiz-adv-x="1900" 
d="M1542 0l-142 142v1458h-400v-734q0 -100 -26 -169.5t-69.5 -113t-101 -63.5t-119.5 -20q-63 0 -123.5 22t-114 60t-99 89.5t-78 111t-51 123.5t-18.5 128v566h-200l-142 142l58 58h1984l142 -142l-58 -58h-384v-1542zM400 950q0 -64 10 -111t33.5 -78t62 -46t94.5 -15
t94.5 15t62 46t33.5 78t10 111v650h-400v-650z" />
    <glyph glyph-name="Na1" unicode="&#xf10a;" horiz-adv-x="2100" 
d="M1742 0l-142 142v1458h-300v-1084l-58 -58l-142 142v1000h-300v-334q0 -135 -10 -230t-34.5 -162t-65 -112.5t-101.5 -82.5q77 -73 139.5 -130t116 -101.5t101.5 -78.5t96.5 -63t101 -54.5t114.5 -51.5l142 -142l-58 -58q-110 46 -214.5 111t-215.5 154.5t-234.5 206
t-277.5 270.5l-160 160q-30 30 -47.5 57.5t-27 54t-12.5 50.5t-3 46t10 43t26 37t35.5 25.5t38.5 9.5q60 -1 103.5 -29t86.5 -71l117 -118q12 35 18.5 72t10 79t4 89.5t0.5 102.5v250h-600l-142 142l58 58h2184l142 -142l-58 -58h-384v-1542zM444 826q0 69 -7.5 108
t-17.5 57.5t-20 22.5t-14 4q-15 0 -21.5 -12t-6.5 -31q0 -29 22.5 -65t64.5 -84z" />
    <glyph glyph-name="ta" unicode="&#x924;" horiz-adv-x="1650" 
d="M0 1600l-142 142l58 58h1734l142 -142l-58 -58h-384v-1542l-58 -58l-142 142v750l-50 50q-23 22 -63.5 46t-91 44t-107.5 33t-114 13q-68 0 -127 -19.5t-102.5 -60t-69 -102.5t-25.5 -146q0 -90 27 -168.5t78.5 -158.5t125.5 -168t167 -197l-58 -58l-142 142
q-35 35 -78 80t-87.5 98.5t-86 113.5t-74 125.5t-52.5 134.5t-20 140q0 97 35 178.5t95 140.5t140 92t170 33q134 0 261.5 -60t248.5 -181v563h-1150z" />
    <glyph glyph-name="tha" unicode="&#x925;" horiz-adv-x="1800" 
d="M1442 0l-142 142v434q-37 -37 -80.5 -69t-93 -56t-106 -37.5t-120.5 -13.5q-87 0 -168.5 30.5t-154 80.5t-134.5 114t-110.5 130.5t-82.5 130.5t-50 114l58 58q232 0 342 92q-81 34 -153.5 83.5t-127.5 107.5t-87 120.5t-32 122.5q0 43 18.5 82.5t50.5 69t75 47t92 17.5
q53 0 108.5 -19.5t107 -54t97 -81t79 -100t53 -112t19.5 -117.5q0 -83 -31.5 -160.5t-92.5 -139.5t-150.5 -103t-205.5 -52q24 -54 62 -101.5t88 -83t112 -56t134 -20.5q71 0 130.5 19t108.5 49.5t88.5 68t69.5 75.5t51.5 72.5t35.5 57.5v658h-250l-142 142l58 58h834
l142 -142l-58 -58h-384v-1542zM582 1329q52 -15 108 -27q10 41 10 98q0 37 -13 73t-36.5 64.5t-57 45.5t-73.5 17q-54 0 -87 -27.5t-33 -72.5q0 -35 14 -61.5t38.5 -47.5t58 -36t71.5 -26z" />
    <glyph glyph-name="da" unicode="&#x926;" horiz-adv-x="1550" 
d="M1400 -150l-142 142l-220 315q-26 -4 -52 -5.5t-52 -1.5q-96 0 -187.5 27t-173.5 74t-150 109.5t-118 133t-77.5 145t-27.5 145.5q0 81 28.5 156t86 133t145 92.5t206.5 34.5h334v250h-1000l-142 142l58 58h1634l142 -142l-58 -58h-434v-392l-58 -58h-392
q-94 0 -160.5 -21.5t-108.5 -60.5t-61.5 -94.5t-19.5 -123.5q0 -75 28 -139t84.5 -111t140.5 -73.5t197 -26.5q12 0 24.5 0.5t26.5 1.5q-21 29 -36 60.5t-15 71.5q0 31 11 61t32 53.5t52 37.5t71 14t77 -14t68.5 -37.5t57 -53t43.5 -61t28 -62.5t10 -56q0 -34 -10.5 -61.5
t-29.5 -49.5t-45 -39t-57 -29l300 -429zM1050 541q23 11 36.5 26t13.5 33q-21 0 -35.5 -14t-14.5 -36v-9z" />
    <glyph glyph-name="dha" unicode="&#x927;" horiz-adv-x="1700" 
d="M1342 0l-142 142v435q-93 -94 -200 -148t-226 -54q-76 0 -146 22t-131 60t-111 88.5t-86 107t-55.5 116t-19.5 115.5q0 29 7 62t22 67t38 67t55 62q-50 35 -94.5 78t-78.5 92.5t-54 105.5t-20 116q0 34 6 66h-106l-142 142l58 58h334l142 -142q-45 -45 -68.5 -98
t-23.5 -110q0 -47 17 -84.5t45 -65.5t63.5 -46t73.5 -26q65 22 151 22l142 -142l-58 -58q-80 0 -138.5 -22t-96.5 -58t-56 -80.5t-18 -89.5q0 -41 17 -81.5t50 -72.5t82.5 -51.5t115.5 -19.5q71 0 138.5 20t131.5 63.5t124 113.5t116 170v658h-250l-142 142l58 58h834
l142 -142l-58 -58h-384v-1542z" />
    <glyph glyph-name="dha1" unicode="&#xf10b;" horiz-adv-x="1850" 
d="M1492 0l-142 142v413q-105 -128 -218 -196.5t-248 -68.5q-71 0 -138 20.5t-126.5 55.5t-109 83t-85 103t-55.5 114.5t-20 117.5q0 63 27 126.5t84 117.5q-72 57 -129.5 113.5t-98 114t-62 118t-21.5 126.5q0 73 25 129t64 94t86 57.5t91 19.5q88 0 155 -33.5t112.5 -85
t68.5 -113.5t23 -118q0 -46 -18 -83t-50 -63t-76.5 -40t-96.5 -14q-49 0 -89 11.5t-72 31.5q21 -51 64.5 -99.5t116.5 -99.5q51 26 111 41t135 15h50l142 -142l-58 -58h-50q-88 0 -151 -21.5t-103.5 -56.5t-60 -80t-19.5 -92t18 -85.5t51 -66.5t79 -43t102 -15
q75 0 149 29.5t144.5 87t135.5 141.5t121 194v658h-250l-142 142l58 58h834l142 -142l-58 -58h-384v-1542zM400 1563q-36 -36 -46 -97q41 -16 96 -16q37 0 61.5 8.5t38.5 21t19.5 27t5.5 27.5q0 30 -18.5 48t-56.5 18q-63 0 -100 -37z" />
    <glyph glyph-name="na" unicode="&#x928;" horiz-adv-x="1650" 
d="M0 1600l-142 142l58 58h1734l142 -142l-58 -58h-384v-1542l-58 -58l-142 142v658h-634l84 -84q0 -36 -12.5 -66.5t-34.5 -52.5t-52.5 -34.5t-66.5 -12.5q-26 0 -57 11.5t-62.5 32t-61.5 48t-52.5 59t-36.5 65.5t-14 68q0 31 5.5 59t18 49.5t33 36.5t51.5 21h892v600
h-1150zM365 785q-15 -15 -15 -35q18 0 34 16t16 34q-20 0 -35 -15z" />
    <glyph glyph-name="nuktana" unicode="&#x929;" horiz-adv-x="1650" 
d="M223 179l177 177l177 -177l-177 -176zM0 1600l-142 142l58 58h1734l142 -142l-58 -58h-384v-1542l-58 -58l-142 142v658h-634l84 -84q0 -36 -12.5 -66.5t-34.5 -52.5t-52.5 -34.5t-66.5 -12.5q-26 0 -57 11.5t-62.5 32t-61.5 48t-52.5 59t-36.5 65.5t-14 68q0 31 5.5 59
t18 49.5t33 36.5t51.5 21h892v600h-1150zM365 785q-15 -15 -15 -35q18 0 34 16t16 34q-20 0 -35 -15z" />
    <glyph glyph-name="pa" unicode="&#x92a;" horiz-adv-x="1600" 
d="M1242 0l-142 142v520q-63 -48 -137.5 -80t-162.5 -32q-63 0 -131.5 23.5t-135 65.5t-127 98.5t-106.5 123.5t-73 140.5t-27 148.5v450h-200l-142 142l58 58h1684l142 -142l-58 -58h-384v-1542zM400 1066q0 -81 26 -140.5t69.5 -98.5t101 -58t119.5 -19q69 0 123.5 17
t100 44.5t84 61.5t76.5 69v658h-700v-534z" />
    <glyph glyph-name="pha" unicode="&#x92b;" horiz-adv-x="2200" 
d="M1242 0l-142 142v520q-63 -48 -137.5 -80t-162.5 -32q-63 0 -131.5 23.5t-135 65.5t-127 98.5t-106.5 123.5t-73 140.5t-27 148.5v450h-200l-142 142l58 58h2284l142 -142l-58 -58h-984v-541q54 40 116 65.5t134 25.5q75 0 141 -21.5t122 -59t99.5 -89t74.5 -110.5
t47 -124t16 -130q0 -106 -37.5 -202.5t-112.5 -197.5l-58 -58l-142 142q75 113 112.5 208.5t37.5 191.5q0 56 -14.5 102t-42 79t-68 51t-91.5 18q-50 0 -95.5 -15.5t-86.5 -41t-79 -59t-73 -68.5v-708zM400 1066q0 -81 26 -140.5t69.5 -98.5t101 -58t119.5 -19
q69 0 123.5 17t100 44.5t84 61.5t76.5 69v658h-700v-534z" />
    <glyph glyph-name="nuktapha" unicode="&#x95e;" horiz-adv-x="2200" 
d="M1242 0l-142 142v520q-63 -48 -137.5 -80t-162.5 -32q-63 0 -131.5 23.5t-135 65.5t-127 98.5t-106.5 123.5t-73 140.5t-27 148.5v450h-200l-142 142l58 58h2284l142 -142l-58 -58h-984v-541q54 40 116 65.5t134 25.5q75 0 141 -21.5t122 -59t99.5 -89t74.5 -110.5
t47 -124t16 -130q0 -106 -37.5 -202.5t-112.5 -197.5l-58 -58l-142 142q75 113 112.5 208.5t37.5 191.5q0 56 -14.5 102t-42 79t-68 51t-91.5 18q-50 0 -95.5 -15.5t-86.5 -41t-79 -59t-73 -68.5v-708zM400 1066q0 -81 26 -140.5t69.5 -98.5t101 -58t119.5 -19
q69 0 123.5 17t100 44.5t84 61.5t76.5 69v658h-700v-534zM423 179l177 177l177 -177l-177 -176z" />
    <glyph glyph-name="ba" unicode="&#x92c;" horiz-adv-x="1600" 
d="M0 1600l-142 142l58 58h1684l142 -142l-58 -58h-384v-1542l-58 -58l-142 142v428q-69 -60 -148.5 -89t-183.5 -31q-71 0 -140.5 21.5t-133 59.5t-117 89t-93 110.5t-62 124t-22.5 129.5q0 66 25 131.5t75 117.5t125 84.5t175 32.5q79 0 151 -29.5t135.5 -73t117.5 -95
t96 -94.5v542h-1100zM944 729q57 38 96.5 82.5t59.5 80.5v48q-47 43 -96 81.5t-100.5 67t-106.5 45t-113 16.5q-63 0 -117 -19zM487 1087q-42 -33 -64.5 -80t-22.5 -107q0 -56 21 -102t59 -79t90 -51t114 -18q51 0 95 9.5t84 26.5z" />
    <glyph glyph-name="bha" unicode="&#x92d;" horiz-adv-x="1800" 
d="M624 750q-11 -51 -24 -84q-14 -33 -28.5 -63t-33 -53t-43.5 -36.5t-61 -13.5q-41 0 -90.5 25.5t-92.5 66t-72 91.5t-29 101q0 70 25.5 112.5t82.5 53.5h180q5 48 8.5 98.5t3.5 101.5q0 56 -11 123.5t-39 131t-76.5 116t-123.5 79.5h-200l-142 142l58 58h200
q144 -56 245.5 -141.5t165.5 -185t93.5 -205.5t29.5 -203q0 -60 -3 -115h653v650h-250l-142 142l58 58h834l142 -142l-58 -58h-384v-1542l-58 -58l-142 142v608h-676zM365 735q-15 -15 -15 -35q18 0 31.5 15.5t18.5 34.5q-20 0 -35 -15z" />
    <glyph glyph-name="bha1" unicode="&#xf10c;" horiz-adv-x="1850" 
d="M717 750q-11 -53 -26.5 -98.5t-37.5 -79t-51.5 -53t-67.5 -19.5q-41 0 -90.5 25.5t-92.5 66t-72 91.5t-29 101q0 70 25.5 112.5t82.5 53.5h182q5 57 6.5 117t2.5 116q-41 17 -88.5 40.5t-94.5 52.5t-90.5 63.5t-77 75t-53.5 87t-20 98.5q0 37 14 73t40.5 64.5t63.5 45.5
t82 17q44 0 92.5 -17t95.5 -50.5t90 -83.5t75.5 -114.5t52 -144.5t19.5 -174q0 -52 -1 -121.5t-6 -144.5h607v650h-250l-142 142l58 58h834l142 -142l-58 -58h-384v-1542l-58 -58l-142 142v608h-633zM514 1358q22 -5 35 -8q-3 75 -16 123t-32.5 76.5t-43 39.5t-48.5 11
q-42 0 -63 -24.5t-21 -59.5q0 -29 13 -52t33.5 -40.5t46 -30t50.5 -21.5t46 -14zM465 735q-15 -15 -15 -35q30 0 52 50q-22 0 -37 -15z" />
    <glyph glyph-name="bha1" unicode="&#xf10d;" horiz-adv-x="1850" 
d="M717 750q-11 -53 -26.5 -98.5t-37.5 -79t-51.5 -53t-67.5 -19.5q-41 0 -90.5 25.5t-92.5 66t-72 91.5t-29 101q0 70 25.5 112.5t82.5 53.5h182q5 57 6.5 117t2.5 116q-41 17 -88.5 40.5t-94.5 52.5t-90.5 63.5t-77 75t-53.5 87t-20 98.5q0 37 14 73t40.5 64.5t63.5 45.5
t82 17q44 0 92.5 -17t95.5 -50.5t90 -83.5t75.5 -114.5t52 -144.5t19.5 -174q0 -52 -1 -121.5t-6 -144.5h607v650h-250l-142 142l58 58h834l142 -142l-58 -58h-384v-1542l-58 -58l-142 142v608h-633zM514 1358q22 -5 35 -8q-3 75 -16 123t-32.5 76.5t-43 39.5t-48.5 11
q-42 0 -63 -24.5t-21 -59.5q0 -29 13 -52t33.5 -40.5t46 -30t50.5 -21.5t46 -14zM465 735q-15 -15 -15 -35q30 0 52 50q-22 0 -37 -15z" />
    <glyph glyph-name="ma" unicode="&#x92e;" horiz-adv-x="1800" 
d="M600 666q0 -36 -12.5 -66.5t-34.5 -52.5t-52.5 -34.5t-66.5 -12.5q-26 0 -57 11.5t-62.5 32t-61.5 48t-52.5 59t-36.5 65.5t-14 68q0 31 5.5 59t18 49.5t33 36.5t51.5 21h142v650h-400l-142 142l58 58h1884l142 -142l-58 -58h-384v-1542l-58 -58l-142 142v608h-700v-84z
M600 950h700v650h-700v-650zM365 735q-15 -15 -15 -35q18 0 34 16t16 34q-20 0 -35 -15z" />
    <glyph glyph-name="ya" unicode="&#x92f;" horiz-adv-x="1750" 
d="M1392 0l-142 142v426q-33 -35 -71 -66t-81.5 -53.5t-93 -35.5t-104.5 -13q-94 0 -175 31t-150.5 82t-127.5 118t-104.5 139.5t-82 144.5t-60.5 135l58 58q35 4 74.5 9.5t77.5 15.5t72.5 26.5t60.5 42t41.5 62t15.5 86.5q0 48 -25 89t-62.5 73.5t-81.5 55t-81 32.5h-350
l-142 142l58 58h1834l142 -142l-58 -58h-384v-1542zM800 1266q0 -73 -37 -132t-93.5 -103.5t-124 -73.5t-128.5 -41q24 -57 62 -113.5t88.5 -101.5t113 -73t135.5 -28q58 0 109.5 19t96 49t81 68t65.5 76t49.5 72.5t32.5 57.5v658h-649q43 -36 79.5 -75t63 -81t41.5 -86.5
t15 -91.5z" />
    <glyph glyph-name="nuktaya" unicode="&#x95f;" horiz-adv-x="1750" 
d="M323 179l177 177l177 -177l-177 -176zM1392 0l-142 142v426q-33 -35 -71 -66t-81.5 -53.5t-93 -35.5t-104.5 -13q-94 0 -175 31t-150.5 82t-127.5 118t-104.5 139.5t-82 144.5t-60.5 135l58 58q35 4 74.5 9.5t77.5 15.5t72.5 26.5t60.5 42t41.5 62t15.5 86.5q0 48 -25 89
t-62.5 73.5t-81.5 55t-81 32.5h-350l-142 142l58 58h1834l142 -142l-58 -58h-384v-1542zM800 1266q0 -73 -37 -132t-93.5 -103.5t-124 -73.5t-128.5 -41q24 -57 62 -113.5t88.5 -101.5t113 -73t135.5 -28q58 0 109.5 19t96 49t81 68t65.5 76t49.5 72.5t32.5 57.5v658h-649
q43 -36 79.5 -75t63 -81t41.5 -86.5t15 -91.5z" />
    <glyph glyph-name="ra" unicode="&#x930;" horiz-adv-x="1300" 
d="M1142 0l-852 852q-30 30 -47.5 57.5t-27 54t-12.5 50.5t-3 46t10 43t26 37t35.5 25.5t38.5 9.5q60 -1 103.5 -29t86.5 -71l119 -120q22 59 37.5 130.5t25 153.5t14 172.5t4.5 188.5h-800l-142 142l58 58h1484l142 -142l-58 -58h-484v-84q0 -156 -11 -297t-41 -257.5
t-82 -203t-134 -133.5l568 -567zM494 776q0 69 -7.5 108t-17.5 57.5t-20 22.5t-14 4q-15 0 -21.5 -12t-6.5 -31q0 -29 22.5 -65t64.5 -84z" />
    <glyph glyph-name="nuktara" unicode="&#x931;" horiz-adv-x="1300" 
d="M1143 0l-852 852q-30 30 -47.5 57.5t-27 54t-12.5 50.5t-3 46t10 43t26 37t35.5 25.5t38.5 9.5q60 -1 103.5 -29t86.5 -71l119 -120q22 59 37.5 130.5t25 153.5t14 172.5t4.5 188.5h-800l-142 142l58 58h1484l142 -142l-58 -58h-484v-84q0 -156 -11 -297t-41 -257.5
t-82 -203t-134 -133.5l568 -567zM495 776q0 69 -7.5 108t-17.5 57.5t-20 22.5t-14 4q-15 0 -21.5 -12t-6.5 -31q0 -29 22.5 -65t64.5 -84zM223 179l177 177l177 -177l-177 -176z" />
    <glyph glyph-name="la" unicode="&#x932;" horiz-adv-x="2100" 
d="M800 0l-142 142q-99 99 -183 184.5t-145 167t-95.5 164t-34.5 176.5q0 100 34.5 177.5t92.5 130.5t133 80.5t156 27.5q59 0 109.5 -14t97 -40.5t91.5 -65t97 -90.5q65 85 139.5 135.5t149.5 67.5v357h-1300l-142 142l58 58h2184l142 -142l-58 -58h-684v-371
q79 -23 151 -71.5t127.5 -117t88.5 -155t33 -185.5q0 -167 -112.5 -340t-337.5 -360l-142 142l58 58q93 93 156.5 170t103 146t57 134t17.5 134q0 65 -20.5 114.5t-55 83.5t-79.5 51t-95 17q-56 0 -105 -20t-92 -57t-81 -89.5t-72 -117.5l-58 -58l-142 142q13 29 26.5 55.5
t28.5 52.5q-54 41 -114.5 66.5t-140.5 25.5q-64 0 -118.5 -18.5t-95 -56t-63.5 -94t-23 -131.5q0 -85 35.5 -164t97 -161t145 -171.5t180.5 -195.5z" />
    <glyph glyph-name="la1" unicode="&#xf10e;" horiz-adv-x="2200" 
d="M0 1600l-142 142l58 58h2284l142 -142l-58 -58h-384v-1542l-58 -58l-142 142v800q-14 14 -41 33t-61 35.5t-72.5 28t-75.5 11.5q-56 0 -105 -20t-92 -57t-81 -89.5t-72 -117.5l-58 -58l-142 142q13 29 26.5 55.5t28.5 52.5q-54 41 -114.5 66.5t-140.5 25.5
q-64 0 -118.5 -18.5t-95 -56t-63.5 -94t-23 -131.5q0 -85 35.5 -164t97 -161t145 -171.5t180.5 -195.5l-58 -58l-142 142q-99 99 -183 184.5t-145 167t-95.5 164t-34.5 176.5q0 100 34.5 177.5t92.5 130.5t133 80.5t156 27.5q59 0 109.5 -14t97 -40.5t91.5 -65t97 -90.5
q79 103 171.5 156.5t183.5 53.5q46 0 90 -12.5t86 -34t81 -51.5t77 -65v513h-1700z" />
    <glyph glyph-name="La" unicode="&#x933;" horiz-adv-x="2200" 
d="M0 1600l-142 142l58 58h2284l142 -142l-58 -58h-684v-420q84 -26 157 -82t127 -127t85 -151t31 -154q0 -81 -27.5 -164t-80.5 -150t-130.5 -109.5t-177.5 -42.5q-60 0 -118 21.5t-115 58t-112.5 86.5t-109.5 107q-23 -43 -57.5 -91t-81 -88.5t-106.5 -67t-134 -26.5
q-63 0 -128 23.5t-126 63.5t-115 94t-94 115t-63.5 126.5t-23.5 127.5q0 94 35 176t96 143t143 96t176 35q65 0 125.5 -21t116 -56.5t106 -82.5t96.5 -99q57 96 136.5 161.5t169.5 87.5v410h-1400zM977 668q31 80 66 169q-24 24 -53 52.5t-66 53t-83.5 41t-106.5 16.5
q-88 0 -151 -31t-103.5 -79.5t-60 -108t-19.5 -115.5q0 -62 25 -111.5t64 -84t86 -52.5t91 -18q88 0 144.5 35t96.5 94.5t70 138.5zM1186 550q29 -29 60.5 -56t69 -48t83 -33.5t101.5 -12.5q83 0 140 33.5t92.5 85t51.5 113.5t16 118q0 37 -14 81t-43.5 81.5t-74.5 62.5
t-107 25q-66 0 -114.5 -18.5t-85 -50.5t-63 -75t-48 -91.5t-40 -100t-38.5 -100.5z" />
    <glyph glyph-name="nuktaLa" unicode="&#x934;" horiz-adv-x="2200" 
d="M0 1600l-142 142l58 58h2284l142 -142l-58 -58h-684v-420q84 -26 157 -82t127 -127t85 -151t31 -154q0 -81 -27.5 -164t-80.5 -150t-130.5 -109.5t-177.5 -42.5q-60 0 -118 21.5t-115 58t-112.5 86.5t-109.5 107q-23 -43 -57.5 -91t-81 -88.5t-106.5 -67t-134 -26.5
q-63 0 -128 23.5t-126 63.5t-115 94t-94 115t-63.5 126.5t-23.5 127.5q0 94 35 176t96 143t143 96t176 35q65 0 125.5 -21t116 -56.5t106 -82.5t96.5 -99q57 96 136.5 161.5t169.5 87.5v410h-1400zM977 668q31 80 66 169q-24 24 -53 52.5t-66 53t-83.5 41t-106.5 16.5
q-88 0 -151 -31t-103.5 -79.5t-60 -108t-19.5 -115.5q0 -62 25 -111.5t64 -84t86 -52.5t91 -18q88 0 144.5 35t96.5 94.5t70 138.5zM1186 550q29 -29 60.5 -56t69 -48t83 -33.5t101.5 -12.5q83 0 140 33.5t92.5 85t51.5 113.5t16 118q0 37 -14 81t-43.5 81.5t-74.5 62.5
t-107 25q-66 0 -114.5 -18.5t-85 -50.5t-63 -75t-48 -91.5t-40 -100t-38.5 -100.5zM996 3l177 177l177 -177l-177 -176z" />
    <glyph glyph-name="va" unicode="&#x935;" horiz-adv-x="1600" 
d="M1300 58l-58 -58l-142 142v426q-64 -52 -145.5 -85t-186.5 -33q-71 0 -140.5 21.5t-133 59.5t-117 89t-93 110.5t-62 124t-22.5 129.5q0 66 25 131.5t75 117.5t125 84.5t175 32.5q78 0 150 -29t136 -72.5t118 -94.5t96 -94v540h-1100l-142 142l58 58h1684l142 -142
l-58 -58h-384v-1542zM684 1150q-62 0 -114 -18t-90 -51t-59 -79t-21 -102t21 -102t59 -79t90 -51t114 -18q81 0 149 25t121 61.5t90 78.5t56 77v48q-47 43 -96 81.5t-100.5 67t-106.5 45t-113 16.5z" />
    <glyph glyph-name="za" unicode="&#x936;" horiz-adv-x="1950" 
d="M1592 0l-142 142v1458h-521q37 -41 68 -87t54 -97t36 -105.5t13 -110.5q0 -81 -22.5 -168t-65 -168t-103 -151t-136.5 -118q84 -115 177 -250t200 -287l-58 -58l-142 142q-89 125 -157.5 224.5t-123.5 177.5q-38 -14 -77.5 -21t-81.5 -7q-38 0 -78.5 15.5t-79 41
t-73.5 59.5t-61.5 71.5t-42 75t-15.5 71.5q0 33 13.5 63.5t36.5 53t53 36t63 13.5q65 0 142 -65t171 -180q118 67 186 196q-73 15 -143.5 42.5t-134.5 65t-118.5 83.5t-94 98.5t-62 110t-22.5 117.5q0 26 6 55.5t20 60.5h-276l-142 142l58 58h2034l142 -142l-58 -58h-384
v-1542zM802 1153q48 -3 86 -3q5 32 8.5 65.5t3.5 68.5q0 62 -18 119.5t-51 101t-79 69.5t-102 26q-43 0 -79.5 -15t-63.5 -41.5t-42 -63t-15 -80.5q0 -56 22 -96t57.5 -67.5t81.5 -44.5t95 -26t96 -13zM426 716q54 0 104 12q-38 45 -66.5 66.5t-53.5 21.5q-27 0 -38.5 -17.5
t-11.5 -32.5q0 -10 6 -19t15.5 -16t21 -11t23.5 -4z" />
    <glyph glyph-name="za1" unicode="&#xf110;" horiz-adv-x="1950" 
d="M1592 0l-142 142v1458h-750v-184q81 -29 153.5 -80.5t127.5 -120t87 -151t32 -173.5q0 -74 -24.5 -140.5t-67.5 -122t-101.5 -98t-125.5 -68.5l327 -404l-58 -58l-142 142l-236 290q-20 -4 -42.5 -5.5t-45.5 -1.5q-69 0 -137.5 26t-123.5 69t-89 98.5t-34 115.5
q0 34 12.5 60.5t33 44.5t45.5 27t50 9q36 0 70.5 -16.5t69.5 -46.5t73 -73.5t82 -97.5q63 17 112 48.5t82.5 75t51.5 97t18 113.5q0 66 -26 117t-68 86t-96 53.5t-110 18.5t-107.5 -12.5t-96.5 -31t-82 -40.5t-64 -41l-142 142l58 58q16 16 48 37t75.5 40t97 32.5
t113.5 15.5v150h-500l-142 142l58 58h2034l142 -142l-58 -58h-384v-1542zM511 625q-20 20 -43 35t-43 15q-25 0 -25 -25q0 -9 12 -14.5t28.5 -7.5t33.5 -2.5t26 -0.5h11z" />
    <glyph glyph-name="za1" unicode="&#xf111;" horiz-adv-x="1950" 
d="M1592 0l-142 142v1458h-750v-184q81 -29 153.5 -80.5t127.5 -120t87 -151t32 -173.5q0 -74 -24.5 -140.5t-67.5 -122t-101.5 -98t-125.5 -68.5l327 -404l-58 -58l-142 142l-236 290q-20 -4 -42.5 -5.5t-45.5 -1.5q-69 0 -137.5 26t-123.5 69t-89 98.5t-34 115.5
q0 34 12.5 60.5t33 44.5t45.5 27t50 9q36 0 70.5 -16.5t69.5 -46.5t73 -73.5t82 -97.5q63 17 112 48.5t82.5 75t51.5 97t18 113.5q0 66 -26 117t-68 86t-96 53.5t-110 18.5t-107.5 -12.5t-96.5 -31t-82 -40.5t-64 -41l-142 142l58 58q16 16 48 37t75.5 40t97 32.5
t113.5 15.5v150h-500l-142 142l58 58h2034l142 -142l-58 -58h-384v-1542zM511 625q-20 20 -43 35t-43 15q-25 0 -25 -25q0 -9 12 -14.5t28.5 -7.5t33.5 -2.5t26 -0.5h11z" />
    <glyph glyph-name="za2" unicode="&#xf336;" horiz-adv-x="1900" 
d="M1542 0l-142 142v712l-516 196q-20 8 -39 16.5t-39 18.5l-514 -285l-142 142l58 58l384 213q-51 38 -95.5 79t-77 84t-51 86.5t-18.5 87.5q0 41 18 85.5t51 81t79 60t102 23.5q50 0 103 -22t103 -58t94 -82t77.5 -94.5t53 -94.5t19.5 -83q0 -42 -21.5 -87t-69.5 -90
l441 -167v578h-250l-142 142l58 58h834l142 -142l-58 -58h-384v-1542zM750 1300q52 29 76 70.5t24 79.5q0 23 -12 49.5t-33.5 49t-52.5 37t-68 14.5q-32 0 -56.5 -12t-42 -31.5t-26.5 -43t-9 -47.5q0 -35 13.5 -61.5t36.5 -48t54.5 -39t66.5 -33.5z" />
    <glyph glyph-name="Sa" unicode="&#x937;" horiz-adv-x="1600" 
d="M1242 0l-142 142v520q-63 -48 -137.5 -80t-162.5 -32q-75 0 -148.5 23.5t-140.5 65.5t-123.5 98.5t-98.5 123.5t-65.5 140.5t-23.5 148.5v450h-200l-142 142l58 58h1684l142 -142l-58 -58h-384v-1542zM400 1066q0 -81 26 -140.5t69.5 -98.5t101 -58t119.5 -19
q66 0 118.5 15.5t96.5 41t81.5 57.5t73.5 65l-686 566v-429zM431 1600l669 -552v552h-669z" />
    <glyph glyph-name="sa" unicode="&#x938;" horiz-adv-x="2050" 
d="M1142 0l-852 852q-30 30 -47.5 57.5t-27 54t-12.5 50.5t-3 46t10 43t26 37t35.5 25.5t38.5 9.5q60 -1 103.5 -29t86.5 -71l119 -120q44 118 62.5 284t18.5 361h-700l-142 142l58 58h2134l142 -142l-58 -58h-384v-1542l-58 -58l-142 142v658h-761q-29 -58 -67.5 -102
t-89.5 -73l568 -567zM1550 1600h-650v-84q0 -145 -9.5 -274.5t-33.5 -241.5h693v600zM494 776q0 69 -7.5 108t-17.5 57.5t-20 22.5t-14 4q-15 0 -21.5 -12t-6.5 -31q0 -29 22.5 -65t64.5 -84z" />
    <glyph glyph-name="ha" unicode="&#x939;" horiz-adv-x="1550" 
d="M1292 -708q-148 77 -287.5 157.5t-263 165t-226 172t-176.5 179.5t-115 188t-41 196q0 67 16 126t44.5 110t68 92.5t86.5 73.5q-51 41 -91 79.5t-67.5 78t-42 82t-14.5 92.5q0 62 22 111.5t62 84t95 52.5t121 18h567v250h-1050l-142 142l58 58h1634l142 -142l-58 -58
h-384v-392l-58 -58h-625q-84 0 -134 -37.5t-50 -112.5q0 -57 33 -105t83 -83l3 -4q51 20 105 31t109 11q96 0 180.5 -23.5t154.5 -63t126 -92.5t94 -112.5t58.5 -122t20.5 -120.5q0 -62 -25 -118.5t-62.5 -103.5t-81.5 -84t-81 -60l-142 142l58 58q63 54 98.5 114.5
t35.5 135.5q0 37 -19.5 81t-61.5 81.5t-108.5 62.5t-160.5 25q-75 0 -149.5 -20t-134 -65.5t-96.5 -119t-37 -179.5q0 -79 33 -152.5t90.5 -142.5t136 -132.5t170 -123.5t192.5 -115.5t203 -107.5l142 -142z" />
    <glyph glyph-name="kSa" unicode="&#xf337;" horiz-adv-x="2050" 
d="M1292 -92q-72 72 -133.5 131t-113.5 108q-41 -22 -91 -34.5t-110 -12.5q-74 0 -150 23.5t-147.5 65t-134.5 97t-110 120.5t-74.5 136t-27.5 142q0 78 26.5 139t70 110.5t100 88.5t117.5 72q-52 37 -99.5 81t-84 93t-58.5 103t-22 113q0 63 26 120t69.5 100.5t101 69.5
t119.5 26q58 0 117 -19.5t112.5 -54t100 -81t81 -100t54 -112t19.5 -117.5q0 -48 -14 -86.5t-39 -71t-58 -59.5t-72 -52q57 -21 119 -34t130 -13q69 0 125 13.5t102.5 36.5t85 53.5t71.5 63.5l50 50v383h-250l-142 142l58 58h834l142 -142l-58 -58h-384v-1542l-58 -58
l-142 142v775q-30 -24 -65.5 -45.5t-78 -37.5t-94 -25t-112.5 -9q-80 0 -154.5 18.5t-136.5 44t-109.5 52.5t-74.5 44q-60 -38 -118.5 -71t-104 -72.5t-74 -91t-28.5 -124.5q0 -75 33.5 -131.5t86 -94t116.5 -56t124 -18.5q32 0 60 4t51 12q-34 34 -58.5 63t-40.5 55t-24 50
t-8 50q0 28 10.5 54.5t30 47t46.5 32.5t59 12q60 0 116.5 -30t100.5 -76.5t70.5 -102t26.5 -105.5q0 -42 -21 -86t-61 -81q20 -21 42 -43.5t48 -47.5l142 -142zM564 1210q38 -24 86 -46q46 23 83 47t63 52t40 61.5t14 75.5q0 49 -17 86t-45.5 62.5t-64.5 38.5t-73 13
q-38 0 -73.5 -13t-64 -38.5t-45.5 -62.5t-17 -86q0 -42 13 -76t38.5 -62t62.5 -52zM946 418q7 -17 22 -40q17 19 24.5 38t7.5 34q0 14 -8.5 22t-21.5 8t-21.5 -8t-8.5 -22t6 -32z" />
    <glyph glyph-name="kSa1" unicode="&#xf106;" horiz-adv-x="1950" 
d="M771 400q-43 50 -62 88.5t-19 79.5q0 28 12.5 54.5t32.5 47t46.5 32.5t54.5 12q60 0 116.5 -26.5t100.5 -70.5t70.5 -100.5t26.5 -116.5q0 -48 -26 -86t-73 -65q13 -14 27 -27.5t30 -29.5l142 -142l-58 -58q-70 66 -128.5 121t-106.5 100q-28 -7 -59 -10t-64 -3
q-84 0 -163 27t-149.5 72.5t-129.5 105t-101.5 124.5t-66.5 131.5t-24 125.5q0 99 28 176.5t77 137.5h-171l-142 142l58 58h1400v300h-1450l-142 142l58 58h2034l142 -142l-58 -58h-384v-1542l-58 -58l-142 142v958h-584q-86 -2 -169.5 -23.5t-149.5 -68.5t-106.5 -122
t-40.5 -184q0 -57 26.5 -111.5t73.5 -96.5t111 -68t139 -26h21zM893 456q4 -13 12 -29q20 10 32.5 24t12.5 33q0 14 -8.5 22t-21.5 8t-21.5 -8t-8.5 -22t3 -28z" />
    <glyph glyph-name="jYa" unicode="&#xf338;" horiz-adv-x="1850" 
d="M942 -300l-142 142q-37 46 -67.5 85.5t-57.5 73.5q-6 -1 -12.5 -1h-12.5q-104 0 -187 33.5t-141.5 83.5t-90 108.5t-31.5 108.5q0 57 32.5 86.5t83.5 29.5q31 0 64.5 -14.5t72.5 -44.5t84.5 -76t101.5 -110q55 8 94.5 27t65.5 45.5t38.5 58t12.5 64.5q0 54 -32.5 93.5
t-83.5 56.5q-53 18 -113 42.5t-119.5 56.5t-114 71.5t-96 87.5t-66.5 104.5t-25 121.5q0 56 26.5 104.5t73.5 84.5t111 56.5t139 20.5q111 0 207 -18.5t190 -55.5t191.5 -92.5t211.5 -128.5v595h-1350l-142 142l58 58h1934l142 -142l-58 -58h-384v-1542l-58 -58l-142 142
v718q-95 60 -185.5 105t-179 75t-175.5 45t-176 15q-50 0 -93 -8.5t-74.5 -26.5t-49 -46.5t-17.5 -68.5q0 -38 18 -66.5t51 -52t79 -43t102 -38.5q37 -13 81.5 -37.5t89 -57t86 -72.5t73.5 -83.5t51 -90.5t19 -93q0 -35 -17.5 -77t-50.5 -83t-81.5 -76.5t-109.5 -56.5
q48 -57 98.5 -123.5t110.5 -141.5zM400 250q0 -39 106 -48q-28 26 -53 37t-53 11z" />
    <glyph glyph-name="jYa1" unicode="&#xf339;" horiz-adv-x="1900" 
d="M942 -242l-142 142l-171 275q-78 1 -154.5 31t-137.5 77.5t-99 107t-38 118.5q0 69 36 105t105 36q42 0 82 -21t78 -57.5t74.5 -85.5t72.5 -104q122 18 187 83t65 169q0 72 -36.5 132.5t-107 116t-173 108.5t-233.5 109l-142 142l58 58h1134v300h-1400l-142 142l58 58
h1984l142 -142l-58 -58h-384v-1542l-58 -58l-142 142v958h-752q98 -60 181 -124.5t143 -133t94 -141.5t34 -151q0 -65 -24.5 -123t-68 -105t-105 -81t-134.5 -51l232 -374zM500 384q-21 35 -39.5 50.5t-35.5 15.5q-12 0 -18.5 -7.5t-6.5 -17.5q0 -16 27.5 -29.5t76.5 -18.5z
" />
    <glyph glyph-name="zha" unicode="&#x979;" horiz-adv-x="1950" 
d="M108 1258l142 -142q56 -100 116.5 -177.5t121 -130.5t120.5 -80.5t116 -27.5q95 0 148 51t53 133q0 43 -17 83t-47 74.5t-71.5 62t-89.5 46.5h-100l-142 142l58 58h934v250h-1450l-142 142l58 58h2034l142 -142l-58 -58h-384v-1542l-58 -58l-142 142v1008h-522
q43 -39 79 -81t62 -86.5t41 -90.5t15 -92q0 -56 -22.5 -110t-64 -96t-99.5 -68t-130 -26q-88 0 -168 39t-168 123.5t-190 217t-233 320.5zM296 300l177 177l177 -177l-177 -176zM850 300l177 177l177 -177l-177 -176zM573 23l177 177l177 -177l-177 -176z" />
    <glyph glyph-name="yya" unicode="&#x97a;" horiz-adv-x="1750" 
d="M1392 0l-142 142v426q-33 -35 -71 -66t-81.5 -53.5t-93 -35.5t-104.5 -13q-94 0 -175 31t-150.5 82t-127.5 118t-104.5 139.5t-82 144.5t-60.5 135l58 58q35 4 74.5 9.5t77.5 15.5t72.5 26.5t60.5 42t41.5 62t15.5 86.5q0 48 -25 89t-62.5 73.5t-81.5 55t-81 32.5h-350
l-142 142l58 58h1834l142 -142l-58 -58h-384v-1542zM797 1305q3 -20 3 -39q0 -73 -37 -132t-93.5 -103.5t-124 -73.5t-128.5 -41q24 -57 62 -113.5t88.5 -101.5t113 -73t135.5 -28q55 0 104.5 17t92 45t78.5 63.5t64.5 72t50.5 70.5t36 59zM1250 1600h-649l649 -551v551z
" />
    <glyph glyph-name="GGA" unicode="&#x97b;" horiz-adv-x="1750" 
d="M342 0l-142 142l58 58h992v1400h-450v-784q0 -106 -38 -161t-117 -55q-36 0 -66.5 6t-63.5 23.5t-71 49t-88 81.5q-35 34 -63.5 65.5t-49 62.5t-32 64.5t-11.5 72.5q0 28 10.5 51t26.5 39.5t35.5 25.5t37.5 9q47 0 91.5 -23t98.5 -77l100 -100v650h-600l-142 142l58 58
h1834l142 -142l-58 -58h-384v-1542l-58 -58h-1050zM469 813q17 -7 31 -7q0 23 -5.5 47t-15 44t-21 33t-23.5 13q-15 0 -21.5 -12t-6.5 -31t9 -36q10 -17 23.5 -30t29.5 -21z" />
    <glyph glyph-name="JJA" unicode="&#x97c;" horiz-adv-x="1950" 
d="M192 0l-142 142l58 58h1342v950h-522q43 -39 79 -81t62 -86.5t41 -90.5t15 -92q0 -56 -22.5 -110t-64 -96t-99.5 -68t-130 -26q-88 0 -168 39t-168 123.5t-190 217t-233 320.5l58 58l142 -142q56 -100 116.5 -177.5t121 -130.5t120.5 -80.5t116 -27.5q95 0 148 51t53 133
q0 43 -17 83t-47 74.5t-71.5 62t-89.5 46.5h-100l-142 142l58 58h934v250h-1450l-142 142l58 58h2034l142 -142l-58 -58h-384v-1542l-58 -58h-1400z" />
    <glyph glyph-name="glottalstop" unicode="&#x97d;" horiz-adv-x="1750" 
d="M842 0l-142 142v400l58 58h58q125 0 216.5 22.5t151 65t88 102.5t28.5 135q0 56 -23 106t-67.5 87.5t-110 59.5t-149.5 22q-94 0 -170 -25t-137.5 -61.5t-111 -79t-89.5 -76.5l-142 142l58 58q34 34 80.5 76.5t108 79t140 61.5t177.5 25q126 0 241 -44t203 -119.5
t140 -177.5t52 -218q0 -90 -41 -170.5t-118.5 -140.5t-188.5 -95t-252 -35v-342zM0 1600l-142 142l58 58h1834l141 -142l-57 -58h-1834z" />
    <glyph glyph-name="DDA" unicode="&#x97e;" horiz-adv-x="1600" 
d="M208 1000l142 -142q75 -75 149 -124.5t144.5 -79.5t135.5 -42t121 -12t110 13.5t96 39.5t68 63t26 84q0 45 -33 72.5t-83 27.5q-32 0 -64 -11.5t-66.5 -26t-72.5 -26t-81 -11.5q-44 0 -94 19.5t-100 51.5t-96.5 74t-82 87.5t-56.5 91t-21 85.5q0 44 18 83.5t51 69
t79 46.5t102 17h450v150h-1050l-142 142l58 58h1684l142 -142l-58 -58h-434v-292l-58 -58h-508q-41 0 -67 -8.5t-41 -22.5t-20.5 -32t-5.5 -37q0 -28 13 -51t35.5 -39.5t53 -25.5t64.5 -9q31 0 69 11.5t76.5 26t74.5 26t64 11.5q37 0 81.5 -15t89 -41.5t86 -63t73.5 -79
t51 -90t19 -95.5q0 -72 -34.5 -130t-92.5 -99.5t-133 -64t-156 -22.5q-59 0 -115.5 9.5t-116 33t-123.5 63t-137 99.5t-157.5 143.5t-184.5 193.5zM292 0l-142 142l58 58h1142l142 -142l-58 -58h-1142z" />
    <glyph glyph-name="BBA" unicode="&#x97f;" horiz-adv-x="1600" 
d="M342 0l-142 142l58 58h842v368q-64 -52 -145.5 -85t-186.5 -33q-71 0 -140.5 21.5t-133 59.5t-117 89t-93 110.5t-62 124t-22.5 129.5q0 66 25 131.5t75 117.5t125 84.5t175 32.5q78 0 150 -29t136 -72.5t118 -94.5t96 -94v540h-1100l-142 142l58 58h1684l142 -142
l-58 -58h-384v-1542l-58 -58h-900zM944 729q57 38 96.5 82.5t59.5 80.5v48q-47 43 -96 81.5t-100.5 67t-106.5 45t-113 16.5q-62 0 -117 -19zM487 1087q-42 -33 -64.5 -80.5t-22.5 -106.5q0 -56 21 -102t59 -79t90 -51t114 -18q50 0 94.5 9.5t84.5 26.5z" />
    <glyph glyph-name="ardhak" unicode="&#xf33a;" horiz-adv-x="1550" 
d="M1242 0l-142 142v428q-40 -37 -91 -63t-110.5 -41.5t-130.5 -15.5t-140.5 21.5t-133 59.5t-117 89t-93 110.5t-62 124t-22.5 129.5q0 66 25 131.5t75 117.5t125 84.5t175 32.5q78 0 150 -29t136 -72.5t118 -94.5t96 -94v540h-1100l-142 142l58 58h1634l142 -142l-58 -58
h-334v-541q54 40 116 65.5t134 25.5q37 0 71.5 -12.5t66 -33.5t61.5 -48t59 -56l142 -142l-58 -58q-35 28 -66.5 55t-63 48t-63 34t-65.5 13q-50 0 -95.5 -15.5t-86.5 -41t-79 -59t-73 -68.5v-708zM1100 940q-47 43 -96 81.5t-100.5 67t-106.5 45t-113 16.5q-62 0 -114 -18
t-90 -51t-59 -79t-21 -102t21 -102t59 -79t90 -51t114 -18q81 0 149 25t121 61.5t90 78.5t56 67v58z" />
    <glyph glyph-name="ardhakh" unicode="&#xf33b;" horiz-adv-x="1700" 
d="M290 852q-30 30 -47.5 57.5t-27 54t-12.5 50.5t-3 46t10 43t26 37t35.5 25.5t38.5 9.5q60 -1 103.5 -29t86.5 -71l119 -120q22 59 37.5 130.5t25 153.5t14 172.5t4.5 188.5h-700l-142 142l58 58h1784l142 -142l-58 -58h-884v-84q0 -155 -11 -295.5t-40.5 -257t-81 -203
t-132.5 -133.5q82 -77 163 -145.5t168 -131.5q66 -49 146 -78.5t164.5 -45.5t168 -21t155.5 -5l142 -142l-58 -58q-89 0 -172.5 5.5t-162 21.5t-153 45.5t-146.5 77.5q-99 66 -219 173.5t-257 244.5zM2100 858q-18 -40 -44 -83.5t-59.5 -86t-73 -81t-83.5 -68t-92 -47
t-98 -17.5q-68 0 -135 21.5t-128 59t-113.5 88t-91 109t-60.5 121.5t-22 126q0 75 30 135t79 102.5t112 65t129 22.5q56 0 104 -12.5t91.5 -35.5t85 -57.5t85.5 -77.5zM1900 890v52q-44 36 -83.5 69.5t-81.5 58.5t-90.5 40t-110.5 15q-53 0 -96.5 -16.5t-74 -44.5t-47 -66.5
t-16.5 -81.5q0 -44 18 -87t52.5 -77t84 -55.5t111.5 -21.5q46 0 85 13.5t72 35.5t65 50t60.5 58t51.5 58zM494 776q0 69 -7.5 108t-17.5 57.5t-20 22.5t-14 4q-15 0 -21.5 -12t-6.5 -31q0 -29 22.5 -65t64.5 -84z" />
    <glyph glyph-name="ardhag" unicode="&#xf33c;" horiz-adv-x="1000" 
d="M600 950v650h-600l-142 142l58 58h1084l142 -142l-58 -58h-284v-784q0 -106 -38 -161t-117 -55q-36 0 -66.5 6t-63.5 23.5t-71 49t-88 81.5q-35 34 -63.5 65.5t-49 62.5t-32 64.5t-11.5 72.5q0 28 10.5 51t26.5 39.5t35.5 25.5t37.5 9q47 0 91.5 -23t98.5 -77zM469 813
q17 -7 31 -7q0 23 -5.5 47t-15 44t-21 33t-23.5 13q-15 0 -21.5 -12t-6.5 -31t9 -36q10 -17 23.5 -30t29.5 -21z" />
    <glyph glyph-name="ardhagh" unicode="&#xf33d;" horiz-adv-x="1000" 
d="M0 1600l-142 142l58 58h1084l142 -142l-58 -58h-600q-41 0 -75 -17t-58 -45.5t-37.5 -64.5t-13.5 -73q0 -72 45 -124.5t115 -80.5q49 25 112 40t144 15l142 -142l-58 -58q-94 0 -160.5 -24t-108.5 -61.5t-61.5 -83.5t-19.5 -91t18 -84t51 -68.5t79 -46t102 -16.5
q64 0 125.5 20t123 63.5t123.5 113.5t128 170l58 58l142 -142q-66 -106 -135.5 -195t-145.5 -153t-159.5 -99.5t-175.5 -35.5q-69 0 -135 21.5t-125.5 58t-109.5 86t-86.5 105t-57 114t-20.5 114.5q0 23 5 51t15.5 58t28 61t42.5 60q-48 35 -92 78t-77 91t-52.5 101.5
t-19.5 109.5q0 60 21 116h-121z" />
    <glyph glyph-name="ardhac" unicode="&#xf33e;" horiz-adv-x="1100" 
d="M134 1125l-142 142l58 58h1008l142 -142l-58 -58h-258q-69 -9 -122 -33.5t-89 -60.5t-54.5 -82t-18.5 -99q0 -47 17.5 -84t48.5 -63t72 -39.5t89 -13.5q130 0 245 74t228 218l58 58l142 -142q-75 -97 -143 -172.5t-137 -128t-144 -80t-165 -27.5q-65 0 -128.5 19.5
t-120 54t-104.5 81t-83.5 100t-55 112.5t-19.5 117q0 54 12.5 101.5t35.5 89.5h-314zM0 1600l-142 142l58 58h1184l142 -142l-58 -58h-1184z" />
    <glyph glyph-name="ardhaj" unicode="&#xf33f;" horiz-adv-x="1550" 
d="M350 858q50 -69 96.5 -137t92.5 -130t92.5 -115.5t96.5 -92.5t104.5 -61t117.5 -22q56 0 102 18t79 51t51 79t18 102q0 75 -33.5 140t-85 116.5t-113.5 88t-118 55.5h-116l-142 142l58 58h816q69 0 115.5 -8t83 -25.5t69 -46t74.5 -70.5l142 -142l-58 -58
q-35 29 -64.5 56t-66 48t-86.5 33.5t-125 12.5h-464q61 -51 118 -110t100.5 -121.5t69.5 -127t26 -125.5q0 -68 -28.5 -133.5t-78 -117.5t-116.5 -83.5t-143 -31.5q-107 0 -209 60.5t-208.5 171t-221 266t-245.5 344.5l58 58zM-50 1600l-142 142l58 58h1684l142 -142
l-58 -58h-1684z" />
    <glyph glyph-name="ardhajh" unicode="&#xf340;" horiz-adv-x="1650" 
d="M824 0q-130 0 -228.5 22.5t-171 58.5t-120.5 79.5t-77 86.5t-41 79.5t-12 57.5q0 35 12 65t36 52.5t60.5 35.5t86.5 13t109.5 -28t124 -75.5t133.5 -110t139 -130.5q75 11 143 40t119.5 69t82 87.5t30.5 97.5q0 37 -10 73t-33.5 64.5t-62 45.5t-94.5 17q-51 0 -102 -15.5
t-99.5 -34.5t-93 -34.5t-81.5 -15.5q-38 0 -89.5 23t-107 62t-110 90t-97.5 106.5t-69.5 112t-26.5 106.5q0 56 17.5 102t47 79t68.5 51t93 18h650v250h-1050l-142 142l58 58h1734l142 -142l-58 -58h-484v-392l-58 -58h-708q-60 0 -85 -35.5t-25 -98.5q0 -44 21 -83
t53 -68.5t70 -47t72 -17.5q31 0 75 15.5t94.5 34.5t104.5 34.5t105 15.5q53 0 106.5 -19.5t103.5 -52.5t94.5 -77t79.5 -93q82 21 157.5 56t140 74.5t115.5 80t84 73.5l58 58l142 -142q-35 -55 -100.5 -115t-147.5 -115t-174.5 -99.5t-182.5 -68.5q5 -25 5 -44
q0 -63 -33.5 -122.5t-89 -110.5t-127.5 -90.5t-148 -63.5l272 -271l-58 -58l-307 307q-22 -4 -43.5 -5.5t-41.5 -1.5h-50zM751 200q-87 69 -168.5 109.5t-158.5 40.5q-29 0 -39.5 -16.5t-10.5 -33.5q0 -26 34 -44.5t87 -31t118 -18.5t127 -6h11z" />
    <glyph glyph-name="ardhajh1" unicode="&#xf341;" horiz-adv-x="1700" 
d="M1392 0l-142 142v658h-622q-7 -24 -13.5 -45.5t-14.5 -38.5q-14 -33 -28.5 -63t-33 -53t-43.5 -36.5t-61 -13.5q-41 0 -90.5 25.5t-92.5 66t-72 91.5t-29 101q0 70 25.5 112.5t82.5 53.5h191q5 36 8 73.5t3 76.5q0 56 -10.5 123t-39 130.5t-79 116.5t-131.5 80h-200
l-142 142l58 58h200q144 -56 247 -141.5t169 -185t97 -205.5t31 -203q0 -17 -0.5 -33t-1.5 -32h592v600h-250l-142 142l58 58h784l142 -142l-58 -58h-334v-600h508l142 -142l-58 -58h-592v-742zM365 785q-15 -15 -15 -35q18 0 30.5 16t19.5 34q-20 0 -35 -15z" />
    <glyph glyph-name="ardhajh2" unicode="&#xf342;" horiz-adv-x="1550" 
d="M258 1000l142 -142q27 -27 56.5 -47.5t64.5 -34t79 -20t100 -6.5q60 0 114 18.5t95.5 54.5t66 89t24.5 122q0 76 -19 144t-54.5 135.5t-87.5 137t-118 149.5h-721l-142 142l58 58h1634l142 -142l-58 -58h-778q50 -54 99 -114.5t92 -125t77 -132t54 -135.5q57 48 113 77.5
t109 29.5q67 0 120.5 -12.5t100.5 -37.5t92 -62.5t95 -87.5l142 -142l-58 -58q-64 56 -112.5 94.5t-93.5 62t-92.5 33.5t-109.5 10q-55 0 -103.5 -27t-91 -66.5t-79.5 -85.5t-69 -84q-28 -45 -67 -80t-85.5 -58.5t-99 -36t-106.5 -12.5q-87 0 -161 27t-143 78t-136.5 123.5
t-142.5 163.5z" />
    <glyph glyph-name="ardhaY" unicode="&#xf343;" horiz-adv-x="1400" 
d="M208 1000l142 -142q60 -60 115 -100t104.5 -64t94.5 -34t86 -10q64 0 119 21.5t95.5 60t63 90.5t22.5 112q0 43 -18 82.5t-51 69t-79 47t-102 17.5q-71 0 -130 -24t-120 -76l-142 142q48 81 129 119.5t179 38.5q78 0 155 -27.5t144.5 -75t121 -111t82.5 -136.5h439
l142 -142l-58 -58h-496q-10 -74 -47.5 -138t-94 -111t-126 -74t-144.5 -27q-96 0 -180 31t-164.5 92.5t-163 154t-176.5 214.5zM-50 1600l-142 142l58 58h1534l142 -142l-58 -58h-1534z" />
    <glyph glyph-name="ardhaN" unicode="&#xf344;" horiz-adv-x="1150" 
d="M0 1600l-142 142l58 58h1234l142 -142l-58 -58h-234v-734q0 -100 -26 -169.5t-69.5 -113t-101 -63.5t-119.5 -20q-63 0 -123.5 22t-114 60t-99 89.5t-78 111t-51 123.5t-18.5 128v566h-200zM400 950q0 -64 10 -111t33.5 -78t62 -46t94.5 -15t94.5 15t62 46t33.5 78
t10 111v650h-400v-650z" />
    <glyph glyph-name="ardhaN1" unicode="&#xf345;" horiz-adv-x="1400" 
d="M240 902q-30 30 -47.5 57.5t-27 54t-12.5 50.5t-3 46t10 43t26 37t35.5 25.5t38.5 9.5q60 -1 103.5 -29t86.5 -71l117 -118q12 35 18.5 72t10 79t4 89.5t0.5 102.5v250h-600l-142 142l58 58h1484l142 -142l-58 -58h-184v-1084l-58 -58l-142 142v1000h-300v-334
q0 -135 -10 -230t-34.5 -162t-65 -112.5t-101.5 -82.5q77 -73 139.5 -130t116 -101.5t101.5 -78.5t96.5 -63t101 -54.5t114.5 -51.5l142 -142l-58 -58q-110 46 -214.5 111t-215.5 154.5t-234.5 206t-277.5 270.5zM444 826q0 69 -7.5 108t-17.5 57.5t-20 22.5t-14 4
q-15 0 -21.5 -12t-6.5 -31q0 -29 22.5 -65t64.5 -84z" />
    <glyph glyph-name="ardhat" unicode="&#xf346;" horiz-adv-x="900" 
d="M740 0l-142 142q-35 35 -78 80t-87.5 98.5t-86 113.5t-74 125.5t-52.5 134.5t-20 140q0 97 35 178.5t95 140.5t140 92t170 33q177 0 343 -104.5t317 -315.5l-58 -58l-142 142q-23 22 -63 46.5t-91 44t-108.5 32.5t-113.5 13q-68 0 -127 -19.5t-102.5 -60t-69 -102.5
t-25.5 -146q0 -90 27.5 -168.5t78.5 -158t125 -168t167 -197.5zM0 1600l-142 142l58 58h984l142 -142l-58 -58h-984z" />
    <glyph glyph-name="ardhath" unicode="&#xf347;" horiz-adv-x="1100" 
d="M258 1058q232 0 342 92q-81 34 -153.5 83.5t-127.5 107.5t-87 120.5t-32 122.5q0 43 18.5 82.5t50.5 69t75 47t92 17.5q53 0 108.5 -19.5t107 -54t97 -81t79 -100t53 -112t19.5 -117.5q0 -84 -31.5 -161t-92.5 -138.5t-150.5 -103t-205.5 -52.5q24 -54 62 -101.5t88 -83
t112 -56t134 -20.5q71 0 130.5 19t109 49.5t88 68t69 75.5t52 72.5t35.5 57.5l58 58l142 -142q-21 -40 -50.5 -89t-68.5 -100t-88 -99.5t-108.5 -86t-130.5 -60.5t-154 -23q-88 0 -169 30.5t-153.5 80.5t-134.5 114t-110.5 130.5t-82.5 130.5t-50 114zM582 1329
q53 -15 108 -27q10 43 10 98q0 37 -13 73t-36.5 64.5t-56.5 45.5t-74 17q-53 0 -86.5 -27.5t-33.5 -72.5q0 -47 24.5 -79t65 -54.5t92.5 -37.5z" />
    <glyph glyph-name="ardhadh" unicode="&#xf348;" horiz-adv-x="1000" 
d="M0 1600l-142 142l58 58h334l142 -142q-44 -44 -68 -97.5t-24 -110.5q0 -47 17 -84.5t45 -65t63.5 -46t73.5 -26.5q33 11 70.5 16.5t80.5 5.5l142 -142l-58 -58q-80 0 -138.5 -22t-96.5 -58t-56 -80.5t-18 -89.5q0 -41 17 -81.5t50 -72.5t82.5 -51.5t115.5 -19.5
q71 0 138.5 20t131.5 63.5t124 113.5t116 170l58 58l142 -142q-56 -106 -125 -195t-148.5 -153t-168 -99.5t-184.5 -35.5q-76 0 -146 22t-131 60t-111 88.5t-86 107t-55.5 116t-19.5 115.5q0 29 7 62t22 67t38 67t55 62q-50 35 -94.5 78t-78.5 92.5t-54 105.5t-20 116
q0 34 6 66h-106z" />
    <glyph glyph-name="ardhadh1" unicode="&#xf349;" horiz-adv-x="1150" 
d="M884 950q-88 0 -151 -21.5t-103.5 -56.5t-60 -80t-19.5 -92t18 -85.5t51 -66.5t79 -43t102 -15q75 0 149 29.5t144.5 87t135.5 141.5t121 194l58 58l142 -142q-75 -134 -151 -239.5t-157 -178.5t-169.5 -111.5t-188.5 -38.5q-71 0 -138 20.5t-126.5 55.5t-109 83t-85 103
t-55.5 114.5t-20 117.5q0 62 27.5 126t83.5 118q-72 57 -129.5 113.5t-98 114t-62 118t-21.5 126.5q0 73 25 129t64 94t86 57.5t91 19.5q88 0 155 -33.5t112.5 -85t68.5 -113.5t23 -118q0 -46 -18 -83t-50 -63t-76 -40t-97 -14q-49 0 -89 11.5t-72 31.5q21 -51 64.5 -99.5
t116.5 -99.5q50 26 111 41t135 15h50l142 -142l-58 -58h-50zM400 1563q-36 -36 -46 -97q21 -8 44.5 -12t51.5 -4q37 0 61.5 8.5t38.5 21t19.5 27t5.5 27.5q0 30 -18.5 48t-56.5 18q-63 0 -100 -37z" />
    <glyph glyph-name="ardhan" unicode="&#xf34a;" horiz-adv-x="900" 
d="M600 716q0 -36 -12.5 -66.5t-34.5 -52.5t-52.5 -34.5t-66.5 -12.5q-26 0 -57 11.5t-62.5 32t-61.5 48t-52.5 59t-36.5 65.5t-14 68q0 31 5.5 59t18 49.5t33 36.5t51.5 21h900l142 -142l-58 -58h-726zM0 1600l-142 142l58 58h984l142 -142l-58 -58h-984zM365 785
q-15 -15 -15 -35q18 0 34 16t16 34q-20 0 -35 -15z" />
    <glyph glyph-name="ardhap" unicode="&#xf34b;" horiz-adv-x="900" 
d="M400 1066q0 -81 26 -140.5t69.5 -98.5t101 -58t119.5 -19q69 0 123.5 17t100 44.5t84 61.5t76.5 69l58 58l142 -142q-38 -41 -87.5 -94t-111.5 -100.5t-137.5 -80.5t-163.5 -33q-63 0 -131.5 23.5t-135 65.5t-127 98.5t-106.5 123.5t-73 140.5t-27 148.5v450h-200
l-142 142l58 58h984l142 -142l-58 -58h-584v-534z" />
    <glyph glyph-name="ardhaph" unicode="&#xf34c;" horiz-adv-x="1550" 
d="M1242 0l-142 142v520q-63 -48 -137.5 -80t-162.5 -32q-63 0 -131.5 23.5t-135 65.5t-127 98.5t-106.5 123.5t-73 140.5t-27 148.5v450h-200l-142 142l58 58h1634l142 -142l-58 -58h-334v-541q54 40 116 65.5t134 25.5q37 0 71.5 -12.5t66 -33.5t61.5 -48t59 -56l142 -142
l-58 -58q-35 28 -66.5 55t-63 48t-63 34t-65.5 13q-50 0 -95.5 -15.5t-86.5 -41t-79 -59t-73 -68.5v-708zM400 1066q0 -81 26 -140.5t69.5 -98.5t101 -58t119.5 -19q69 0 123.5 17t100 44.5t84 61.5t76.5 69v658h-700v-534z" />
    <glyph glyph-name="ardhab" unicode="&#xf34d;" horiz-adv-x="900" 
d="M0 1600l-142 142l58 58h984l142 -142l-58 -58h-984zM944 729q57 38 96.5 82.5t59.5 80.5v48q-47 43 -96 81.5t-100.5 67t-106.5 45t-113 16.5q-62 0 -117 -19zM487 1087q-42 -33 -64.5 -80.5t-22.5 -106.5q0 -56 21 -102t59 -79t90 -51t114 -18q50 0 94.5 9.5t84.5 26.5z
M1300 858q-15 -50 -44.5 -95.5t-65 -93.5t-83 -92t-98.5 -70t-110.5 -41.5t-130.5 -15.5t-140.5 21.5t-133 59.5t-117 89t-93 110.5t-62 124t-22.5 129.5q0 66 25 131.5t75 117.5t125 84.5t175 32.5q62 0 121 -19t112.5 -49t101 -68.5t89 -77.5t75 -75t59.5 -61z" />
    <glyph glyph-name="ardhabh" unicode="&#xf34e;" horiz-adv-x="1050" 
d="M628 800q-7 -24 -13.5 -45.5t-14.5 -38.5q-14 -33 -28.5 -63t-33 -53t-43.5 -36.5t-61 -13.5q-41 0 -90.5 25.5t-92.5 66t-72 91.5t-29 101q0 70 25.5 112.5t82.5 53.5h191q5 36 8 73.5t3 76.5q0 56 -10.5 123t-39 130.5t-79 116.5t-131.5 80h-200l-142 142l58 58h200
q144 -56 247 -141.5t169 -185t97 -205.5t31 -203q0 -17 -0.5 -33t-1.5 -32h650l142 -142l-58 -58h-764zM365 785q-15 -15 -15 -35q18 0 30.5 16t19.5 34q-20 0 -35 -15z" />
    <glyph glyph-name="ardhabh1" unicode="&#xf34f;" horiz-adv-x="1100" 
d="M722 800q-10 -52 -25.5 -97.5t-38.5 -79.5t-53.5 -53.5t-70.5 -19.5q-41 0 -90.5 25.5t-92.5 66t-72 91.5t-29 101q0 70 25.5 112.5t82.5 53.5h42h142q4 45 5 91.5t2 91.5q-41 17 -88.5 40.5t-94.5 52.5t-90.5 63.5t-77 75t-53.5 87t-20 98.5q0 37 14 73t40.5 64.5
t63.5 45.5t82 17q44 0 92.5 -17t95.5 -50.5t90 -83.5t75.5 -114.5t52 -144.5t19.5 -174q0 -45 -0.5 -100.5t-4.5 -115.5h613l142 -142l-58 -58h-720zM514 1358q22 -5 35 -8q-3 75 -16 123t-32.5 76.5t-43 39.5t-48.5 11q-42 0 -63 -24.5t-21 -59.5q0 -29 13 -52t33.5 -40.5
t46 -30t50.5 -21.5t46 -14zM500 800q-20 0 -35 -15t-15 -35q17 0 30.5 13.5t23.5 36.5h-4z" />
    <glyph glyph-name="ardham" unicode="&#xf350;" horiz-adv-x="1050" 
d="M600 716q0 -36 -12.5 -66.5t-34.5 -52.5t-52.5 -34.5t-66.5 -12.5q-26 0 -57 11.5t-62.5 32t-61.5 48t-52.5 59t-36.5 65.5t-14 68q0 31 5.5 59t18 49.5t33 36.5t51.5 21h142v600h-400l-142 142l58 58h1134l142 -142l-58 -58h-534v-600h708l142 -142l-58 -58h-792v-84z
M365 785q-15 -15 -15 -35q18 0 34 16t16 34q-20 0 -35 -15z" />
    <glyph glyph-name="ardhay" unicode="&#xf351;" horiz-adv-x="1050" 
d="M258 1108q35 4 74.5 9.5t77.5 16t72.5 26.5t60.5 41.5t41.5 62t15.5 86.5q0 48 -25 89t-62.5 73.5t-81.5 55t-81 32.5h-350l-142 142l58 58h1134l142 -142l-58 -58h-533q43 -36 79.5 -75t63 -81t41.5 -87t15 -91q0 -73 -37 -132t-93.5 -103.5t-124 -73.5t-128.5 -41
q24 -57 61.5 -113.5t88.5 -101.5t113.5 -73t135.5 -28q58 0 109.5 19t95.5 49.5t81 68t65.5 75.5t49.5 72.5t33 57.5l58 58l142 -142q-24 -40 -53.5 -89t-65.5 -100t-80 -99.5t-97 -86t-116 -60.5t-138 -23q-94 0 -175 31t-150.5 82t-127.5 118t-104.5 139.5t-82 144.5
t-60.5 135z" />
    <glyph glyph-name="ardhar" unicode="&#xf352;" horiz-adv-x="900" 
d="M0 1600l-142 142l58 58h984l142 -142l-58 -58h-984zM200 942l58 58q71 -64 106.5 -92t65 -47t89.5 -50t117.5 -46t113.5 -15q63 0 113.5 18.5t93 46.5t77.5 62t66 65l58 58l142 -142q-38 -50 -85 -104t-104.5 -99.5t-126.5 -75t-150 -29.5q-69 0 -140 24.5t-136.5 62
t-121 81t-94.5 82.5z" />
    <glyph glyph-name="ardhal" unicode="&#xf353;" horiz-adv-x="1500" 
d="M800 0l-142 142q-99 99 -183 184.5t-145 167t-95.5 164t-34.5 176.5q0 100 34.5 177.5t92.5 130.5t133 80.5t156 27.5q59 0 109.5 -14t97 -40.5t91.5 -65t97 -90.5q79 103 172 156.5t183 53.5q80 0 152.5 -34.5t138.5 -90t126.5 -125.5t116.5 -142l-58 -58l-142 142
q-14 14 -41 33t-61 35.5t-72.5 28t-75.5 11.5q-56 0 -105 -20t-92 -57t-81 -89.5t-72 -117.5l-58 -58l-142 142q13 29 26.5 55.5t28.5 52.5q-54 41 -114.5 66.5t-140.5 25.5q-64 0 -118.5 -18.5t-95 -56t-63.5 -94t-23 -131.5q0 -85 35.5 -164t97 -161t145 -171.5
t180.5 -195.5zM0 1600l-142 142l58 58h1584l142 -142l-58 -58h-1584z" />
    <glyph glyph-name="ardhal1" unicode="&#xf354;" horiz-adv-x="1500" 
d="M800 0l-142 142q-99 99 -183 184.5t-145 167t-95.5 164t-34.5 176.5q0 100 34.5 177.5t92.5 130.5t133 80.5t156 27.5q59 0 109.5 -14t97 -40.5t91.5 -65t97 -90.5q79 103 172 156.5t183 53.5q80 0 152.5 -34.5t138.5 -90t126.5 -125.5t116.5 -142l-58 -58l-142 142
q-14 14 -41 33t-61 35.5t-72.5 28t-75.5 11.5q-56 0 -105 -20t-92 -57t-81 -89.5t-72 -117.5l-58 -58l-142 142q13 29 26.5 55.5t28.5 52.5q-54 41 -114.5 66.5t-140.5 25.5q-64 0 -118.5 -18.5t-95 -56t-63.5 -94t-23 -131.5q0 -85 35.5 -164t97 -161t145 -171.5
t180.5 -195.5zM0 1600l-142 142l58 58h1584l142 -142l-58 -58h-1584z" />
    <glyph glyph-name="ardhaL" unicode="&#xf355;" horiz-adv-x="1750" 
d="M1175 724q-36 -55 -75.5 -104.5t-86.5 -87t-103.5 -60t-125.5 -22.5q-71 0 -142 21.5t-136 59.5t-120.5 89t-97 110.5t-65 124t-23.5 129.5q0 66 27.5 131.5t80.5 117.5t130.5 84.5t177.5 32.5q94 0 169.5 -24.5t136 -62t108.5 -81.5t86 -82l22 -22q35 54 73.5 103.5
t84 87t100 59.5t120.5 22q106 0 194.5 -43t164.5 -112.5t143 -157.5t132 -179q-38 -78 -77 -151.5t-91.5 -130.5t-124 -91.5t-173.5 -34.5q-75 0 -143 22t-128.5 57.5t-113.5 80t-99 90.5zM0 1600l-142 142l58 58h1834l142 -142l-58 -58h-1834zM1010 873q41 64 81 130
q-44 37 -87 65t-90 46t-99.5 27t-114.5 9t-116.5 -18t-95.5 -51t-64.5 -79t-23.5 -102t23.5 -102t64.5 -79t95.5 -51t116.5 -18q69 0 123.5 30.5t100.5 80t86 112.5zM1307 937q-38 -61 -77 -125q45 -33 90 -62.5t90.5 -51.5t93 -35t96.5 -13q69 0 125.5 25.5t100 67t74.5 94
t50 105.5q-28 40 -62.5 78t-78 66.5t-95.5 46t-114 17.5q-64 0 -115.5 -29t-95 -76t-82.5 -108z" />
    <glyph glyph-name="ardhav" unicode="&#xf356;" horiz-adv-x="900" 
d="M1300 858q-15 -50 -44.5 -95.5t-65 -93.5t-83 -92t-98.5 -70t-110.5 -41.5t-130.5 -15.5t-140.5 21.5t-133 59.5t-117 89t-93 110.5t-62 124t-22.5 129.5q0 66 25 131.5t75 117.5t125 84.5t175 32.5q62 0 121 -19t112.5 -49t101 -68.5t89 -77.5t75 -75t59.5 -61zM0 1600
l-142 142l58 58h984l142 -142l-58 -58h-984zM1100 940q-47 43 -96 81.5t-100.5 67t-106.5 45t-113 16.5q-62 0 -114 -18t-90 -51t-59 -79t-21 -102t21 -102t59 -79t90 -51t114 -18q81 0 149 25t121 61.5t90 78.5t56 77v48z" />
    <glyph glyph-name="ardhaz" unicode="&#xf357;" horiz-adv-x="1200" 
d="M1092 0l-142 142q-89 125 -157.5 224.5t-123.5 177.5q-38 -14 -77.5 -21t-81.5 -7q-38 0 -78.5 15.5t-79 41t-73.5 59.5t-61.5 71.5t-42 75t-15.5 71.5q0 33 13.5 63.5t36.5 53t53 36t63 13.5q65 0 142 -65t171 -180q118 67 186 196q-73 15 -143.5 42.5t-134.5 65
t-118.5 83.5t-94 98.5t-62 110t-22.5 117.5q0 26 6 55.5t20 60.5h-276l-142 142l58 58h1284l142 -142l-58 -58h-355q37 -41 68 -87t54 -97t36 -105.5t13 -110.5q0 -81 -22.5 -168t-65 -168t-103 -151t-136.5 -118q84 -115 177 -250t200 -287zM802 1153q48 -3 86 -3
q5 32 8.5 65.5t3.5 68.5q0 62 -18 119.5t-51 101t-79 69.5t-102 26q-43 0 -79.5 -15t-63.5 -41.5t-42 -63t-15 -80.5q0 -56 22 -96t57.5 -67.5t81.5 -44.5t95 -26t96 -13zM426 716q54 0 104 12q-38 45 -66.5 66.5t-53.5 21.5q-27 0 -38.5 -17.5t-11.5 -32.5q0 -10 6 -19
t15.5 -16t21 -11t23.5 -4z" />
    <glyph glyph-name="ardhaz1" unicode="&#xf358;" horiz-adv-x="1200" 
d="M1050 0l-142 142l-236 290q-41 -7 -88 -7q-69 0 -137.5 26t-123.5 69t-89 98.5t-34 115.5q0 34 12.5 60.5t33 44.5t45.5 27t50 9q36 0 70.5 -16.5t69.5 -46.5t73 -73.5t82 -97.5q63 17 112 48.5t82.5 75t51.5 97t18 113.5q0 66 -26 117t-68 86t-96 53.5t-110 18.5
t-107.5 -12.5t-96.5 -31t-82 -40.5t-64 -41l-142 142l58 58q16 16 48 37t75.5 40t97 32.5t113.5 15.5v150h-500l-142 142l58 58h1284l142 -142l-58 -58h-584v-184q81 -29 153.5 -81t127.5 -120t87 -150.5t32 -173.5q0 -74 -24.5 -140.5t-67.5 -122t-101.5 -98t-125.5 -68.5
l327 -404zM511 625q-20 20 -43 35t-43 15q-25 0 -25 -25q0 -9 12 -14.5t28.5 -7.5t33.5 -2.5t26 -0.5h11z" />
    <glyph glyph-name="ardhaz2" unicode="&#xf359;" horiz-adv-x="1200" 
d="M292 800l-142 142l58 58l384 213q-51 38 -95.5 79t-77 84t-51 87t-18.5 87q0 41 18 85.5t51 81t79 60t102 23.5q50 0 103 -22t103 -58t94 -82t77.5 -94.5t53 -94.5t19.5 -83q0 -42 -22 -87t-69 -90l499 -189l142 -142l-58 -58l-658 250q-20 8 -39 16.5t-39 18.5z
M750 1300q52 29 76 70.5t24 79.5q0 23 -12 49.5t-33.5 49t-52.5 37t-68 14.5q-32 0 -56.5 -12t-42 -31.5t-26.5 -43t-9 -47.5q0 -34 13.5 -61t36.5 -48.5t54.5 -39t66.5 -33.5z" />
    <glyph glyph-name="ardhaS" unicode="&#xf35a;" horiz-adv-x="900" 
d="M0 1600l-142 142l58 58h984l142 -142l-58 -58h-553l727 -600l142 -142q-38 -41 -87.5 -94t-111.5 -100.5t-137.5 -80.5t-163.5 -33q-75 0 -148.5 23.5t-140.5 65.5t-123.5 98.5t-98.5 123.5t-65.5 140.5t-23.5 148.5v450h-200zM400 1066q0 -81 26 -140.5t69.5 -98.5
t101 -58t119.5 -19q66 0 118.5 15.5t96.5 41t81.5 57.5t73.5 65l-686 566v-429z" />
    <glyph glyph-name="ardhas" unicode="&#xf35b;" horiz-adv-x="1300" 
d="M1142 0l-852 852q-30 30 -47.5 57.5t-27 54t-12.5 50.5t-3 46t10 43t26 37t35.5 25.5t38.5 9.5q60 -1 103.5 -29t86.5 -71l119 -120q22 59 37.5 130.5t25 153.5t14 172.5t4.5 188.5h-700l-142 142l58 58h1384l142 -142l-58 -58h-484v-84q0 -144 -9.5 -274t-33.5 -242h701
l142 -142l-58 -58h-853q-29 -58 -67.5 -102t-89.5 -73l568 -567zM494 776q0 69 -7.5 108t-17.5 57.5t-20 22.5t-14 4q-15 0 -21.5 -12t-6.5 -31q0 -29 22.5 -65t64.5 -84z" />
    <glyph glyph-name="ardhah" unicode="&#xf35c;" horiz-adv-x="1350" 
d="M1292 -708q-148 77 -287.5 157.5t-263 165t-226 172t-176.5 179.5t-115 188t-41 196q0 67 16 126t44.5 110t68 92.5t86.5 73.5q-51 41 -91 79.5t-67.5 78t-42 82t-14.5 92.5q0 62 22 111.5t62 84t95 52.5t121 18h517v250h-1000l-142 142l58 58h1434l142 -142l-58 -58
h-234v-392l-58 -58h-575q-84 0 -134 -37.5t-50 -112.5q0 -57 33 -105t83 -83l3 -4q51 20 105 31t109 11h842l142 -142l-58 -58h-842q-75 0 -149.5 -20t-134 -65.5t-96.5 -119t-37 -179.5q0 -79 33 -152.5t90.5 -142.5t136 -132.5t170 -123.5t192.5 -115.5t203 -107.5
l142 -142z" />
    <glyph glyph-name="ardhakS" unicode="&#xf35d;" horiz-adv-x="1300" 
d="M1292 -92q-72 72 -133.5 131t-113.5 108q-41 -22 -91 -34.5t-110 -12.5q-74 0 -150 23.5t-147.5 65t-134.5 97t-110 120.5t-74.5 136t-27.5 142q0 73 28 132t73.5 108t104.5 89t122 74q-57 39 -107.5 84t-88.5 95t-60 104.5t-22 113.5q0 63 26 120t69.5 100.5t101 69.5
t119.5 26q58 0 117 -19.5t112.5 -54t100 -81t81 -100t54 -112t19.5 -117.5q0 -42 -11 -78t-30.5 -67t-47 -58t-59.5 -52q38 -10 74 -17.5t73.5 -13t78 -10t88.5 -8.5q69 -6 152.5 -9t189.5 -3l142 -142l-58 -58q-100 0 -186 3t-156 9q-94 8 -167 19.5t-133 25.5
q-89 22 -151.5 46t-114.5 47q-61 -39 -121 -70t-107 -68.5t-76.5 -87t-29.5 -124.5t33.5 -131.5t86 -94t116.5 -56t124 -18.5q32 0 60 4t51 12q-34 34 -58.5 63t-40.5 55t-24 50t-8 50q0 28 10.5 54.5t30 47t46.5 32.5t59 12q60 0 116.5 -30t100.5 -76.5t70.5 -102
t26.5 -105.5q0 -42 -21 -86t-61 -81q20 -21 42 -43.5t48 -47.5l142 -142zM577 1199q40 -25 90 -40q84 44 133.5 102.5t49.5 138.5q0 49 -17 86t-45.5 62.5t-64.5 38.5t-73 13q-38 0 -73.5 -13t-64 -38.5t-45.5 -62.5t-17 -86q0 -39 15.5 -76t43.5 -69q28 -31 68 -56z
M968 378q17 19 24.5 38t7.5 34q0 14 -8.5 22t-21.5 8t-21.5 -8t-8.5 -22t6.5 -31.5t21.5 -40.5z" />
    <glyph glyph-name="ardhakS1" unicode="&#xf35e;" horiz-adv-x="1250" 
d="M771 400q-43 50 -62 88.5t-19 79.5q0 28 12.5 54.5t32.5 47t46.5 32.5t54.5 12q60 0 116.5 -26.5t100.5 -70.5t70.5 -100.5t26.5 -116.5q0 -48 -26 -86t-73 -65q13 -14 27 -27.5t30 -29.5l142 -142l-58 -58q-70 66 -128.5 121t-106.5 100q-28 -7 -59 -10t-64 -3
q-84 0 -163 27t-149.5 72.5t-129.5 105t-101.5 124.5t-66.5 131.5t-24 125.5q0 99 28 176.5t77 137.5h-171l-142 142l58 58h850q94 0 173.5 -20t151.5 -58t141 -94t142 -128l142 -142l-58 -58q-72 65 -138.5 120t-137.5 95t-151.5 62.5t-180.5 22.5h-100q-88 0 -174.5 -20.5
t-155.5 -67t-111.5 -122.5t-42.5 -188q0 -57 26.5 -111.5t73.5 -96.5t111 -68t139 -26h21zM0 1600l-142 142l58 58h1334l142 -142l-58 -58h-1334zM893 456q4 -13 12 -29q20 10 32.5 24t12.5 33q0 14 -8.5 22t-21.5 8t-21.5 -8t-8.5 -22t3 -28z" />
    <glyph glyph-name="ardhajY" unicode="&#xf35f;" horiz-adv-x="1100" 
d="M942 -300l-142 142q-37 46 -67.5 85.5t-57.5 73.5q-6 -1 -12.5 -1h-12.5q-104 0 -187 33.5t-141.5 83.5t-90 108.5t-31.5 108.5q0 57 33 86.5t83 29.5q31 0 64.5 -14.5t72.5 -44.5t84.5 -76t101.5 -110q55 8 94.5 27t65.5 45.5t38.5 58t12.5 64.5q0 54 -32.5 93.5
t-83.5 56.5q-53 18 -113.5 42.5t-119.5 56.5t-113.5 71.5t-96 87.5t-66.5 104.5t-25 121.5q0 56 26.5 104.5t73.5 84.5t111 56.5t139 20.5q112 0 209 -19t191.5 -56.5t193 -93.5t214.5 -131l142 -142l-58 -58q-110 75 -212.5 131t-201.5 93.5t-196.5 56.5t-197.5 19
q-50 0 -93 -8.5t-74.5 -26.5t-49 -46.5t-17.5 -68.5q0 -38 18 -66.5t51 -52t79 -43t102 -38.5q37 -13 81.5 -37t89 -57t86 -73t73.5 -84t51 -90.5t19 -92.5q0 -35 -17.5 -77t-50.5 -83t-81.5 -76.5t-109.5 -56.5q47 -57 98.5 -123.5t110.5 -141.5zM0 1600l-142 142l58 58
h1184l142 -142l-58 -58h-1184zM400 250q0 -39 106 -48q-28 26 -53 37t-53 11z" />
    <glyph glyph-name="ardhajY1" unicode="&#xf360;" horiz-adv-x="1200" 
d="M942 -242l-142 142l-171 275q-78 1 -154.5 31t-137.5 77.5t-99 107t-38 118.5q0 69 36 105t105 36q42 0 82 -21t77.5 -57.5t74.5 -85.5t73 -104q122 19 187 85t65 167q0 72 -36.5 132.5t-107 116t-173 108.5t-233.5 109l-142 142l58 58h700q106 0 190.5 -35t158 -95
t142 -140.5t143.5 -171.5l-58 -58l-142 142q-32 32 -69.5 60.5t-81 50.5t-93.5 34.5t-106 12.5h-402q98 -60 181 -124.5t143 -133t94 -141.5t34 -151q0 -67 -24.5 -125.5t-68 -105.5t-105 -80.5t-134.5 -49.5l232 -373zM0 1600l-142 142l58 58h1284l142 -142l-58 -58h-1284z
M500 384q-21 35 -39.5 50.5t-35.5 15.5q-12 0 -18.5 -7.5t-6.5 -17.5q0 -16 27.5 -29.5t76.5 -18.5z" />
    <glyph glyph-name="ardhazh" unicode="&#xf361;" horiz-adv-x="1350" 
d="M250 1116q56 -100 116.5 -177.5t121 -130.5t120.5 -80.5t116 -27.5q95 0 148 51t53 133q0 43 -17 83t-47 74.5t-71.5 62t-89.5 46.5h-100l-142 142l58 58h650q97 0 179.5 -43t153.5 -112.5t133 -157.5t118 -179l-58 -58l-142 142q-19 40 -47 78t-65.5 66.5t-84.5 46
t-103 17.5h-322q43 -39 79 -81t62 -86.5t41 -90.5t15 -92q0 -56 -22.5 -110t-64 -96t-99.5 -68t-130 -26q-88 0 -168 39t-168 123.5t-190 217t-233 320.5l58 58zM0 1600l-142 142l58 58h1434l142 -142l-58 -58h-1434zM296 300l177 177l177 -177l-177 -176zM850 300l177 177
l177 -177l-177 -176zM573 23l177 177l177 -177l-177 -176z" />
    <glyph glyph-name="ardhayy" unicode="&#xf362;" horiz-adv-x="1050" 
d="M258 1108q35 4 74.5 9.5t77.5 16t72.5 26.5t60.5 41.5t41.5 62t15.5 86.5q0 48 -25 89t-62.5 73.5t-81.5 55t-81 32.5h-350l-142 142l58 58h1134l142 -142l-58 -58h-533l707 -600l142 -142q-24 -40 -53.5 -89t-65.5 -100t-80 -99.5t-97 -86t-116 -60.5t-138 -23
q-94 0 -175 31t-150.5 82t-127.5 118t-104.5 139.5t-82 144.5t-60.5 135zM797 1305q3 -20 3 -39q0 -73 -37 -132t-93.5 -103.5t-124 -73.5t-128.5 -41q24 -57 61.5 -113.5t88.5 -101.5t113.5 -73t135.5 -28q55 0 104.5 17t92 45t78.5 63.5t64.5 72t50.5 70.5t36 59z" />
    <glyph glyph-name="kra" unicode="&#xf363;" horiz-adv-x="2200" 
d="M484 350l-142 142l58 58l674 400q-51 41 -107.5 77.5t-116.5 63.5t-123 43t-127 16q-59 0 -104.5 -8.5t-80.5 -22.5t-63 -32t-52 -37l-142 142l58 58q13 13 38.5 30.5t63 33t87 26t111.5 10.5q79 0 154.5 -21.5t147.5 -60.5t142.5 -93t139.5 -119v544h-1100l-142 142
l58 58h2284l142 -142l-58 -58h-984v-524q48 32 102.5 53t113.5 21q75 0 143.5 -23.5t128 -63t108 -92.5t83 -112.5t53 -121.5t18.5 -121q0 -106 -37.5 -202.5t-112.5 -197.5l-58 -58l-142 142q75 113 112.5 208.5t37.5 191.5q0 56 -18 102t-51 79t-79 51t-102 18
q-51 0 -93 -11.5t-77.5 -31t-67 -45t-62.5 -53.5v-751l-58 -58l-142 142v573z" />
    <glyph glyph-name="khra" unicode="&#xf364;" horiz-adv-x="2400" 
d="M2042 0l-142 142v558l-558 -392l-142 142l58 58l204 143q-62 31 -118 77t-99.5 99.5t-69 111t-25.5 111.5q0 56 26 110t69.5 96t101 68t119.5 26q56 0 104.5 -19.5t91.5 -49.5t81 -67t73 -72l84 -84v542h-1000v-84q0 -155 -11 -295.5t-40.5 -257t-81 -203t-132.5 -133.5
q82 -78 162.5 -146t168.5 -131q66 -49 146 -78.5t164.5 -45.5t168 -21t155.5 -5l142 -142l-58 -58q-89 0 -172.5 5.5t-162 21.5t-153 45.5t-146.5 77.5q-100 66 -219 173t-257 245l-284 284q-30 30 -47.5 57.5t-27 54t-12.5 50.5t-3 46t10 43t26 37t35.5 25.5t38.5 9.5
q60 -1 103.5 -29t86.5 -71l119 -120q44 118 62.5 284t18.5 361h-700l-142 142l58 58h2484l142 -142l-58 -58h-384v-1542zM1889 951q-68 57 -115.5 95t-85 61t-69.5 33t-69 10q-42 0 -78.5 -13.5t-63.5 -38t-42.5 -58.5t-15.5 -74q0 -44 17.5 -75t47 -51.5t68.5 -30t83 -9.5
q48 0 90 12.5t87 36.5l146 92v10zM494 776q0 69 -7.5 108t-17.5 57.5t-34 26.5q-15 0 -21.5 -12t-6.5 -31q0 -29 22.5 -65t64.5 -84z" />
    <glyph glyph-name="gra" unicode="&#xf365;" horiz-adv-x="1750" 
d="M492 0l-142 142l58 58l842 694v706h-500v-709q0 -106 -38 -161t-117 -55q-36 0 -66.5 6t-63.5 23.5t-71 49t-88 81.5q-35 34 -63.5 65.5t-49 62.5t-32 64.5t-11.5 72.5q0 28 10.5 51t26.5 39.5t35.5 25.5t37.5 9q47 0 91.5 -23t98.5 -77l100 -100v575h-550l-142 142
l58 58h1834l142 -142l-58 -58h-384v-1542l-58 -58l-142 142v483zM419 888q17 -7 31 -7q0 23 -5.5 47t-15 44t-21 33t-23.5 13q-15 0 -21.5 -12t-6.5 -31t9 -36q10 -17 23.5 -30t29.5 -21z" />
    <glyph glyph-name="ghra" unicode="&#xf366;" horiz-adv-x="1700" 
d="M400 0l-142 142l58 58l287 213q-74 31 -138.5 82.5t-112 114t-75 131t-27.5 133.5q0 23 5 51t15.5 58t28 61t42.5 60q-48 35 -92 78t-77 91t-52.5 101.5t-19.5 109.5q0 60 21 116h-121l-142 142l58 58h1784l142 -142l-58 -58h-384v-1542l-58 -58l-142 142v452zM800 1050
q-94 0 -160.5 -24t-108.5 -61.5t-61.5 -83.5t-19.5 -91t18 -84t51 -68.5t79 -46t102 -16.5q54 0 102 15t102 47l296 220v743h-716q-41 0 -75 -17t-58 -45.5t-37.5 -64.5t-13.5 -73q0 -72 45 -124.5t115 -80.5q49 25 112 40t144 15l142 -142z" />
    <glyph glyph-name="cra" unicode="&#xf367;" horiz-adv-x="1800" 
d="M500 50l-142 142l58 58l336 232q-74 28 -138.5 76.5t-112 108.5t-74.5 128.5t-27 137.5q0 109 48 192h-314l-142 142l58 58h1008l142 -142l-58 -58h-259q-69 -9 -121.5 -33.5t-88.5 -60.5t-54.5 -82t-18.5 -99q0 -47 18 -84t49.5 -63t75.5 -39.5t97 -13.5
q81 0 148.5 23.5t133.5 63.5l178 123v740h-1300l-142 142l58 58h1884l142 -142l-58 -58h-384v-1542l-58 -58l-142 142v460z" />
    <glyph glyph-name="jra" unicode="&#xf368;" horiz-adv-x="1950" 
d="M750 0l-142 142l58 58l784 450v500h-522q43 -39 79 -81t62 -86.5t41 -90.5t15 -92q0 -56 -22.5 -110t-64 -96t-99.5 -68t-130 -26q-88 0 -168 39t-168 123.5t-190 217t-233 320.5l58 58l142 -142q56 -100 116.5 -177.5t121 -130.5t120.5 -80.5t116 -27.5q95 0 148 51
t53 133q0 43 -17 83t-47 74.5t-71.5 62t-89.5 46.5h-100l-142 142l58 58h934v250h-1450l-142 142l58 58h2034l142 -142l-58 -58h-384v-1542l-58 -58l-142 142v260z" />
    <glyph glyph-name="jhra" unicode="&#xf369;" horiz-adv-x="2600" 
d="M824 0q-130 0 -228.5 22.5t-171 58.5t-120.5 79.5t-77 86.5t-41 79.5t-12 57.5q0 35 12 65t36 52.5t60.5 35.5t86.5 13t109.5 -28t124 -75.5t133.5 -110t139 -130.5q75 11 143 40t119.5 69t82 87.5t30.5 97.5q0 37 -10 73t-33.5 64.5t-62 45.5t-94.5 17q-51 0 -102 -15.5
t-99.5 -34.5t-93 -34.5t-81.5 -15.5q-38 0 -89.5 23t-107 62t-110 90t-97.5 106.5t-69.5 112t-26.5 106.5q0 56 17.5 102t47 79t68.5 51t83 18h660v250h-1050l-142 142l58 58h2684l142 -142l-58 -58h-384v-1542l-58 -58l-142 142v202l-500 -344l-142 142l58 58l584 402v278
q-78 -62 -161 -120t-168 -107.5t-169.5 -87t-164.5 -57.5q6 -23 9.5 -46t3.5 -46q0 -63 -33.5 -122.5t-89 -110.5t-127.5 -90.5t-148 -63.5l272 -271l-58 -58l-307 307q-22 -4 -43.5 -5.5t-41.5 -1.5h-50zM474 1150q-50 0 -75 -35.5t-25 -98.5q0 -44 21 -83t53 -68.5t70 -47
t72 -17.5q31 0 75 15.5t94.5 34.5t104.5 34.5t105 15.5q50 0 100 -14.5t97 -40.5t90 -62t78 -79q87 21 183 66t195 105t197.5 131t190.5 144v450h-850v-392l-58 -58h-718zM751 200q-87 69 -168.5 109.5t-158.5 40.5q-29 0 -39.5 -16.5t-10.5 -33.5q0 -26 34 -44.5t87 -31
t118 -18.5t127 -6h11z" />
    <glyph glyph-name="jhra1" unicode="&#xf36a;" horiz-adv-x="2350" 
d="M500 50l-142 142l58 58l748 550h-536q-7 -24 -13.5 -45.5t-14.5 -38.5q-14 -33 -28.5 -63t-33 -53t-43.5 -36.5t-61 -13.5q-41 0 -90.5 25.5t-92.5 66t-72 91.5t-29 101q0 70 25.5 112.5t82.5 53.5h191q5 36 8 73.5t3 76.5q0 56 -10.5 123t-39 130.5t-79 116.5t-131.5 80
h-200l-142 142l58 58h200q144 -56 247 -141.5t169 -185t97 -205.5t31 -203q0 -17 -0.5 -33t-1.5 -32h592v600h-250l-142 142l58 58h1434l142 -142l-58 -58h-984v-600h16q146 0 257 -29t192.5 -77.5t136.5 -111t87.5 -129t46.5 -132.5t14 -121q0 -78 -22.5 -150.5t-60 -128
t-85 -88.5t-97.5 -33l-142 142l58 58q33 16 60.5 49.5t47 74t30.5 83t11 77.5q0 81 -21 140.5t-72.5 98.5t-138.5 58t-218 19h-100v-742l-58 -58l-142 142v459zM365 785q-15 -15 -15 -35q18 0 30.5 16t19.5 34q-20 0 -35 -15z" />
    <glyph glyph-name="Yra" unicode="&#xf36b;" horiz-adv-x="2200" 
d="M-50 1600l-142 142l58 58h2334l142 -142l-58 -58h-384v-1542l-58 -58l-142 142v518l-658 -652l-142 142l656 650h-360q-11 -67 -46.5 -126t-88.5 -103.5t-120 -70t-141 -25.5q-75 0 -153.5 32t-160.5 92t-166 146.5t-170 196.5l58 58l142 -142q40 -40 86 -73.5t93.5 -58
t95 -38t91.5 -13.5q75 0 128.5 21.5t88 57.5t51 83t16.5 97q0 43 -18 82.5t-51 69t-79 47t-102 17.5q-75 0 -132.5 -24t-117.5 -76l-142 142q24 40 59 70t75.5 49.5t85 29t88.5 9.5q68 0 141.5 -29.5t141 -78t123.5 -112t89 -130.5h539v600h-1750z" />
    <glyph glyph-name="Nra" unicode="&#xf36c;" horiz-adv-x="1900" 
d="M1542 0l-142 142v537l-800 -679l-142 142l58 58l884 750v650h-400v-634q0 -62 -15 -127t-51.5 -118t-97.5 -87t-152 -34q-46 0 -99.5 18t-107.5 50.5t-104 77.5t-88.5 99t-61.5 114.5t-23 124.5v516h-200l-142 142l58 58h1984l142 -142l-58 -58h-384v-1542zM400 1000
q0 -46 17 -83t45.5 -63t64 -40t73.5 -14q56 0 94.5 18t62 51t33.5 79t10 102v550h-400v-600z" />
    <glyph glyph-name="Nra1" unicode="&#xf36d;" horiz-adv-x="2150" 
d="M1792 0l-142 142v541l-458 -375l-142 142l58 58l542 444v648h-350v-792l-58 -58l-142 142v708h-300v-334q0 -135 -10 -230t-34.5 -162t-65 -112.5t-101.5 -82.5q77 -73 139.5 -130t116 -101.5t101.5 -78.5t96.5 -63t101 -54.5t114.5 -51.5l142 -142l-58 -58
q-110 46 -214.5 111.5t-215.5 155t-234.5 205.5t-270.5 263l-167 167q-30 30 -47.5 57.5t-27 54t-12.5 50.5t-3 46t10 43t26 37t35.5 25.5t38.5 9.5q60 -1 103.5 -29t86.5 -71l117 -118q12 35 18.5 72t10 79t4 89.5t0.5 102.5v250h-600l-142 142l58 58h2234l142 -142
l-58 -58h-384v-1542zM444 826q0 69 -7.5 108t-17.5 57.5t-20 22.5t-14 4q-15 0 -21.5 -12t-6.5 -31q0 -29 22.5 -65t64.5 -84z" />
    <glyph glyph-name="tra" unicode="&#xf36e;" horiz-adv-x="1650" 
d="M0 1600l-142 142l58 58h1734l142 -142l-58 -58h-384v-1542l-58 -58l-142 142v603l-666 -395l-142 142l58 58l674 400q-51 41 -107.5 77.5t-116.5 63.5t-123 43t-127 16q-59 0 -104.5 -8.5t-81 -22.5t-63 -32t-51.5 -37l-142 142l58 58q13 13 38.5 30.5t63 33t87 26
t111.5 10.5q87 0 168.5 -25.5t159.5 -71.5t154 -108.5t152 -137.5v593h-1150z" />
    <glyph glyph-name="thra" unicode="&#xf36f;" horiz-adv-x="1800" 
d="M484 0l-142 142l58 58l344 269q-71 20 -135.5 56t-121.5 82.5t-105 99t-85 105t-61.5 101.5t-35.5 87l58 58q109 0 194 23.5t143 71.5q-80 34 -152 83t-126 106.5t-85.5 119.5t-31.5 122q0 43 18.5 82.5t50.5 69t75 47t92 17.5q53 0 108.5 -19.5t107 -54t97 -81t79 -100
t53 -112t19.5 -117.5q0 -84 -31.5 -161t-92.5 -138.5t-150.5 -103t-204.5 -52.5q48 -100 147 -155.5t232 -55.5q81 0 154 26.5t138 65.5l208 162v696h-250l-142 142l58 58h834l142 -142l-58 -58h-384v-1542l-58 -58l-142 142v497zM581 1329q52 -15 107 -27q12 45 12 98
q0 37 -13 73t-36.5 64.5t-56.5 45.5t-74 17q-53 0 -86.5 -27.5t-33.5 -72.5q0 -47 24.5 -79t65 -54.5t91.5 -37.5z" />
    <glyph glyph-name="dra" unicode="&#xf370;" horiz-adv-x="1550" 
d="M292 8l-142 142l58 58l454 234q-106 35 -191.5 93t-145.5 130.5t-92.5 154t-32.5 164.5q0 62 27 127t84 118t145 87t210 34h334v250h-1000l-142 142l58 58h1634l142 -142l-58 -58h-434v-392l-58 -58h-392q-88 0 -153.5 -18t-109 -51t-65.5 -79t-22 -102q0 -62 28 -117
t84.5 -95.5t140.5 -64t197 -23.5q31 0 60 3q-16 27 -27 49.5t-18.5 41.5t-11 36.5t-3.5 35.5q0 31 14 60t37 51t53 35t62 13q40 0 77 -14t68.5 -37.5t57 -53t43.5 -61t28 -62.5t10 -56q0 -59 -42 -107.5t-108 -83.5l358 -592l-58 -58l-142 142l-272 449zM1051 666
q2 -8 4 -18q45 33 45 77q-21 0 -35.5 -10.5t-14.5 -32.5q0 -8 1 -16z" />
    <glyph glyph-name="dhra" unicode="&#xf371;" horiz-adv-x="1700" 
d="M392 0l-142 142l58 58l288 209q-81 30 -149.5 82.5t-117.5 116.5t-76.5 135.5t-27.5 140.5q0 29 7 62t22 67t38 67t55 62q-50 35 -94.5 78t-78.5 92.5t-54 105.5t-20 116q0 34 6 66h-106l-142 142l58 58h334l142 -142q-44 -44 -68 -97.5t-24 -110.5q0 -47 17 -84.5
t45.5 -65t64 -46t73.5 -26.5q33 10 70.5 16t79.5 6l142 -142l-58 -58q-80 0 -138.5 -23.5t-96.5 -60t-56 -81t-18 -85.5t15 -81.5t47.5 -72.5t85 -51.5t127.5 -19.5q58 0 112.5 19.5t106.5 50.5l281 204v751h-250l-142 142l58 58h834l142 -142l-58 -58h-384v-1542l-58 -58
l-142 142v446z" />
    <glyph glyph-name="dhra1" unicode="&#xf372;" horiz-adv-x="1850" 
d="M492 -50l-142 142l58 58l278 209q-69 28 -130.5 76t-107 107t-72 125.5t-26.5 132.5q0 72 28 129.5t79 100.5q-71 57 -127.5 113t-96.5 113.5t-61.5 118t-21.5 125.5q0 73 25 129t64 94t86 57.5t91 19.5q88 0 155 -33.5t112.5 -85t68.5 -113.5t23 -118q0 -46 -18 -83
t-50 -63t-76 -40t-97 -14q-49 0 -89 11.5t-72 31.5q21 -51 65 -100.5t119 -100.5q127 58 293 58l142 -142l-58 -58q-88 0 -159 -14.5t-121 -43.5t-77 -73t-27 -103q0 -44 17.5 -79t47 -60t68.5 -38.5t83 -13.5q67 0 137 28.5t146 77.5l301 225v744h-250l-142 142l58 58h834
l142 -142l-58 -58h-384v-1542l-58 -58l-142 142v451zM400 1563q-36 -36 -46 -97q21 -8 44.5 -12t51.5 -4q37 0 61.5 8.5t38.5 21t19.5 27t5.5 27.5q0 30 -18.5 48t-56.5 18q-63 0 -100 -37z" />
    <glyph glyph-name="nra" unicode="&#xf373;" horiz-adv-x="1750" 
d="M0 1600l-142 142l58 58h1834l142 -142l-58 -58h-384v-1542l-58 -58l-142 142v587l-750 -579l-142 142l58 58l742 573q-45 24 -91 41.5t-95.5 29t-104.5 17t-117 5.5h-178q11 -21 17.5 -41t6.5 -37q0 -36 -12 -67.5t-33 -54.5t-51 -36.5t-66 -13.5q-26 0 -57 14
t-62.5 36.5t-61.5 52.5t-52.5 61.5t-36.5 62.5t-14 57q0 36 12.5 66.5t34.5 52.5t52.5 34.5t66.5 12.5h350q104 0 193.5 -19t163 -49t131 -67t96.5 -74v593h-1250zM365 1001q-15 -15 -15 -35q18 0 34 16t16 34q-20 0 -35 -15z" />
    <glyph glyph-name="pra" unicode="&#xf374;" horiz-adv-x="1600" 
d="M1242 0l-142 142v558l-808 -567l-142 142l58 58l384 269q-74 37 -144.5 94.5t-125.5 128t-88.5 150t-33.5 159.5v466h-200l-142 142l58 58h1684l142 -142l-58 -58h-384v-1542zM400 1600v-550q0 -75 26 -131.5t68 -94t96 -56t110 -18.5q40 0 82.5 12.5t100.5 44.5l217 152
v641h-700z" />
    <glyph glyph-name="phra" unicode="&#xf375;" horiz-adv-x="2200" 
d="M292 133l-142 142l58 58l384 269q-74 37 -144.5 94.5t-125.5 128t-88.5 150t-33.5 159.5v466h-200l-142 142l58 58h2284l142 -142l-58 -58h-984v-541q54 40 116 65.5t134 25.5q75 0 141 -21.5t122 -59t99.5 -89t74.5 -110.5t47 -124t16 -130q0 -106 -37.5 -202.5
t-112.5 -197.5l-58 -58l-142 142q75 113 112.5 208.5t37.5 191.5q0 56 -14.5 102t-42 79t-68 51t-91.5 18q-50 0 -95.5 -15.5t-86.5 -41t-79 -59t-73 -68.5v-708l-58 -58l-142 142v558zM400 1050q0 -75 26 -131.5t68 -94t96 -56t110 -18.5q40 0 83 13t102 46l215 150v641
h-700v-550z" />
    <glyph glyph-name="bra" unicode="&#xf376;" horiz-adv-x="1600" 
d="M342 58l-142 142l58 58l339 223q-81 30 -153.5 83t-126.5 120.5t-85.5 144.5t-31.5 155q0 66 25 131.5t75 117.5t125 84.5t175 32.5q78 0 150 -24t136 -61t118 -81.5t96 -84.5v501h-1100l-142 142l58 58h1684l142 -142l-58 -58h-384v-1542l-58 -58l-142 142v415zM948 725
q31 16 65 35t73 42l14 9v162q-48 39 -97 71.5t-100.5 56t-106 36.5t-112.5 13q-62 0 -117 -19zM487 1087q-42 -33 -64.5 -80.5t-22.5 -106.5q0 -56 21 -102t59 -79t90 -51t114 -18q48 0 90.5 8.5t89.5 27.5z" />
    <glyph glyph-name="bhra" unicode="&#xf377;" horiz-adv-x="1800" 
d="M1442 0l-142 142v538l-750 -630l-142 142l58 58l654 550h-492q-7 -24 -13.5 -45.5t-14.5 -38.5q-14 -33 -28.5 -63t-33 -53t-43.5 -36.5t-61 -13.5q-41 0 -90.5 25.5t-92.5 66t-72 91.5t-29 101q0 70 25.5 112.5t82.5 53.5h191q5 36 8 73.5t3 76.5q0 55 -10.5 122.5
t-39 131t-79 116.5t-131.5 80h-200l-142 142l58 58h200q144 -56 247 -141.5t169 -185t97 -205.5t31 -203q0 -17 -0.5 -33t-1.5 -32h642v600h-250l-142 142l58 58h834l142 -142l-58 -58h-384v-1542zM365 785q-15 -15 -15 -35q18 0 30.5 16t19.5 34q-20 0 -35 -15z" />
    <glyph glyph-name="bhra1" unicode="&#xf378;" horiz-adv-x="1850" 
d="M1492 0l-142 142v538l-750 -630l-142 142l58 58l654 550h-448q-10 -52 -25.5 -97.5t-38.5 -79.5t-53.5 -53.5t-70.5 -19.5q-41 0 -90.5 25.5t-92.5 66t-72 91.5t-29 101q0 70 25.5 112.5t82.5 53.5h184q4 45 5 91.5t2 91.5q-41 17 -88.5 40t-94.5 52t-90.5 64t-77 76
t-53.5 87t-20 98q0 37 14 73t40.5 64.5t63.5 45.5t82 17q44 0 92.5 -17t95.5 -50.5t90 -83.5t75.5 -114.5t52 -144.5t19.5 -174q0 -45 -0.5 -100.5t-4.5 -115.5h605v600h-250l-142 142l58 58h834l142 -142l-58 -58h-384v-1542zM514 1358l35 -8q-3 75 -16 123t-32.5 76.5
t-43 39.5t-48.5 11q-42 0 -63 -24.5t-21 -59.5q0 -36 20 -63t49 -46t61.5 -31t58.5 -18zM500 800q-20 0 -35 -15t-15 -35q17 0 30.5 13.5t23.5 36.5h-4z" />
    <glyph glyph-name="mra" unicode="&#xf379;" horiz-adv-x="1800" 
d="M1442 0l-142 142v538l-750 -630l-142 142l58 58l654 550h-520v-84q0 -36 -12.5 -66.5t-34.5 -52.5t-52.5 -34.5t-66.5 -12.5q-26 0 -57 11.5t-62.5 32t-61.5 48t-52.5 59t-36.5 65.5t-14 68q0 31 5.5 59t18 49.5t33 36.5t51.5 21h142v600h-400l-142 142l58 58h1884
l142 -142l-58 -58h-384v-1542zM600 1600v-600h700v600h-700zM365 785q-15 -15 -15 -35q18 0 34 16t16 34q-20 0 -35 -15z" />
    <glyph glyph-name="yra" unicode="&#xf37a;" horiz-adv-x="1750" 
d="M450 0l-142 142l58 58l334 266q-105 27 -184 91t-138.5 146.5t-102 173.5t-75.5 173l58 58q35 4 74.5 9.5t77.5 16t72.5 26.5t60.5 41.5t41.5 62t15.5 86.5q0 48 -25 89t-62.5 73.5t-81.5 55t-81 32.5h-350l-142 142l58 58h1834l142 -142l-58 -58h-384v-1542l-58 -58
l-142 142v495zM1250 904v696h-649q43 -36 79.5 -75t63 -81t41.5 -87t15 -91q0 -73 -37 -132.5t-94 -104t-124.5 -73t-128.5 -40.5q19 -54 46.5 -102.5t67 -85t93.5 -57.5t127 -21q52 0 104 15t101 38.5t94.5 52t84.5 56.5z" />
    <glyph glyph-name="lra" unicode="&#xf37b;" horiz-adv-x="2200" 
d="M0 1600l-142 142l58 58h2284l142 -142l-58 -58h-384v-1542l-58 -58l-142 142v527l-550 -519l-142 142l690 652q-15 14 -42 32.5t-60.5 35t-71 27.5t-74.5 11q-56 0 -105 -20t-92 -57t-81 -89.5t-72 -117.5l-58 -58l-142 142q13 29 26.5 55.5t28.5 52.5
q-54 41 -114.5 66.5t-140.5 25.5q-64 0 -118.5 -18.5t-95 -56t-63.5 -94t-23 -131.5q0 -85 35.5 -164t97 -161t145 -171.5t180.5 -195.5l-58 -58l-142 142q-99 99 -183 184.5t-145 167t-95.5 164t-34.5 176.5q0 100 34.5 177.5t92.5 130.5t133 80.5t156 27.5q59 0 109.5 -14
t97 -40.5t91.5 -65t97 -90.5q79 103 171.5 156.5t183.5 53.5q46 0 90 -12.5t86 -34t81 -51.5t77 -65v513h-1700z" />
    <glyph glyph-name="vra" unicode="&#xf37c;" horiz-adv-x="1600" 
d="M342 58l-142 142l58 58l339 223q-81 30 -153.5 83t-126.5 120.5t-85.5 144.5t-31.5 155q0 66 25 131.5t75 117.5t125 84.5t175 32.5q78 0 150 -24t136 -61t118 -81.5t96 -84.5v501h-1100l-142 142l58 58h1684l142 -142l-58 -58h-384v-1542l-58 -58l-142 142v414z
M1100 812v161q-48 39 -97 71.5t-100.5 56t-106 36.5t-112.5 13q-62 0 -114 -18t-90 -51t-59 -79t-21 -102t21 -102t59 -79t90 -51t114 -18q48 0 92 9t90.5 27.5t99.5 47.5t119 68z" />
    <glyph glyph-name="zra" unicode="&#xf37d;" horiz-adv-x="1950" 
d="M1592 0l-142 142v601l-800 -493l-142 142l58 58l723 446q-85 37 -405 154q-20 8 -39 16.5t-39 18.5l-514 -285l-142 142l58 58l384 213q-51 38 -95.5 79t-77 84t-51 86.5t-18.5 87.5q0 41 18 85.5t51 81t79 60t102 23.5q50 0 103 -22t103 -58t94 -82t77.5 -94.5t53 -94.5
t19.5 -83q0 -42 -21.5 -87t-69.5 -90q388 -144 491 -186v597h-250l-142 142l58 58h834l142 -142l-58 -58h-384v-1542zM750 1300q52 29 76 70.5t24 79.5q0 23 -12 49.5t-33.5 49t-52.5 37t-68 14.5q-32 0 -56.5 -12t-42 -31.5t-26.5 -43t-9 -47.5q0 -35 13.5 -61.5t36.5 -48
t54.5 -39t66.5 -33.5z" />
    <glyph glyph-name="Sra" unicode="&#xf37e;" horiz-adv-x="1600" 
d="M1242 0l-142 142v558l-808 -567l-142 142l58 58l384 269q-74 37 -144.5 94.5t-125.5 128t-88.5 150t-33.5 159.5v466h-200l-142 142l58 58h1684l142 -142l-58 -58h-384v-1542zM400 1050q0 -75 26 -131.5t68 -94t96 -56t110 -18.5q40 0 82.5 12.5t100.5 44.5l190 133
l-673 560v-450zM436 1600l664 -552v552h-664z" />
    <glyph glyph-name="sra" unicode="&#xf37f;" horiz-adv-x="2150" 
d="M1792 0l-142 142v538l-450 -380l-142 142l58 58l463 391q-81 28 -163.5 43.5t-173.5 15.5q-85 0 -152 -13.5t-120.5 -34t-96.5 -46t-80 -49.5q-29 -60 -69 -106t-92 -76l568 -567l-58 -58l-852 852q-30 30 -47.5 57.5t-27 54t-12.5 50.5t-3 46t10 43t26 37t35.5 25.5
t38.5 9.5q60 -1 103.5 -29t86.5 -71l119 -120q44 118 62.5 284t18.5 361h-700l-142 142l58 58h2234l142 -142l-58 -58h-384v-1542zM900 1600v-84q0 -115 -6 -219t-20 -200q58 24 126 38.5t158 14.5q125 0 244.5 -30.5t247.5 -91.5v572h-750zM494 776q0 69 -7.5 108
t-17.5 57.5t-20 22.5t-14 4q-15 0 -21.5 -12t-6.5 -31q0 -29 22.5 -65t64.5 -84z" />
    <glyph glyph-name="hra" unicode="&#xf380;" horiz-adv-x="1700" 
d="M1300 -650q-75 21 -163 55.5t-180.5 81t-186 103.5t-179 123t-160.5 140t-130 154t-86.5 165.5t-31.5 173.5q0 125 51.5 232.5t142.5 184.5q-48 39 -84.5 75t-60.5 74t-36.5 80t-12.5 92q0 62 22 111.5t62 84t95 52.5t121 18h667v250h-1150l-142 142l58 58h1784l142 -142
l-58 -58h-434v-392l-58 -58h-725q-84 0 -134 -37.5t-50 -112.5q0 -112 83 -169l4 -4q64 35 138.5 54t157.5 19q121 0 220.5 -27t178.5 -74t137 -109.5t96.5 -133t57.5 -145t19 -145.5q0 -57 -9 -107.5t-28 -99t-47 -96t-66 -97.5l-58 -58l-142 142q37 56 65.5 107.5t47 100
t28 96t9.5 96.5q0 82 -28 147l-505 -439l-142 142l58 58l447 389q-48 26 -111.5 39.5t-143.5 13.5q-94 0 -178.5 -28t-148.5 -83t-102 -137t-38 -190q0 -97 40 -180.5t106 -154t152 -129t178.5 -105.5t185 -82.5t171.5 -60.5l142 -142z" />
    <glyph glyph-name="hra1" unicode="&#xf381;" horiz-adv-x="1600" 
d="M300 -400l-142 142l58 58l376 334q-67 84 -104.5 171t-37.5 179q0 41 10.5 82.5t30.5 81.5q-56 39 -108 84t-93 95.5t-65.5 106.5t-24.5 116q0 56 23 110t67.5 96t110 68t149.5 26h550v250h-1100l-142 142l58 58h1684l142 -142l-58 -58h-384v-392l-58 -58h-608
q-60 0 -104 -14.5t-73 -40t-43 -59t-14 -70.5t12 -68t33.5 -57t51 -48t63.5 -40q57 64 135 105.5t171 41.5q77 0 146.5 -21.5t129 -57.5t107.5 -84.5t81.5 -102t51.5 -110t18 -108.5q0 -51 -17.5 -95.5t-46 -83t-66.5 -71t-78 -58.5l-142 142l58 58q45 44 68.5 88.5
t23.5 103.5q0 37 -14.5 73t-45 64.5t-77.5 45.5t-113 17q-75 0 -131.5 -26t-94 -68t-56 -96t-18.5 -110q0 -84 37 -160.5t109 -149t177.5 -144t242.5 -146.5l142 -142l-58 -58q-160 89 -305.5 185t-261.5 201z" />
    <glyph glyph-name="kSra" unicode="&#xf382;" horiz-adv-x="2250" 
d="M1248 -92q-72 72 -133.5 131t-113.5 108q-41 -22 -91 -34.5t-110 -12.5q-74 0 -147 23.5t-139.5 65t-124 97t-99.5 120.5t-66 136t-24 142q0 78 26.5 139t70 110.5t100 88.5t117.5 72q-52 37 -99.5 81t-84 93t-58.5 103t-22 113q0 63 26 120t69.5 100.5t101 69.5
t119.5 26q58 0 117 -19.5t112.5 -54t100 -81t81 -100t54 -112t19.5 -117.5q0 -48 -14 -86.5t-39 -71t-58 -59.5t-72 -52q57 -21 119 -34t130 -13q78 0 152 15t149.5 50.5t157 93t175.5 141.5v300h-450l-142 142l58 58h1034l142 -142l-58 -58h-384v-1542l-58 -58l-142 142
v351l-358 -285l-142 142l58 58l442 352v261q-65 -57 -129 -98.5t-130.5 -68.5t-138 -40.5t-152.5 -13.5q-80 0 -154.5 18.5t-136.5 44t-109.5 52.5t-74.5 44q-60 -38 -118.5 -71t-104 -72.5t-74 -91t-28.5 -124.5q0 -75 27 -131.5t71 -94t101 -56t117 -18.5q32 0 60 4t51 12
q-34 34 -58.5 63t-40.5 55t-24 50t-8 50q0 28 10.5 54.5t30 47t46.5 32.5t59 12q60 0 116.5 -30t100.5 -76.5t70.5 -102t26.5 -105.5q0 -42 -21 -86t-61 -81q20 -21 42 -43.5t48 -47.5l142 -142zM564 1210q38 -24 86 -46q46 23 83 47t63 52t40 61.5t14 75.5q0 49 -17 86
t-45.5 62.5t-64.5 38.5t-73 13q-38 0 -73.5 -13t-64 -38.5t-45.5 -62.5t-17 -86q0 -42 13 -76t38.5 -62t62.5 -52zM902 418q7 -17 22 -40q17 19 24.5 38t7.5 34q0 14 -8.5 22t-21.5 8t-21.5 -8t-8.5 -22t6 -32z" />
    <glyph glyph-name="kSra1" unicode="&#xf383;" horiz-adv-x="1800" 
d="M600 0l-142 142l58 58l439 224q-28 24 -53.5 46t-48.5 42q-48 -12 -103 -12q-56 0 -115 19.5t-114.5 54t-105 81t-86 100t-58 112t-21.5 117.5q0 91 46 166h-112l-142 142l58 58h1200v250h-1300l-142 142l58 58h1884l142 -142l-58 -58h-384v-1542l-58 -58l-142 142v215z
M1045 470l255 130v550h-471q-98 -2 -169.5 -20.5t-118 -51.5t-69 -78t-22.5 -100q0 -47 17 -83.5t46.5 -62.5t68 -40t81.5 -14q-63 76 -63 134q0 28 10 57.5t33.5 53.5t62 39.5t94.5 15.5q47 0 92 -25.5t80 -66t56.5 -91t21.5 -101.5q0 -48 -25.5 -89.5t-70.5 -70.5
q16 -14 33 -30.5t37 -33.5zM800 741q0 -3 2 -8q23 14 35.5 31.5t12.5 35.5q-30 0 -40 -15.5t-10 -34.5v-9z" />
    <glyph glyph-name="jYra" unicode="&#xf384;" horiz-adv-x="1700" 
d="M600 0l-142 142l58 58l201 109l-93 142q-10 -1 -20 -1h-20q-46 0 -92.5 13.5t-89 36.5t-79.5 54t-64.5 65.5t-43 70.5t-15.5 69q0 69 33.5 105t102.5 36q29 0 63.5 -20t71.5 -53t74.5 -76t73.5 -88q61 15 96 45.5t35 75.5q0 38 -33.5 69t-82.5 47q-88 28 -159 69.5
t-121 90t-77 100.5t-27 101q0 43 17.5 78t47 60t68.5 38t83 13q114 0 215.5 -29t192.5 -78t172 -112.5t154 -132.5v502h-1200l-142 142l58 58h1784l142 -142l-58 -58h-384v-1542l-58 -58l-142 142v185zM824 367l376 205v392q-98 80 -181.5 134.5t-161 88.5t-152.5 48.5
t-155 14.5q-19 0 -37 -4.5t-32 -13.5t-22.5 -22.5t-8.5 -32.5q0 -35 25.5 -49t74.5 -28q94 -28 168 -69.5t125.5 -93t79 -111.5t27.5 -126q0 -33 -14 -66t-40 -62t-62.5 -53.5t-82.5 -40.5zM418 656q19 -5 67 -6q-18 20 -35.5 35t-29.5 15t-16 -7.5t-4 -17.5q0 -14 18 -19z
" />
    <glyph glyph-name="jYra1" unicode="&#xf385;" horiz-adv-x="1750" 
d="M550 0l-142 142l58 58l277 159l-125 167q-8 -1 -17 -1h-17q-52 0 -104.5 15.5t-101 41.5t-90 60t-72.5 71t-48.5 74.5t-17.5 71.5q0 69 36 105t105 36q32 0 70 -23.5t78 -61t80.5 -85.5t78.5 -96q39 9 68 24t47.5 35t27.5 43t9 48t-13 55.5t-52 65t-111 71t-190 74.5
l-142 142l58 58h950v250h-1250l-142 142l58 58h1834l142 -142l-58 -58h-384v-1542l-58 -58l-142 142v260zM839 414l411 236v500h-531q55 -43 98 -89t72.5 -91.5t45 -88.5t15.5 -81q0 -42 -15 -80t-42.5 -71t-66.5 -58.5t-88 -41.5zM410 733q23 -5 57 -7q-12 14 -24.5 27
t-24.5 23.5t-23 17t-20 6.5q-12 0 -18.5 -7.5t-6.5 -17.5q0 -7 5.5 -14.5t19 -14.5t35.5 -13z" />
    <glyph glyph-name="ardhakr" unicode="&#xf386;" horiz-adv-x="1550" 
d="M484 350l-142 142l58 58l674 400q-51 41 -107.5 77.5t-116.5 63.5t-123 43t-127 16q-59 0 -104.5 -8.5t-80.5 -22.5t-63 -32t-52 -37l-142 142l58 58q13 13 38.5 30.5t63 33t87 26t111.5 10.5q79 0 154.5 -21.5t147.5 -60.5t142.5 -93t139.5 -119v544h-1100l-142 142
l58 58h1634l142 -142l-58 -58h-334v-523q50 32 104 52.5t112 20.5q37 0 76.5 -12.5t78 -33.5t73.5 -48t64 -56l142 -142l-58 -58q-35 28 -72 55t-74.5 48t-74.5 34t-71 13q-46 0 -86.5 -11.5t-77 -31t-70 -45.5t-66.5 -54v-750l-58 -58l-142 142v573z" />
    <glyph glyph-name="ardhakhr" unicode="&#xf387;" horiz-adv-x="1700" 
d="M290 852q-30 30 -47.5 57.5t-27 54t-12.5 50.5t-3 46t10 43t26 37t35.5 25.5t38.5 9.5q60 -1 103.5 -29t86.5 -71l119 -120q22 59 37.5 130.5t25 153.5t14 172.5t4.5 188.5h-700l-142 142l58 58h1784l142 -142l-58 -58h-884v-84q0 -155 -11 -295.5t-40.5 -257t-81 -203
t-132.5 -133.5q82 -77 163 -145.5t168 -131.5q66 -49 146 -78.5t164.5 -45.5t168 -21t155.5 -5l142 -142l-58 -58q-89 0 -172.5 5.5t-162 21.5t-153 45.5t-146.5 77.5q-99 66 -219 173.5t-257 244.5zM1342 308l-142 142l58 58l204 143q-62 31 -118 77t-99.5 99.5t-69 111
t-25.5 111.5q0 56 26 110t69.5 96t101 68t119.5 26q55 0 104 -19.5t92 -49.5t81 -67t73 -72l284 -284l-58 -58zM1889 951q-68 57 -115.5 95t-85 61t-69.5 33t-69 10q-42 0 -78.5 -13.5t-63.5 -38t-42.5 -58.5t-15.5 -74q0 -44 17.5 -75t47 -51.5t68.5 -30t83 -9.5
q48 0 90.5 12.5t86.5 36.5zM494 776q0 69 -7.5 108t-17.5 57.5t-34 26.5q-15 0 -21.5 -12t-6.5 -31q0 -29 22.5 -65t64.5 -84z" />
    <glyph glyph-name="ardhagr" unicode="&#xf388;" horiz-adv-x="1050" 
d="M550 1025v575h-550l-142 142l58 58h1134l142 -142l-58 -58h-384v-709q0 -106 -38 -161t-117 -55q-36 0 -66.5 6t-63.5 23.5t-71 49t-88 81.5q-35 34 -63.5 65.5t-49 62.5t-32 64.5t-11.5 72.5q0 28 10.5 51t26.5 39.5t35.5 25.5t37.5 9q47 0 91.5 -23t98.5 -77zM492 58
l-142 142l58 58l900 742l142 -142l-58 -58zM419 888q17 -7 31 -7q0 23 -5.5 47t-15 44t-21 33t-23.5 13q-15 0 -21.5 -12t-6.5 -31t9 -36q10 -17 23.5 -30t29.5 -21z" />
    <glyph glyph-name="ardhaghr" unicode="&#xf389;" horiz-adv-x="1000" 
d="M392 8l-142 142l58 58l268 224q-76 30 -144 82t-119.5 116t-82 134t-30.5 136q0 69 29.5 129t79.5 106q-44 34 -82 76.5t-66.5 89.5t-44.5 97.5t-16 101.5q0 21 4.5 46.5t14.5 53.5h-119l-142 142l58 58h1084l142 -142l-58 -58h-594q-45 -2 -80 -17t-59.5 -40t-37.5 -58
t-13 -69q0 -38 13 -69t35.5 -54.5t52 -40t63.5 -25.5q67 23 136 23h50l142 -142l-58 -58h-50q-60 0 -111.5 -17.5t-90 -49t-60.5 -74.5t-22 -93q0 -44 18 -83t51 -68.5t79 -47t102 -17.5q55 0 112 22.5t116 60.5l380 317l142 -142l-58 -58z" />
    <glyph glyph-name="ardhacr" unicode="&#xf38a;" horiz-adv-x="1100" 
d="M500 50l-142 142l58 58l336 232q-74 28 -138.5 76.5t-112 108.5t-74.5 128.5t-27 137.5q0 109 48 192h-314l-142 142l58 58h1008l142 -142l-58 -58h-259q-69 -9 -121.5 -33.5t-88.5 -60.5t-54.5 -82t-18.5 -99q0 -47 18 -84t49.5 -63t75.5 -39.5t97 -13.5
q81 0 148.5 23.5t133.5 63.5l278 191l100 -70v-108l-66 -58zM0 1600l-142 142l58 58h1184l142 -142l-58 -58h-1184z" />
    <glyph glyph-name="ardhajr" unicode="&#xf38b;" horiz-adv-x="1700" 
d="M350 858q75 -112 135 -205t121 -160.5t130.5 -105t163.5 -37.5q56 0 102 18t79 51t51 79t18 102q0 75 -33.5 140t-85 116.5t-113.5 88t-118 55.5h-116l-142 142l58 58h966q69 0 123.5 -15.5t100 -42.5t86 -63.5t82.5 -78.5l142 -142l-550 -692l-58 -58l-142 142l536 675
q-29 20 -56 34.5t-55 23.5t-58.5 13t-66.5 4h-614q61 -51 118 -110t100.5 -121.5t69.5 -127t26 -125.5q0 -68 -28.5 -133.5t-78 -117.5t-116.5 -83.5t-143 -31.5q-111 0 -211 54.5t-199 157t-202.5 249t-221.5 331.5l58 58zM-50 1600l-142 142l58 58h1834l142 -142l-58 -58
h-1834z" />
    <glyph glyph-name="ardhajhr" unicode="&#xf38c;" horiz-adv-x="1800" 
d="M824 0q-130 0 -228.5 22.5t-171 58.5t-120.5 79.5t-77 86.5t-41 79.5t-12 57.5q0 35 12 65t36 52.5t60.5 35.5t86.5 13t109.5 -28t124 -75.5t133.5 -110t139 -130.5q75 11 143 40t119.5 69t82 87.5t30.5 97.5q0 37 -10 73t-33.5 64.5t-62 45.5t-94.5 17q-51 0 -102 -15.5
t-99.5 -34.5t-93 -34.5t-81.5 -15.5q-38 0 -89.5 23t-107 62t-110 90t-97.5 106.5t-69.5 112t-26.5 106.5q0 56 17.5 102t47 79t68.5 51t83 18h660v250h-1050l-142 142l58 58h1884l142 -142l-58 -58h-634v-392l-58 -58h-718q-50 0 -75 -35.5t-25 -98.5q0 -44 21 -83
t53 -68.5t70 -47t72 -17.5q31 0 75 15.5t94.5 34.5t104.5 34.5t105 15.5q64 0 127.5 -27.5t120.5 -72.5q106 0 221.5 17t227.5 45.5t213 64t179 73.5l142 -142l-500 -792l-58 -58l-142 142l337 534q-100 -32 -209.5 -54t-238.5 -28q29 -49 45 -96.5t16 -89.5
q0 -63 -33.5 -122.5t-89 -110.5t-127.5 -90.5t-148 -63.5l272 -271l-58 -58l-307 307q-22 -4 -43.5 -5.5t-41.5 -1.5h-50zM751 200q-87 69 -168.5 109.5t-158.5 40.5q-29 0 -39.5 -16.5t-10.5 -33.5q0 -26 34 -44.5t87 -31t118 -18.5t127 -6h11z" />
    <glyph glyph-name="ardhajhr1" unicode="&#xf38d;" horiz-adv-x="1700" 
d="M500 50l-142 142l58 58l748 550h-536q-7 -24 -13.5 -45.5t-14.5 -38.5q-14 -33 -28.5 -63t-33 -53t-43.5 -36.5t-61 -13.5q-41 0 -90.5 25.5t-92.5 66t-72 91.5t-29 101q0 70 25.5 112.5t82.5 53.5h191q5 36 8 73.5t3 76.5q0 56 -10.5 123t-39 130.5t-79 116.5t-131.5 80
h-200l-142 142l58 58h200q144 -56 247 -141.5t169 -185t97 -205.5t31 -203q0 -17 -0.5 -33t-1.5 -32h592v600h-250l-142 142l58 58h784l142 -142l-58 -58h-334v-600h508l142 -142l-58 -58h-592v-742l-58 -58l-142 142v459zM365 785q-15 -15 -15 -35q18 0 30.5 16t19.5 34
q-20 0 -35 -15z" />
    <glyph glyph-name="ardhaYr" unicode="&#xf38e;" horiz-adv-x="1500" 
d="M1042 8l-142 142l656 650h-360q-11 -67 -46 -126t-88.5 -103.5t-120.5 -70t-141 -25.5q-75 0 -153.5 32t-160.5 92t-166 146.5t-170 196.5l58 58l142 -142q40 -40 86 -73.5t93.5 -58t95 -38t91.5 -13.5q75 0 128.5 21.5t88 57.5t51 83t16.5 97q0 43 -18 82.5t-51 69
t-79 47t-102 17.5q-38 0 -70 -6t-62 -18t-59 -31t-59 -45l-142 142q24 40 59 70t75.5 49.5t85 29t88.5 9.5q69 0 142 -29.5t140.5 -78t123.5 -112t89 -130.5h597l142 -142zM-50 1600l-142 142l58 58h1634l142 -142l-58 -58h-1634z" />
    <glyph glyph-name="ardhaNr" unicode="&#xf38f;" horiz-adv-x="1200" 
d="M0 1600l-142 142l58 58h1284l142 -142l-58 -58h-284v-634q0 -62 -15 -127t-51.5 -118t-97.5 -87t-152 -34q-46 0 -99.5 18t-107.5 50.5t-104 77.5t-88.5 99t-61.5 114.5t-23 124.5v516h-200zM400 1000q0 -46 17 -83t45.5 -63t64 -40t73.5 -14q56 0 94.5 18t62 51t33.5 79
t10 102v550h-400v-600zM600 0l-142 142l58 58l942 800l142 -142l-58 -58z" />
    <glyph glyph-name="ardhaNr1" unicode="&#xf390;" horiz-adv-x="1450" 
d="M240 902q-30 30 -47.5 57.5t-27 54t-12.5 50.5t-3 46t10 43t26 37t35.5 25.5t38.5 9.5q60 -1 103.5 -29t86.5 -71l117 -118q12 35 18.5 72t10 79t4 89.5t0.5 102.5v250h-600l-142 142l58 58h1534l142 -142l-58 -58h-234v-792l-58 -58l-142 142v708h-300v-334
q0 -135 -10 -230t-34.5 -162t-65 -112.5t-101.5 -82.5q77 -73 139.5 -130t116 -101.5t101.5 -78.5t96.5 -63t101 -54.5t114.5 -51.5l142 -142l-58 -58q-110 46 -214.5 111t-215.5 154.5t-234.5 206t-270.5 263.5zM1192 308l-142 142l58 58l600 492l142 -142l-58 -58z
M444 826q0 69 -7.5 108t-17.5 57.5t-20 22.5t-14 4q-15 0 -21.5 -12t-6.5 -31q0 -29 22.5 -65t64.5 -84z" />
    <glyph glyph-name="ardhatr" unicode="&#xf391;" horiz-adv-x="900" 
d="M484 350l-142 142l58 58l674 400q-51 41 -107.5 77.5t-116.5 63.5t-123 43t-127 16q-59 0 -104.5 -8.5t-80.5 -22.5t-63 -32t-52 -37l-142 142l58 58q13 13 38.5 30.5t63 33t87 26t111.5 10.5q88 0 170.5 -26t162 -72.5t156 -111t153.5 -140.5l142 -142l-58 -58zM0 1600
l-142 142l58 58h984l142 -142l-58 -58h-984z" />
    <glyph glyph-name="ardhathr" unicode="&#xf392;" horiz-adv-x="1100" 
d="M484 0l-142 142l58 58l328 274q-69 21 -132 58t-118 82.5t-101.5 97.5t-82 103.5t-60 99t-34.5 85.5l58 58q109 0 194 23.5t143 71.5q-80 34 -152 83t-126 106.5t-85.5 119.5t-31.5 122q0 43 18.5 82.5t50.5 69t75 47t92 17.5q53 0 108.5 -19.5t107 -54t97 -81t79 -100
t53 -112t19.5 -117.5q0 -84 -31.5 -161t-92.5 -138.5t-150.5 -103t-204.5 -52.5q48 -100 147 -155.5t232 -55.5q56 0 109.5 17.5t104.5 45.5l344 287l142 -142l-58 -58zM581 1329q52 -15 107 -27q12 45 12 98q0 37 -13 73t-36.5 64.5t-56.5 45.5t-74 17q-53 0 -86.5 -27.5
t-33.5 -72.5q0 -47 24.5 -79t65 -54.5t91.5 -37.5z" />
    <glyph glyph-name="ardhadhr" unicode="&#xf393;" horiz-adv-x="1000" 
d="M392 0l-142 142l58 58l273 230q-77 29 -146 81.5t-121 117t-83 135t-31 136.5q0 78 37 143.5t97 113.5q-46 34 -88 75t-74.5 88t-52 100.5t-19.5 113.5q0 34 6 66h-106l-142 142l58 58h334l142 -142q-44 -44 -68 -97.5t-24 -110.5q0 -47 16.5 -84t41 -65t53 -46.5
t53.5 -27.5q67 23 136 23h50l142 -142l-58 -58h-50q-60 0 -111.5 -17.5t-90 -49t-60.5 -74.5t-22 -93q0 -44 18 -83t51 -68.5t79 -47t102 -17.5q39 0 78.5 12.5t80 34t81 50.5t81.5 61l287 242l142 -142l-58 -58z" />
    <glyph glyph-name="ardhadhr1" unicode="&#xf394;" horiz-adv-x="1200" 
d="M492 -50l-142 142l58 58l280 227q-68 25 -129 69t-107.5 100.5t-74 121.5t-27.5 132q0 72 28 129.5t79 100.5q-71 57 -127.5 113t-96.5 113.5t-61.5 118t-21.5 125.5q0 73 25 129t64 94t86 57.5t91 19.5q88 0 155 -33.5t112.5 -85t68.5 -113.5t23 -118q0 -46 -18 -83
t-50 -63t-76 -40t-97 -14q-49 0 -89 11.5t-72 31.5q21 -51 65 -100.5t119 -100.5q127 58 293 58l142 -142l-58 -58q-88 0 -159 -14.5t-121 -43.5t-77 -73t-27 -103q0 -44 17 -75t45.5 -51.5t64 -30t73.5 -9.5q46 0 96 16.5t102.5 45t107.5 67.5t111 85l291 236l142 -142
l-58 -58zM400 1563q-36 -36 -46 -97q21 -8 44.5 -12t51.5 -4q37 0 61.5 8.5t38.5 21t19.5 27t5.5 27.5q0 30 -18.5 48t-56.5 18q-63 0 -100 -37z" />
    <glyph glyph-name="ardhanr" unicode="&#xf395;" horiz-adv-x="1000" 
d="M500 150l-142 142l58 58l742 573q-45 24 -91 41.5t-95.5 29t-104.5 17t-117 5.5h-178q11 -21 17.5 -41t6.5 -37q0 -36 -12 -67.5t-33 -54.5t-51 -36.5t-66 -13.5q-26 0 -57 14t-62.5 36.5t-61.5 52.5t-52.5 61.5t-36.5 62.5t-14 57q0 36 12.5 66.5t34.5 52.5t52.5 34.5
t66.5 12.5h350q106 0 198 -19.5t167 -51t132 -70t95 -75.5l142 -142l-58 -58zM0 1600l-142 142l58 58h1084l142 -142l-58 -58h-1084zM365 1001q-15 -15 -15 -35q18 0 34 16t16 34q-20 0 -35 -15z" />
    <glyph glyph-name="ardhapr" unicode="&#xf396;" horiz-adv-x="900" 
d="M292 133l-142 142l58 58l384 269q-74 37 -144.5 94.5t-125.5 128t-88.5 150t-33.5 159.5v466h-200l-142 142l58 58h984l142 -142l-58 -58h-584v-550q0 -75 26 -131.5t68 -94t96 -56t110 -18.5q40 0 82.5 12.5t100.5 44.5l275 193l142 -142l-58 -58z" />
    <glyph glyph-name="ardhaphr" unicode="&#xf397;" horiz-adv-x="1600" 
d="M292 133l-142 142l58 58l384 269q-74 37 -144.5 94.5t-125.5 128t-88.5 150t-33.5 159.5v466h-200l-142 142l58 58h1684l142 -142l-58 -58h-384v-541q54 40 116 65.5t134 25.5q47 0 90 -12.5t82 -33.5t73 -48t63 -56l142 -142l-58 -58q-35 28 -71 55t-74 48t-79 34
t-84 13q-50 0 -95.5 -15.5t-86.5 -41t-79 -59t-73 -68.5v-708l-58 -58l-142 142v558zM400 1050q0 -75 26 -131.5t68 -94t96 -56t110 -18.5q40 0 83 13t102 46l215 150v641h-700v-550z" />
    <glyph glyph-name="ardhabr" unicode="&#xf398;" horiz-adv-x="900" 
d="M350 50l-142 142l58 58l334 241q-75 22 -147 70.5t-128 114.5t-90.5 145t-34.5 163q0 66 25 131.5t75 117.5t125 84.5t175 32.5q62 0 122 -18.5t115 -48.5t104.5 -68t92 -77t76.5 -75t59 -63l131 -142v-108l-66 -58zM0 1600l-142 142l58 58h984l142 -142l-58 -58h-984z
M1150 892l-8 8q-35 35 -83 78t-108 81.5t-127.5 64.5t-139.5 26q-62 0 -117 -19l369 -394q64 38 120 80.5t94 74.5zM400 900q0 -56 21 -102t59 -79t90 -51t114 -18q42 0 85 12t87 32l-369 393q-42 -33 -64.5 -80.5t-22.5 -106.5z" />
    <glyph glyph-name="ardhabhr" unicode="&#xf399;" horiz-adv-x="1100" 
d="M550 50l-142 142l58 58l654 550h-492q-7 -24 -13.5 -45.5t-14.5 -38.5q-14 -33 -28.5 -63t-33 -53t-43.5 -36.5t-61 -13.5q-41 0 -90.5 25.5t-92.5 66t-72 91.5t-29 101q0 70 25.5 112.5t82.5 53.5h191q5 36 8 73.5t3 76.5q0 56 -10.5 123t-39 130.5t-79 116.5t-131.5 80
h-200l-142 142l58 58h200q144 -56 247 -141.5t169 -185t97 -205.5t31 -203q0 -17 -0.5 -33t-1.5 -32h700l142 -142l-58 -58zM365 785q-15 -15 -15 -35q18 0 30.5 16t19.5 34q-20 0 -35 -15z" />
    <glyph glyph-name="ardhabhr1" unicode="&#xf39a;" horiz-adv-x="1150" 
d="M600 50l-142 142l58 58l654 550h-448q-10 -52 -25.5 -97.5t-38.5 -79.5t-53.5 -53.5t-70.5 -19.5q-41 0 -90.5 25.5t-92.5 66t-72 91.5t-29 101q0 70 25.5 112.5t82.5 53.5h184q4 45 5 91.5t2 91.5q-41 17 -88.5 40.5t-94.5 52.5t-90.5 63.5t-77 75t-53.5 87t-20 98.5
q0 37 14 73t40.5 64.5t63.5 45.5t82 17q44 0 92.5 -17t95.5 -50.5t90 -83.5t75.5 -114.5t52 -144.5t19.5 -174q0 -45 -0.5 -100.5t-4.5 -115.5h663l142 -142l-58 -58zM514 1358q22 -5 35 -8q-3 75 -16 123t-32.5 76.5t-43 39.5t-48.5 11q-42 0 -63 -24.5t-21 -59.5
q0 -29 13 -52t33.5 -40.5t46 -30t50.5 -21.5t46 -14zM500 800q-20 0 -35 -15t-15 -35q17 0 30.5 13.5t23.5 36.5h-4z" />
    <glyph glyph-name="ardhamr" unicode="&#xf39b;" horiz-adv-x="1100" 
d="M550 50l-142 142l58 58l654 550h-520v-84q0 -36 -12.5 -66.5t-34.5 -52.5t-52.5 -34.5t-66.5 -12.5q-26 0 -57 11.5t-62.5 32t-61.5 48t-52.5 59t-36.5 65.5t-14 68q0 31 5.5 59t18 49.5t33 36.5t51.5 21h142v600h-400l-142 142l58 58h1184l142 -142l-58 -58h-584v-600
h758l142 -142l-58 -58zM365 785q-15 -15 -15 -35q18 0 34 16t16 34q-20 0 -35 -15z" />
    <glyph glyph-name="ardhayr" unicode="&#xf39c;" horiz-adv-x="1050" 
d="M450 0l-142 142l58 58l318 270q-67 20 -123 55.5t-103 82.5t-85 101.5t-69.5 112.5t-57 116t-46.5 112l58 58q35 4 74.5 9.5t77.5 16t72.5 26.5t60.5 41.5t41.5 62t15.5 86.5q0 48 -25 89t-62.5 73.5t-81.5 55t-81 32.5h-350l-142 142l58 58h1134l142 -142l-58 -58h-533
q43 -36 79.5 -75t63 -81t41.5 -87t15 -91q0 -73 -37 -132.5t-94 -104t-124.5 -73t-128.5 -40.5q19 -54 46.5 -102.5t67 -85t93.5 -57.5t127 -21q43 0 86 13t84 35t80.5 49t75.5 56l232 197l142 -142l-58 -58z" />
    <glyph glyph-name="ardhalr" unicode="&#xf39d;" horiz-adv-x="1500" 
d="M800 0l-142 142q-99 99 -183 184.5t-145 167t-95.5 164t-34.5 176.5q0 100 34.5 177.5t92.5 130.5t133 80.5t156 27.5q59 0 109.5 -14t97 -40.5t91.5 -65t97 -90.5q79 103 172 156.5t183 53.5q80 0 152.5 -34.5t138.5 -90t126.5 -125.5t116.5 -142l-750 -708l-142 142
l690 652q-15 14 -42 32.5t-60.5 35t-71 27.5t-74.5 11q-56 0 -105 -20t-92 -57t-81 -89.5t-72 -117.5l-58 -58l-142 142q13 29 26.5 55.5t28.5 52.5q-54 41 -114.5 66.5t-140.5 25.5q-64 0 -118.5 -18.5t-95 -56t-63.5 -94t-23 -131.5q0 -85 35.5 -164t97 -161t145 -171.5
t180.5 -195.5zM0 1600l-142 142l58 58h1584l142 -142l-58 -58h-1584z" />
    <glyph glyph-name="ardhavr" unicode="&#xf39e;" horiz-adv-x="900" 
d="M350 50l-142 142l58 58l334 241q-75 22 -147 70.5t-128 114.5t-90.5 145t-34.5 163q0 66 25 131.5t75 117.5t125 84.5t175 32.5q62 0 122 -18.5t115 -48.5t104.5 -68t92 -77t76.5 -75t59 -63l131 -142v-108l-66 -58zM1150 892l-8 8q-35 36 -83 78.5t-108 81t-127.5 64.5
t-139.5 26q-62 0 -114 -18t-90 -51t-59 -79t-21 -102t21 -102t59 -79t90 -51t114 -18t128.5 26.5t129 64t116.5 79t92 72.5zM0 1600l-142 142l58 58h984l142 -142l-58 -58h-984z" />
    <glyph glyph-name="ardhazr" unicode="&#xf39f;" horiz-adv-x="1200" 
d="M650 250l-142 142l58 58l723 446q-74 29 -405 154q-20 8 -39 16.5t-39 18.5l-514 -285l-142 142l58 58l384 213q-51 38 -95.5 79t-77 84t-51 87t-18.5 87q0 41 18 85.5t51 81t79 60t102 23.5q50 0 103 -22t103 -58t94 -82t77.5 -94.5t53 -94.5t19.5 -83q0 -42 -22 -87
t-69 -90q328 -116 499 -189l142 -142l-58 -58zM750 1300q52 29 76 70.5t24 79.5q0 23 -12 49.5t-33.5 49t-52.5 37t-68 14.5q-32 0 -56.5 -12t-42 -31.5t-26.5 -43t-9 -47.5q0 -34 13.5 -61t36.5 -48.5t54.5 -39t66.5 -33.5z" />
    <glyph glyph-name="ardhaSr" unicode="&#xf3a0;" horiz-adv-x="900" 
d="M292 133l-142 142l58 58l384 269q-74 37 -144.5 94.5t-125.5 128t-88.5 150t-33.5 159.5v466h-200l-142 142l58 58h984l142 -142l-58 -58h-548l722 -600l142 -142l-58 -58zM400 1050q0 -75 26 -131.5t68 -94t96 -56t110 -18.5q40 0 82.5 12.5t100.5 44.5l190 133
l-673 560v-450z" />
    <glyph glyph-name="ardhasr" unicode="&#xf3a1;" horiz-adv-x="1450" 
d="M1142 0l-852 852q-30 30 -47.5 57.5t-27 54t-12.5 50.5t-3 46t10 43t26 37t35.5 25.5t38.5 9.5q60 -1 103.5 -29t86.5 -71l119 -120q22 59 37.5 130.5t25 153.5t14 172.5t4.5 188.5h-700l-142 142l58 58h1534l142 -142l-58 -58h-634v-84q0 -114 -6 -219t-20 -200
q58 24 126 38.5t158 14.5q139 0 272 -37.5t278 -112.5l142 -142l-58 -58l-592 -500l-142 142l58 58l463 391q-81 28 -164 43.5t-173 15.5q-85 0 -152 -13.5t-120.5 -34.5t-96.5 -46t-80 -49q-29 -60 -69 -106t-92 -76l568 -567zM494 776q0 69 -7.5 108t-17.5 57.5t-34 26.5
q-15 0 -21.5 -12t-6.5 -31q0 -29 22.5 -65t64.5 -84z" />
    </font>
</defs>
</svg>
