<?xml version="1.0" encoding="UTF-8" standalone="no"?><svg xmlns="http://www.w3.org/2000/svg" xmlns:xlink="http://www.w3.org/1999/xlink" contentScriptType="application/ecmascript" contentStyleType="text/css" height="662px" preserveAspectRatio="none" style="width:438px;height:662px;" version="1.1" viewBox="0 0 438 662" width="438px" zoomAndPan="magnify"><defs><filter height="300%" id="ffn53v2v1rn46" width="300%" x="-1" y="-1"><feGaussianBlur result="blurOut" stdDeviation="2.0"/><feColorMatrix in="blurOut" result="blurOut2" type="matrix" values="0 0 0 0 0 0 0 0 0 0 0 0 0 0 0 0 0 0 .4 0"/><feOffset dx="4.0" dy="4.0" in="blurOut2" result="blurOut3"/><feBlend in="SourceGraphic" in2="blurOut3" mode="normal"/></filter></defs><g><rect fill="#FAFAD2" filter="url(#ffn53v2v1rn46)" height="520.125" style="stroke: #A80036; stroke-width: 1.0;" width="10" x="126" y="84.2969"/><rect fill="#FAFAD2" filter="url(#ffn53v2v1rn46)" height="127.3984" style="stroke: #A80036; stroke-width: 1.0;" width="10" x="276" y="186.6953"/><rect fill="#FAFAD2" filter="url(#ffn53v2v1rn46)" height="311.3281" style="stroke: #A80036; stroke-width: 1.0;" width="10" x="338" y="215.8281"/><rect fill="#FAFAD2" filter="url(#ffn53v2v1rn46)" height="175.6641" style="stroke: #A80036; stroke-width: 1.0;" width="10" x="400" y="244.9609"/><line style="stroke: #A80036; stroke-width: 1.0; stroke-dasharray: 5.0,5.0;" x1="33" x2="33" y1="38.2969" y2="622.6875"/><line style="stroke: #A80036; stroke-width: 1.0; stroke-dasharray: 5.0,5.0;" x1="130.5" x2="130.5" y1="38.2969" y2="622.6875"/><line style="stroke: #A80036; stroke-width: 1.0; stroke-dasharray: 5.0,5.0;" x1="281" x2="281" y1="38.2969" y2="622.6875"/><line style="stroke: #A80036; stroke-width: 1.0; stroke-dasharray: 5.0,5.0;" x1="343" x2="343" y1="38.2969" y2="622.6875"/><line style="stroke: #A80036; stroke-width: 1.0; stroke-dasharray: 5.0,5.0;" x1="405" x2="405" y1="38.2969" y2="622.6875"/><rect fill="#FEFECE" filter="url(#ffn53v2v1rn46)" height="30.2969" style="stroke: #A80036; stroke-width: 1.5;" width="46" x="8" y="3"/><text fill="#000000" font-family="sans-serif" font-size="14" lengthAdjust="spacingAndGlyphs" textLength="32" x="15" y="22.9951">User</text><rect fill="#FEFECE" filter="url(#ffn53v2v1rn46)" height="30.2969" style="stroke: #A80036; stroke-width: 1.5;" width="46" x="8" y="621.6875"/><text fill="#000000" font-family="sans-serif" font-size="14" lengthAdjust="spacingAndGlyphs" textLength="32" x="15" y="641.6826">User</text><rect fill="#FEFECE" filter="url(#ffn53v2v1rn46)" height="30.2969" style="stroke: #A80036; stroke-width: 1.5;" width="53" x="102.5" y="3"/><text fill="#000000" font-family="sans-serif" font-size="14" lengthAdjust="spacingAndGlyphs" textLength="39" x="109.5" y="22.9951">Client</text><rect fill="#FEFECE" filter="url(#ffn53v2v1rn46)" height="30.2969" style="stroke: #A80036; stroke-width: 1.5;" width="53" x="102.5" y="621.6875"/><text fill="#000000" font-family="sans-serif" font-size="14" lengthAdjust="spacingAndGlyphs" textLength="39" x="109.5" y="641.6826">Client</text><rect fill="#FEFECE" filter="url(#ffn53v2v1rn46)" height="30.2969" style="stroke: #A80036; stroke-width: 1.5;" width="48" x="255" y="3"/><text fill="#000000" font-family="sans-serif" font-size="14" lengthAdjust="spacingAndGlyphs" textLength="34" x="262" y="22.9951">API 1</text><rect fill="#FEFECE" filter="url(#ffn53v2v1rn46)" height="30.2969" style="stroke: #A80036; stroke-width: 1.5;" width="48" x="255" y="621.6875"/><text fill="#000000" font-family="sans-serif" font-size="14" lengthAdjust="spacingAndGlyphs" textLength="34" x="262" y="641.6826">API 1</text><rect fill="#FEFECE" filter="url(#ffn53v2v1rn46)" height="30.2969" style="stroke: #A80036; stroke-width: 1.5;" width="48" x="317" y="3"/><text fill="#000000" font-family="sans-serif" font-size="14" lengthAdjust="spacingAndGlyphs" textLength="34" x="324" y="22.9951">API 2</text><rect fill="#FEFECE" filter="url(#ffn53v2v1rn46)" height="30.2969" style="stroke: #A80036; stroke-width: 1.5;" width="48" x="317" y="621.6875"/><text fill="#000000" font-family="sans-serif" font-size="14" lengthAdjust="spacingAndGlyphs" textLength="34" x="324" y="641.6826">API 2</text><rect fill="#FEFECE" filter="url(#ffn53v2v1rn46)" height="30.2969" style="stroke: #A80036; stroke-width: 1.5;" width="48" x="379" y="3"/><text fill="#000000" font-family="sans-serif" font-size="14" lengthAdjust="spacingAndGlyphs" textLength="34" x="386" y="22.9951">API 3</text><rect fill="#FEFECE" filter="url(#ffn53v2v1rn46)" height="30.2969" style="stroke: #A80036; stroke-width: 1.5;" width="48" x="379" y="621.6875"/><text fill="#000000" font-family="sans-serif" font-size="14" lengthAdjust="spacingAndGlyphs" textLength="34" x="386" y="641.6826">API 3</text><rect fill="#FAFAD2" filter="url(#ffn53v2v1rn46)" height="520.125" style="stroke: #A80036; stroke-width: 1.0;" width="10" x="126" y="84.2969"/><rect fill="#FAFAD2" filter="url(#ffn53v2v1rn46)" height="127.3984" style="stroke: #A80036; stroke-width: 1.0;" width="10" x="276" y="186.6953"/><rect fill="#FAFAD2" filter="url(#ffn53v2v1rn46)" height="311.3281" style="stroke: #A80036; stroke-width: 1.0;" width="10" x="338" y="215.8281"/><rect fill="#FAFAD2" filter="url(#ffn53v2v1rn46)" height="175.6641" style="stroke: #A80036; stroke-width: 1.0;" width="10" x="400" y="244.9609"/><polygon fill="#A80036" points="114,80.2969,124,84.2969,114,88.2969,118,84.2969" style="stroke: #A80036; stroke-width: 1.0;"/><line style="stroke: #A80036; stroke-width: 1.0;" x1="33" x2="120" y1="84.2969" y2="84.2969"/><text fill="#000000" font-family="sans-serif" font-size="13" lengthAdjust="spacingAndGlyphs" textLength="43" x="40" y="64.3638">search</text><text fill="#000000" font-family="sans-serif" font-size="13" lengthAdjust="spacingAndGlyphs" textLength="62" x="40" y="79.4966">headword</text><polygon fill="#FBFB77" filter="url(#ffn53v2v1rn46)" points="75,117.5625,186,117.5625,196,128.5625,186,140.5625,75,140.5625,65,128.5625,75,117.5625" style="stroke: #A80036; stroke-width: 1.0;"/><text fill="#000000" font-family="sans-serif" font-size="13" lengthAdjust="spacingAndGlyphs" textLength="107" x="77" y="133.6294">transliterate (3x)</text><polygon fill="#A80036" points="264,182.6953,274,186.6953,264,190.6953,268,186.6953" style="stroke: #A80036; stroke-width: 1.0;"/><line style="stroke: #A80036; stroke-width: 1.0;" x1="136" x2="270" y1="186.6953" y2="186.6953"/><text fill="#000000" font-family="sans-serif" font-size="13" lengthAdjust="spacingAndGlyphs" textLength="121" x="143" y="181.7622">GET /v1/headwords</text><polygon fill="#A80036" points="326,211.8281,336,215.8281,326,219.8281,330,215.8281" style="stroke: #A80036; stroke-width: 1.0;"/><line style="stroke: #A80036; stroke-width: 1.0;" x1="136" x2="332" y1="215.8281" y2="215.8281"/><text fill="#000000" font-family="sans-serif" font-size="13" lengthAdjust="spacingAndGlyphs" textLength="121" x="143" y="210.895">GET /v1/headwords</text><polygon fill="#A80036" points="388,240.9609,398,244.9609,388,248.9609,392,244.9609" style="stroke: #A80036; stroke-width: 1.0;"/><line style="stroke: #A80036; stroke-width: 1.0;" x1="136" x2="394" y1="244.9609" y2="244.9609"/><text fill="#000000" font-family="sans-serif" font-size="13" lengthAdjust="spacingAndGlyphs" textLength="121" x="143" y="240.0278">GET /v1/headwords</text><polygon fill="#A80036" points="147,310.0938,137,314.0938,147,318.0938,143,314.0938" style="stroke: #A80036; stroke-width: 1.0;"/><line style="stroke: #A80036; stroke-width: 1.0;" x1="141" x2="280" y1="314.0938" y2="314.0938"/><text fill="#000000" font-family="sans-serif" font-size="13" lengthAdjust="spacingAndGlyphs" textLength="69" x="153" y="309.1606">headwords</text><polygon fill="#FBFB77" filter="url(#ffn53v2v1rn46)" points="90,327.2266,172,327.2266,182,338.2266,172,350.2266,90,350.2266,80,338.2266,90,327.2266" style="stroke: #A80036; stroke-width: 1.0;"/><text fill="#000000" font-family="sans-serif" font-size="13" lengthAdjust="spacingAndGlyphs" textLength="78" x="92" y="343.2935">transliterate</text><polygon fill="#A80036" points="44,387.3594,34,391.3594,44,395.3594,40,391.3594" style="stroke: #A80036; stroke-width: 1.0;"/><line style="stroke: #A80036; stroke-width: 1.0;" x1="38" x2="125" y1="391.3594" y2="391.3594"/><text fill="#000000" font-family="sans-serif" font-size="13" lengthAdjust="spacingAndGlyphs" textLength="32" x="50" y="371.4263">show</text><text fill="#000000" font-family="sans-serif" font-size="13" lengthAdjust="spacingAndGlyphs" textLength="69" x="50" y="386.5591">headwords</text><polygon fill="#A80036" points="147,416.625,137,420.625,147,424.625,143,420.625" style="stroke: #A80036; stroke-width: 1.0;"/><line style="stroke: #A80036; stroke-width: 1.0;" x1="141" x2="404" y1="420.625" y2="420.625"/><text fill="#000000" font-family="sans-serif" font-size="13" lengthAdjust="spacingAndGlyphs" textLength="69" x="153" y="415.6919">headwords</text><polygon fill="#FBFB77" filter="url(#ffn53v2v1rn46)" points="90,433.7578,172,433.7578,182,444.7578,172,456.7578,90,456.7578,80,444.7578,90,433.7578" style="stroke: #A80036; stroke-width: 1.0;"/><text fill="#000000" font-family="sans-serif" font-size="13" lengthAdjust="spacingAndGlyphs" textLength="78" x="92" y="449.8247">transliterate</text><polygon fill="#A80036" points="44,493.8906,34,497.8906,44,501.8906,40,497.8906" style="stroke: #A80036; stroke-width: 1.0;"/><line style="stroke: #A80036; stroke-width: 1.0;" x1="38" x2="125" y1="497.8906" y2="497.8906"/><text fill="#000000" font-family="sans-serif" font-size="13" lengthAdjust="spacingAndGlyphs" textLength="32" x="50" y="477.9575">show</text><text fill="#000000" font-family="sans-serif" font-size="13" lengthAdjust="spacingAndGlyphs" textLength="69" x="50" y="493.0903">headwords</text><polygon fill="#A80036" points="147,523.1563,137,527.1563,147,531.1563,143,527.1563" style="stroke: #A80036; stroke-width: 1.0;"/><line style="stroke: #A80036; stroke-width: 1.0;" x1="141" x2="342" y1="527.1563" y2="527.1563"/><text fill="#000000" font-family="sans-serif" font-size="13" lengthAdjust="spacingAndGlyphs" textLength="69" x="153" y="522.2231">headwords</text><polygon fill="#FBFB77" filter="url(#ffn53v2v1rn46)" points="90,540.2891,172,540.2891,182,551.2891,172,563.2891,90,563.2891,80,551.2891,90,540.2891" style="stroke: #A80036; stroke-width: 1.0;"/><text fill="#000000" font-family="sans-serif" font-size="13" lengthAdjust="spacingAndGlyphs" textLength="78" x="92" y="556.356">transliterate</text><polygon fill="#A80036" points="44,600.4219,34,604.4219,44,608.4219,40,604.4219" style="stroke: #A80036; stroke-width: 1.0;"/><line style="stroke: #A80036; stroke-width: 1.0;" x1="38" x2="130" y1="604.4219" y2="604.4219"/><text fill="#000000" font-family="sans-serif" font-size="13" lengthAdjust="spacingAndGlyphs" textLength="32" x="50" y="584.4888">show</text><text fill="#000000" font-family="sans-serif" font-size="13" lengthAdjust="spacingAndGlyphs" textLength="69" x="50" y="599.6216">headwords</text><!--
@startuml
participant User as u
participant Client as c
participant "API 1" as a1
participant "API 2" as a2
participant "API 3" as a3

skinparam sequence {
       LifeLineBackgroundColor LightGoldenRodYellow
}

u -> c: search\nheadword
activate c
||20||
hnote over c: transliterate (3x)
||20||
c -> a1: GET /v1/headwords
activate a1
c -> a2: GET /v1/headwords
activate a2
c -> a3: GET /v1/headwords
activate a3
||40||
a1 -> c: headwords
deactivate a1
hnote over c: transliterate
c -> u: show\nheadwords

a3 -> c: headwords
deactivate a3
hnote over c: transliterate
c -> u: show\nheadwords

a2 -> c: headwords
deactivate a2
hnote over c: transliterate
c -> u: show\nheadwords

deactivate c

@enduml

PlantUML version 1.2017.15(Mon Jul 03 18:45:34 CEST 2017)
(GPL source distribution)
Java Runtime: OpenJDK Runtime Environment
JVM: OpenJDK 64-Bit Server VM
Java Version: 1.8.0_151-8u151-b12-1-b12
Operating System: Linux
OS Version: 4.14.0-3-amd64
Default Encoding: UTF-8
Language: en
Country: US
--></g></svg>