<?xml version="1.0" encoding="UTF-8" standalone="no"?><svg xmlns="http://www.w3.org/2000/svg" xmlns:xlink="http://www.w3.org/1999/xlink" contentScriptType="application/ecmascript" contentStyleType="text/css" height="527px" preserveAspectRatio="none" style="width:536px;height:527px;" version="1.1" viewBox="0 0 536 527" width="536px" zoomAndPan="magnify"><defs><filter height="300%" id="flztyqoqc7izs" width="300%" x="-1" y="-1"><feGaussianBlur result="blurOut" stdDeviation="2.0"/><feColorMatrix in="blurOut" result="blurOut2" type="matrix" values="0 0 0 0 0 0 0 0 0 0 0 0 0 0 0 0 0 0 .4 0"/><feOffset dx="4.0" dy="4.0" in="blurOut2" result="blurOut3"/><feBlend in="SourceGraphic" in2="blurOut3" mode="normal"/></filter></defs><g><!--class info--><rect fill="#FEFECE" filter="url(#flztyqoqc7izs)" height="82.4141" id="info" style="stroke: #A80036; stroke-width: 1.5;" width="77" x="144.5" y="8"/><ellipse cx="173.45" cy="24" fill="#B4A7E5" rx="11" ry="11" style="stroke: #A80036; stroke-width: 1.0;"/><path d="M169.3719,19.7656 L169.3719,17.6094 L176.7625,17.6094 L176.7625,19.7656 L174.2938,19.7656 L174.2938,27.8438 L176.7625,27.8438 L176.7625,30 L169.3719,30 L169.3719,27.8438 L171.8406,27.8438 L171.8406,19.7656 L169.3719,19.7656 Z "/><a target="_top" xlink:actuate="onRequest" xlink:href="../api.html#get--v1" xlink:show="new" xlink:title="../api.html#get--v1" xlink:type="simple"><text fill="#0000FF" font-family="sans-serif" font-size="12" font-style="italic" lengthAdjust="spacingAndGlyphs" text-decoration="underline" textLength="14" x="190.55" y="28.1543">v1</text><line style="stroke: #0000FF; stroke-width: 1.0;" x1="190.55" x2="204.55" y1="30.1543" y2="30.1543"/></a><line style="stroke: #A80036; stroke-width: 1.5;" x1="145.5" x2="220.5" y1="40" y2="40"/><text fill="#000000" font-family="sans-serif" font-size="11" lengthAdjust="spacingAndGlyphs" textLength="65" x="150.5" y="54.2104">Information</text><text fill="#000000" font-family="sans-serif" font-size="11" lengthAdjust="spacingAndGlyphs" textLength="55" x="150.5" y="83.8198">info get ()</text><line style="stroke: #A80036; stroke-width: 1.0;" x1="145.5" x2="172" y1="67.207" y2="67.207"/><text fill="#000000" font-family="sans-serif" font-size="11" lengthAdjust="spacingAndGlyphs" textLength="22" x="172" y="70.5151">http</text><line style="stroke: #A80036; stroke-width: 1.0;" x1="194" x2="220.5" y1="67.207" y2="67.207"/><!--class h--><rect fill="#FEFECE" filter="url(#flztyqoqc7izs)" height="82.4141" id="h" style="stroke: #A80036; stroke-width: 1.5;" width="182" x="6" y="150"/><ellipse cx="58.25" cy="166" fill="#B4A7E5" rx="11" ry="11" style="stroke: #A80036; stroke-width: 1.0;"/><path d="M54.1719,161.7656 L54.1719,159.6094 L61.5625,159.6094 L61.5625,161.7656 L59.0938,161.7656 L59.0938,169.8438 L61.5625,169.8438 L61.5625,172 L54.1719,172 L54.1719,169.8438 L56.6406,169.8438 L56.6406,161.7656 L54.1719,161.7656 Z "/><a target="_top" xlink:actuate="onRequest" xlink:href="../api.html#get--v1-headwords" xlink:show="new" xlink:title="../api.html#get--v1-headwords" xlink:type="simple"><text fill="#0000FF" font-family="sans-serif" font-size="12" font-style="italic" lengthAdjust="spacingAndGlyphs" text-decoration="underline" textLength="69" x="78.75" y="170.1543">headwords</text><line style="stroke: #0000FF; stroke-width: 1.0;" x1="78.75" x2="147.75" y1="172.1543" y2="172.1543"/></a><line style="stroke: #A80036; stroke-width: 1.5;" x1="7" x2="187" y1="182" y2="182"/><text fill="#000000" font-family="sans-serif" font-size="11" lengthAdjust="spacingAndGlyphs" textLength="170" x="12" y="196.2104">List of headwords and search</text><text fill="#000000" font-family="sans-serif" font-size="11" lengthAdjust="spacingAndGlyphs" textLength="97" x="12" y="225.8198">headwords get ()</text><line style="stroke: #A80036; stroke-width: 1.0;" x1="7" x2="86" y1="209.207" y2="209.207"/><text fill="#000000" font-family="sans-serif" font-size="11" lengthAdjust="spacingAndGlyphs" textLength="22" x="86" y="212.5151">http</text><line style="stroke: #A80036; stroke-width: 1.0;" x1="108" x2="187" y1="209.207" y2="209.207"/><!--class hi--><rect fill="#FEFECE" filter="url(#flztyqoqc7izs)" height="82.4141" id="hi" style="stroke: #A80036; stroke-width: 1.5;" width="109" x="42.5" y="292"/><ellipse cx="82.7" cy="308" fill="#B4A7E5" rx="11" ry="11" style="stroke: #A80036; stroke-width: 1.0;"/><path d="M78.6219,303.7656 L78.6219,301.6094 L86.0125,301.6094 L86.0125,303.7656 L83.5438,303.7656 L83.5438,311.8438 L86.0125,311.8438 L86.0125,314 L78.6219,314 L78.6219,311.8438 L81.0906,311.8438 L81.0906,303.7656 L78.6219,303.7656 Z "/><a target="_top" xlink:actuate="onRequest" xlink:href="../api.html#get--v1-headwords-(id)" xlink:show="new" xlink:title="../api.html#get--v1-headwords-(id)" xlink:type="simple"><text fill="#0000FF" font-family="sans-serif" font-size="12" font-style="italic" lengthAdjust="spacingAndGlyphs" text-decoration="underline" textLength="21" x="102.3" y="312.1543">(id)</text><line style="stroke: #0000FF; stroke-width: 1.0;" x1="102.3" x2="123.3" y1="314.1543" y2="314.1543"/></a><line style="stroke: #A80036; stroke-width: 1.5;" x1="43.5" x2="150.5" y1="324" y2="324"/><text fill="#000000" font-family="sans-serif" font-size="11" lengthAdjust="spacingAndGlyphs" textLength="57" x="48.5" y="338.2104">Headword</text><text fill="#000000" font-family="sans-serif" font-size="11" lengthAdjust="spacingAndGlyphs" textLength="97" x="48.5" y="367.8198">headwords get ()</text><line style="stroke: #A80036; stroke-width: 1.0;" x1="43.5" x2="86" y1="351.207" y2="351.207"/><text fill="#000000" font-family="sans-serif" font-size="11" lengthAdjust="spacingAndGlyphs" textLength="22" x="86" y="354.5151">http</text><line style="stroke: #A80036; stroke-width: 1.0;" x1="108" x2="150.5" y1="351.207" y2="351.207"/><!--class hic--><rect fill="#FEFECE" filter="url(#flztyqoqc7izs)" height="82.4141" id="hic" style="stroke: #A80036; stroke-width: 1.5;" width="141" x="26.5" y="434"/><ellipse cx="68.95" cy="450" fill="#B4A7E5" rx="11" ry="11" style="stroke: #A80036; stroke-width: 1.0;"/><path d="M64.8719,445.7656 L64.8719,443.6094 L72.2625,443.6094 L72.2625,445.7656 L69.7938,445.7656 L69.7938,453.8438 L72.2625,453.8438 L72.2625,456 L64.8719,456 L64.8719,453.8438 L67.3406,453.8438 L67.3406,445.7656 L64.8719,445.7656 Z "/><a target="_top" xlink:actuate="onRequest" xlink:href="../api.html#get--v1-headwords-(id)-context" xlink:show="new" xlink:title="../api.html#get--v1-headwords-(id)-context" xlink:type="simple"><text fill="#0000FF" font-family="sans-serif" font-size="12" font-style="italic" lengthAdjust="spacingAndGlyphs" text-decoration="underline" textLength="48" x="89.05" y="454.1543">context</text><line style="stroke: #0000FF; stroke-width: 1.0;" x1="89.05" x2="137.05" y1="456.1543" y2="456.1543"/></a><line style="stroke: #A80036; stroke-width: 1.5;" x1="27.5" x2="166.5" y1="466" y2="466"/><text fill="#000000" font-family="sans-serif" font-size="11" lengthAdjust="spacingAndGlyphs" textLength="129" x="32.5" y="480.2104">Context of a headword</text><text fill="#000000" font-family="sans-serif" font-size="11" lengthAdjust="spacingAndGlyphs" textLength="97" x="32.5" y="509.8198">headwords get ()</text><line style="stroke: #A80036; stroke-width: 1.0;" x1="27.5" x2="86" y1="493.207" y2="493.207"/><text fill="#000000" font-family="sans-serif" font-size="11" lengthAdjust="spacingAndGlyphs" textLength="22" x="86" y="496.5151">http</text><line style="stroke: #A80036; stroke-width: 1.0;" x1="108" x2="166.5" y1="493.207" y2="493.207"/><!--class a--><rect fill="#FEFECE" filter="url(#flztyqoqc7izs)" height="82.4141" id="a" style="stroke: #A80036; stroke-width: 1.5;" width="93" x="223.5" y="150"/><ellipse cx="245.7" cy="166" fill="#B4A7E5" rx="11" ry="11" style="stroke: #A80036; stroke-width: 1.0;"/><path d="M241.6219,161.7656 L241.6219,159.6094 L249.0125,159.6094 L249.0125,161.7656 L246.5438,161.7656 L246.5438,169.8438 L249.0125,169.8438 L249.0125,172 L241.6219,172 L241.6219,169.8438 L244.0906,169.8438 L244.0906,161.7656 L241.6219,161.7656 Z "/><a target="_top" xlink:actuate="onRequest" xlink:href="../api.html#get--v1-articles" xlink:show="new" xlink:title="../api.html#get--v1-articles" xlink:type="simple"><text fill="#0000FF" font-family="sans-serif" font-size="12" font-style="italic" lengthAdjust="spacingAndGlyphs" text-decoration="underline" textLength="45" x="261.3" y="170.1543">articles</text><line style="stroke: #0000FF; stroke-width: 1.0;" x1="261.3" x2="306.3" y1="172.1543" y2="172.1543"/></a><line style="stroke: #A80036; stroke-width: 1.5;" x1="224.5" x2="315.5" y1="182" y2="182"/><text fill="#000000" font-family="sans-serif" font-size="11" lengthAdjust="spacingAndGlyphs" textLength="81" x="229.5" y="196.2104">List of articles</text><text fill="#000000" font-family="sans-serif" font-size="11" lengthAdjust="spacingAndGlyphs" textLength="76" x="229.5" y="225.8198">articles get ()</text><line style="stroke: #A80036; stroke-width: 1.0;" x1="224.5" x2="259" y1="209.207" y2="209.207"/><text fill="#000000" font-family="sans-serif" font-size="11" lengthAdjust="spacingAndGlyphs" textLength="22" x="259" y="212.5151">http</text><line style="stroke: #A80036; stroke-width: 1.0;" x1="281" x2="315.5" y1="209.207" y2="209.207"/><!--class ai--><rect fill="#FEFECE" filter="url(#flztyqoqc7izs)" height="82.4141" id="ai" style="stroke: #A80036; stroke-width: 1.5;" width="88" x="226" y="292"/><ellipse cx="256.75" cy="308" fill="#B4A7E5" rx="11" ry="11" style="stroke: #A80036; stroke-width: 1.0;"/><path d="M252.6719,303.7656 L252.6719,301.6094 L260.0625,301.6094 L260.0625,303.7656 L257.5938,303.7656 L257.5938,311.8438 L260.0625,311.8438 L260.0625,314 L252.6719,314 L252.6719,311.8438 L255.1406,311.8438 L255.1406,303.7656 L252.6719,303.7656 Z "/><a target="_top" xlink:actuate="onRequest" xlink:href="../api.html#get--v1-articles-(id)" xlink:show="new" xlink:title="../api.html#get--v1-articles-(id)" xlink:type="simple"><text fill="#0000FF" font-family="sans-serif" font-size="12" font-style="italic" lengthAdjust="spacingAndGlyphs" text-decoration="underline" textLength="21" x="274.25" y="312.1543">(id)</text><line style="stroke: #0000FF; stroke-width: 1.0;" x1="274.25" x2="295.25" y1="314.1543" y2="314.1543"/></a><line style="stroke: #A80036; stroke-width: 1.5;" x1="227" x2="313" y1="324" y2="324"/><text fill="#000000" font-family="sans-serif" font-size="11" lengthAdjust="spacingAndGlyphs" textLength="35" x="232" y="338.2104">Article</text><text fill="#000000" font-family="sans-serif" font-size="11" lengthAdjust="spacingAndGlyphs" textLength="76" x="232" y="367.8198">articles get ()</text><line style="stroke: #A80036; stroke-width: 1.0;" x1="227" x2="259" y1="351.207" y2="351.207"/><text fill="#000000" font-family="sans-serif" font-size="11" lengthAdjust="spacingAndGlyphs" textLength="22" x="259" y="354.5151">http</text><line style="stroke: #A80036; stroke-width: 1.0;" x1="281" x2="313" y1="351.207" y2="351.207"/><!--class aif--><rect fill="#FEFECE" filter="url(#flztyqoqc7izs)" height="82.4141" id="aif" style="stroke: #A80036; stroke-width: 1.5;" width="135" x="202.5" y="434"/><ellipse cx="242.7" cy="450" fill="#B4A7E5" rx="11" ry="11" style="stroke: #A80036; stroke-width: 1.0;"/><path d="M238.6219,445.7656 L238.6219,443.6094 L246.0125,443.6094 L246.0125,445.7656 L243.5438,445.7656 L243.5438,453.8438 L246.0125,453.8438 L246.0125,456 L238.6219,456 L238.6219,453.8438 L241.0906,453.8438 L241.0906,445.7656 L238.6219,445.7656 Z "/><a target="_top" xlink:actuate="onRequest" xlink:href="../api.html#get--v1-articles-(id)-formats" xlink:show="new" xlink:title="../api.html#get--v1-articles-(id)-formats" xlink:type="simple"><text fill="#0000FF" font-family="sans-serif" font-size="12" font-style="italic" lengthAdjust="spacingAndGlyphs" text-decoration="underline" textLength="47" x="262.3" y="454.1543">formats</text><line style="stroke: #0000FF; stroke-width: 1.0;" x1="262.3" x2="309.3" y1="456.1543" y2="456.1543"/></a><line style="stroke: #A80036; stroke-width: 1.5;" x1="203.5" x2="336.5" y1="466" y2="466"/><text fill="#000000" font-family="sans-serif" font-size="11" lengthAdjust="spacingAndGlyphs" textLength="123" x="208.5" y="480.2104">List of article formats</text><text fill="#000000" font-family="sans-serif" font-size="11" lengthAdjust="spacingAndGlyphs" textLength="79" x="208.5" y="509.8198">formats get ()</text><line style="stroke: #A80036; stroke-width: 1.0;" x1="203.5" x2="259" y1="493.207" y2="493.207"/><text fill="#000000" font-family="sans-serif" font-size="11" lengthAdjust="spacingAndGlyphs" textLength="22" x="259" y="496.5151">http</text><line style="stroke: #A80036; stroke-width: 1.0;" x1="281" x2="336.5" y1="493.207" y2="493.207"/><!--class aih--><rect fill="#FEFECE" filter="url(#flztyqoqc7izs)" height="82.4141" id="aih" style="stroke: #A80036; stroke-width: 1.5;" width="153" x="372.5" y="434"/><ellipse cx="410.9" cy="450" fill="#B4A7E5" rx="11" ry="11" style="stroke: #A80036; stroke-width: 1.0;"/><path d="M406.8219,445.7656 L406.8219,443.6094 L414.2125,443.6094 L414.2125,445.7656 L411.7438,445.7656 L411.7438,453.8438 L414.2125,453.8438 L414.2125,456 L406.8219,456 L406.8219,453.8438 L409.2906,453.8438 L409.2906,445.7656 L406.8219,445.7656 Z "/><a target="_top" xlink:actuate="onRequest" xlink:href="../api.html#get--v1-articles-(id)-headwords" xlink:show="new" xlink:title="../api.html#get--v1-articles-(id)-headwords" xlink:type="simple"><text fill="#0000FF" font-family="sans-serif" font-size="12" font-style="italic" lengthAdjust="spacingAndGlyphs" text-decoration="underline" textLength="69" x="430.1" y="454.1543">headwords</text><line style="stroke: #0000FF; stroke-width: 1.0;" x1="430.1" x2="499.1" y1="456.1543" y2="456.1543"/></a><line style="stroke: #A80036; stroke-width: 1.5;" x1="373.5" x2="524.5" y1="466" y2="466"/><text fill="#000000" font-family="sans-serif" font-size="11" lengthAdjust="spacingAndGlyphs" textLength="141" x="378.5" y="480.2104">List of article headwords</text><text fill="#000000" font-family="sans-serif" font-size="11" lengthAdjust="spacingAndGlyphs" textLength="97" x="378.5" y="509.8198">headwords get ()</text><line style="stroke: #A80036; stroke-width: 1.0;" x1="373.5" x2="438" y1="493.207" y2="493.207"/><text fill="#000000" font-family="sans-serif" font-size="11" lengthAdjust="spacingAndGlyphs" textLength="22" x="438" y="496.5151">http</text><line style="stroke: #A80036; stroke-width: 1.0;" x1="460" x2="524.5" y1="493.207" y2="493.207"/><!--link info to h--><path d="M158.356,90.118 C147.74,107.4 135.287,127.672 124.384,145.421 " fill="none" id="info-h" style="stroke: #A80036; stroke-width: 1.0;"/><polygon fill="#A80036" points="121.648,149.876,129.7673,144.3014,124.2653,145.6157,122.9509,140.1137,121.648,149.876" style="stroke: #A80036; stroke-width: 1.0;"/><!--link info to a--><path d="M207.931,90.118 C218.67,107.4 231.268,127.672 242.297,145.421 " fill="none" id="info-a" style="stroke: #A80036; stroke-width: 1.0;"/><polygon fill="#A80036" points="245.066,149.876,243.7119,140.1207,242.4264,145.6295,236.9176,144.344,245.066,149.876" style="stroke: #A80036; stroke-width: 1.0;"/><!--link h to hi--><path d="M97,232.118 C97,249.107 97,268.986 97,286.516 " fill="none" id="h-hi" style="stroke: #A80036; stroke-width: 1.0;"/><polygon fill="#A80036" points="97,291.876,101,282.876,97,286.876,93,282.876,97,291.876" style="stroke: #A80036; stroke-width: 1.0;"/><!--link hi to hic--><path d="M97,374.118 C97,391.107 97,410.986 97,428.5164 " fill="none" id="hi-hic" style="stroke: #A80036; stroke-width: 1.0;"/><polygon fill="#A80036" points="97,433.8758,101,424.8758,97,428.8758,93,424.8758,97,433.8758" style="stroke: #A80036; stroke-width: 1.0;"/><!--link a to ai--><path d="M270,232.118 C270,249.107 270,268.986 270,286.516 " fill="none" id="a-ai" style="stroke: #A80036; stroke-width: 1.0;"/><polygon fill="#A80036" points="270,291.876,274,282.876,270,286.876,266,282.876,270,291.876" style="stroke: #A80036; stroke-width: 1.0;"/><!--link ai to aif--><path d="M270,374.118 C270,391.107 270,410.986 270,428.5164 " fill="none" id="ai-aif" style="stroke: #A80036; stroke-width: 1.0;"/><polygon fill="#A80036" points="270,433.8758,274,424.8758,270,428.8758,266,424.8758,270,433.8758" style="stroke: #A80036; stroke-width: 1.0;"/><!--link ai to aih--><path d="M314.247,368.607 C338.226,387.361 368.085,410.714 393.598,430.6685 " fill="none" id="ai-aih" style="stroke: #A80036; stroke-width: 1.0;"/><polygon fill="#A80036" points="397.653,433.8406,393.0275,425.1455,393.7143,430.7605,388.0993,431.4474,397.653,433.8406" style="stroke: #A80036; stroke-width: 1.0;"/><!--
@startuml
hide stereotype
hide empty methods

interface "[[../api.html#get- -v1 v1]]" as info <<endpoint>> {
Information
- - http - -
info get ()
}

interface "[[../api.html#get- -v1-headwords headwords]]" as h <<endpoint>> {
List of headwords and search
- - http - -
headwords get ()
}

interface "[[../api.html#get- -v1-headwords-(id) (id)]]" as hi <<endpoint>> {
Headword
- - http - -
headwords get ()
}

interface "[[../api.html#get- -v1-headwords-(id)-context context]]" as hic <<endpoint>> {
Context of a headword
- - http - -
headwords get ()
}

interface "[[../api.html#get- -v1-articles articles]]" as a <<endpoint>> {
List of articles
- - http - -
articles get ()
}

interface "[[../api.html#get- -v1-articles-(id) (id)]]" as ai <<endpoint>> {
Article
- - http - -
articles get ()
}

interface "[[../api.html#get- -v1-articles-(id)-formats formats]]" as aif <<endpoint>> {
List of article formats
- - http - -
formats get ()
}

interface "[[../api.html#get- -v1-articles-(id)-headwords headwords]]" as aih <<endpoint>> {
List of article headwords
- - http - -
headwords get ()
}

info - -> h
info - -> a
h   - -> hi
hi  - -> hic
a   - -> ai
ai  - -> aif
ai  - -> aih

@enduml

PlantUML version 1.2017.15(Mon Jul 03 18:45:34 CEST 2017)
(GPL source distribution)
Java Runtime: OpenJDK Runtime Environment
JVM: OpenJDK 64-Bit Server VM
Java Version: 1.8.0_151-8u151-b12-1-b12
Operating System: Linux
OS Version: 4.14.0-3-amd64
Default Encoding: UTF-8
Language: en
Country: US
--></g></svg>