<?xml version="1.0" encoding="UTF-8" standalone="no"?><svg xmlns="http://www.w3.org/2000/svg" xmlns:xlink="http://www.w3.org/1999/xlink" contentScriptType="application/ecmascript" contentStyleType="text/css" height="555px" preserveAspectRatio="none" style="width:373px;height:555px;" version="1.1" viewBox="0 0 373 555" width="373px" zoomAndPan="magnify"><defs><filter height="300%" id="f1tte0gr1xv44t" width="300%" x="-1" y="-1"><feGaussianBlur result="blurOut" stdDeviation="2.0"/><feColorMatrix in="blurOut" result="blurOut2" type="matrix" values="0 0 0 0 0 0 0 0 0 0 0 0 0 0 0 0 0 0 .4 0"/><feOffset dx="4.0" dy="4.0" in="blurOut2" result="blurOut3"/><feBlend in="SourceGraphic" in2="blurOut3" mode="normal"/></filter></defs><g><rect fill="#FAFAD2" filter="url(#f1tte0gr1xv44t)" height="427.9922" style="stroke: #A80036; stroke-width: 1.0;" width="10" x="116" y="69.2969"/><rect fill="#FAFAD2" filter="url(#f1tte0gr1xv44t)" height="258.1953" style="stroke: #A80036; stroke-width: 1.0;" width="10" x="211" y="209.9609"/><rect fill="#FAFAD2" filter="url(#f1tte0gr1xv44t)" height="112.5313" style="stroke: #A80036; stroke-width: 1.0;" width="10" x="273" y="239.0938"/><rect fill="#FAFAD2" filter="url(#f1tte0gr1xv44t)" height="141.6641" style="stroke: #A80036; stroke-width: 1.0;" width="10" x="335" y="268.2266"/><line style="stroke: #A80036; stroke-width: 1.0; stroke-dasharray: 5.0,5.0;" x1="33" x2="33" y1="38.2969" y2="515.4219"/><line style="stroke: #A80036; stroke-width: 1.0; stroke-dasharray: 5.0,5.0;" x1="120.5" x2="120.5" y1="38.2969" y2="515.4219"/><line style="stroke: #A80036; stroke-width: 1.0; stroke-dasharray: 5.0,5.0;" x1="216" x2="216" y1="38.2969" y2="515.4219"/><line style="stroke: #A80036; stroke-width: 1.0; stroke-dasharray: 5.0,5.0;" x1="278" x2="278" y1="38.2969" y2="515.4219"/><line style="stroke: #A80036; stroke-width: 1.0; stroke-dasharray: 5.0,5.0;" x1="340" x2="340" y1="38.2969" y2="515.4219"/><rect fill="#FEFECE" filter="url(#f1tte0gr1xv44t)" height="30.2969" style="stroke: #A80036; stroke-width: 1.5;" width="46" x="8" y="3"/><text fill="#000000" font-family="sans-serif" font-size="14" lengthAdjust="spacingAndGlyphs" textLength="32" x="15" y="22.9951">User</text><rect fill="#FEFECE" filter="url(#f1tte0gr1xv44t)" height="30.2969" style="stroke: #A80036; stroke-width: 1.5;" width="46" x="8" y="514.4219"/><text fill="#000000" font-family="sans-serif" font-size="14" lengthAdjust="spacingAndGlyphs" textLength="32" x="15" y="534.417">User</text><rect fill="#FEFECE" filter="url(#f1tte0gr1xv44t)" height="30.2969" style="stroke: #A80036; stroke-width: 1.5;" width="53" x="92.5" y="3"/><text fill="#000000" font-family="sans-serif" font-size="14" lengthAdjust="spacingAndGlyphs" textLength="39" x="99.5" y="22.9951">Client</text><rect fill="#FEFECE" filter="url(#f1tte0gr1xv44t)" height="30.2969" style="stroke: #A80036; stroke-width: 1.5;" width="53" x="92.5" y="514.4219"/><text fill="#000000" font-family="sans-serif" font-size="14" lengthAdjust="spacingAndGlyphs" textLength="39" x="99.5" y="534.417">Client</text><rect fill="#FEFECE" filter="url(#f1tte0gr1xv44t)" height="30.2969" style="stroke: #A80036; stroke-width: 1.5;" width="48" x="190" y="3"/><text fill="#000000" font-family="sans-serif" font-size="14" lengthAdjust="spacingAndGlyphs" textLength="34" x="197" y="22.9951">API 1</text><rect fill="#FEFECE" filter="url(#f1tte0gr1xv44t)" height="30.2969" style="stroke: #A80036; stroke-width: 1.5;" width="48" x="190" y="514.4219"/><text fill="#000000" font-family="sans-serif" font-size="14" lengthAdjust="spacingAndGlyphs" textLength="34" x="197" y="534.417">API 1</text><rect fill="#FEFECE" filter="url(#f1tte0gr1xv44t)" height="30.2969" style="stroke: #A80036; stroke-width: 1.5;" width="48" x="252" y="3"/><text fill="#000000" font-family="sans-serif" font-size="14" lengthAdjust="spacingAndGlyphs" textLength="34" x="259" y="22.9951">API 2</text><rect fill="#FEFECE" filter="url(#f1tte0gr1xv44t)" height="30.2969" style="stroke: #A80036; stroke-width: 1.5;" width="48" x="252" y="514.4219"/><text fill="#000000" font-family="sans-serif" font-size="14" lengthAdjust="spacingAndGlyphs" textLength="34" x="259" y="534.417">API 2</text><rect fill="#FEFECE" filter="url(#f1tte0gr1xv44t)" height="30.2969" style="stroke: #A80036; stroke-width: 1.5;" width="48" x="314" y="3"/><text fill="#000000" font-family="sans-serif" font-size="14" lengthAdjust="spacingAndGlyphs" textLength="34" x="321" y="22.9951">API 3</text><rect fill="#FEFECE" filter="url(#f1tte0gr1xv44t)" height="30.2969" style="stroke: #A80036; stroke-width: 1.5;" width="48" x="314" y="514.4219"/><text fill="#000000" font-family="sans-serif" font-size="14" lengthAdjust="spacingAndGlyphs" textLength="34" x="321" y="534.417">API 3</text><rect fill="#FAFAD2" filter="url(#f1tte0gr1xv44t)" height="427.9922" style="stroke: #A80036; stroke-width: 1.0;" width="10" x="116" y="69.2969"/><rect fill="#FAFAD2" filter="url(#f1tte0gr1xv44t)" height="258.1953" style="stroke: #A80036; stroke-width: 1.0;" width="10" x="211" y="209.9609"/><rect fill="#FAFAD2" filter="url(#f1tte0gr1xv44t)" height="112.5313" style="stroke: #A80036; stroke-width: 1.0;" width="10" x="273" y="239.0938"/><rect fill="#FAFAD2" filter="url(#f1tte0gr1xv44t)" height="141.6641" style="stroke: #A80036; stroke-width: 1.0;" width="10" x="335" y="268.2266"/><polygon fill="#A80036" points="104,65.2969,114,69.2969,104,73.2969,108,69.2969" style="stroke: #A80036; stroke-width: 1.0;"/><line style="stroke: #A80036; stroke-width: 1.0;" x1="33" x2="110" y1="69.2969" y2="69.2969"/><text fill="#000000" font-family="sans-serif" font-size="13" lengthAdjust="spacingAndGlyphs" textLength="55" x="40" y="64.3638">navigate</text><line style="stroke: #A80036; stroke-width: 1.0;" x1="126" x2="168" y1="113.6953" y2="113.6953"/><line style="stroke: #A80036; stroke-width: 1.0;" x1="168" x2="168" y1="113.6953" y2="126.6953"/><line style="stroke: #A80036; stroke-width: 1.0;" x1="127" x2="168" y1="126.6953" y2="126.6953"/><polygon fill="#A80036" points="137,122.6953,127,126.6953,137,130.6953,133,126.6953" style="stroke: #A80036; stroke-width: 1.0;"/><text fill="#000000" font-family="sans-serif" font-size="13" lengthAdjust="spacingAndGlyphs" textLength="63" x="133" y="93.4966">GET list of</text><text fill="#000000" font-family="sans-serif" font-size="13" lengthAdjust="spacingAndGlyphs" textLength="71" x="133" y="108.6294">known APIs</text><polygon fill="#FBFB77" filter="url(#f1tte0gr1xv44t)" points="38,139.6953,38,179.6953,199,179.6953,199,149.6953,189,139.6953,38,139.6953" style="stroke: #A80036; stroke-width: 1.0;"/><line style="stroke: #A80036; stroke-width: 1.0;" x1="189" x2="189" y1="139.6953" y2="149.6953"/><line style="stroke: #A80036; stroke-width: 1.0;" x1="199" x2="189" y1="149.6953" y2="149.6953"/><text fill="#000000" font-family="sans-serif" font-size="13" lengthAdjust="spacingAndGlyphs" textLength="80" x="44" y="156.7622">list contains:</text><text fill="#000000" font-family="sans-serif" font-size="13" lengthAdjust="spacingAndGlyphs" textLength="140" x="44" y="171.895">API 1, API 2, and API 3</text><polygon fill="#A80036" points="199,205.9609,209,209.9609,199,213.9609,203,209.9609" style="stroke: #A80036; stroke-width: 1.0;"/><line style="stroke: #A80036; stroke-width: 1.0;" x1="126" x2="205" y1="209.9609" y2="209.9609"/><text fill="#000000" font-family="sans-serif" font-size="13" lengthAdjust="spacingAndGlyphs" textLength="48" x="133" y="205.0278">GET /v1</text><polygon fill="#A80036" points="261,235.0938,271,239.0938,261,243.0938,265,239.0938" style="stroke: #A80036; stroke-width: 1.0;"/><line style="stroke: #A80036; stroke-width: 1.0;" x1="126" x2="267" y1="239.0938" y2="239.0938"/><text fill="#000000" font-family="sans-serif" font-size="13" lengthAdjust="spacingAndGlyphs" textLength="48" x="133" y="234.1606">GET /v1</text><polygon fill="#A80036" points="323,264.2266,333,268.2266,323,272.2266,327,268.2266" style="stroke: #A80036; stroke-width: 1.0;"/><line style="stroke: #A80036; stroke-width: 1.0;" x1="126" x2="329" y1="268.2266" y2="268.2266"/><text fill="#000000" font-family="sans-serif" font-size="13" lengthAdjust="spacingAndGlyphs" textLength="48" x="133" y="263.2935">GET /v1</text><polygon fill="#FBFB77" filter="url(#f1tte0gr1xv44t)" points="204,281.3594,204,321.3594,348,321.3594,348,291.3594,338,281.3594,204,281.3594" style="stroke: #A80036; stroke-width: 1.0;"/><line style="stroke: #A80036; stroke-width: 1.0;" x1="338" x2="338" y1="281.3594" y2="291.3594"/><line style="stroke: #A80036; stroke-width: 1.0;" x1="348" x2="338" y1="291.3594" y2="291.3594"/><text fill="#000000" font-family="sans-serif" font-size="13" lengthAdjust="spacingAndGlyphs" textLength="123" x="210" y="298.4263">responses are sent</text><text fill="#000000" font-family="sans-serif" font-size="13" lengthAdjust="spacingAndGlyphs" textLength="107" x="210" y="313.5591">in arbitrary order</text><polygon fill="#A80036" points="137,347.625,127,351.625,137,355.625,133,351.625" style="stroke: #A80036; stroke-width: 1.0;"/><line style="stroke: #A80036; stroke-width: 1.0;" x1="131" x2="277" y1="351.625" y2="351.625"/><text fill="#000000" font-family="sans-serif" font-size="13" lengthAdjust="spacingAndGlyphs" textLength="23" x="143" y="346.6919">info</text><polygon fill="#A80036" points="44,376.7578,34,380.7578,44,384.7578,40,380.7578" style="stroke: #A80036; stroke-width: 1.0;"/><line style="stroke: #A80036; stroke-width: 1.0;" x1="38" x2="115" y1="380.7578" y2="380.7578"/><text fill="#000000" font-family="sans-serif" font-size="13" lengthAdjust="spacingAndGlyphs" textLength="59" x="50" y="375.8247">show info</text><polygon fill="#A80036" points="137,405.8906,127,409.8906,137,413.8906,133,409.8906" style="stroke: #A80036; stroke-width: 1.0;"/><line style="stroke: #A80036; stroke-width: 1.0;" x1="131" x2="339" y1="409.8906" y2="409.8906"/><text fill="#000000" font-family="sans-serif" font-size="13" lengthAdjust="spacingAndGlyphs" textLength="23" x="143" y="404.9575">info</text><polygon fill="#A80036" points="44,435.0234,34,439.0234,44,443.0234,40,439.0234" style="stroke: #A80036; stroke-width: 1.0;"/><line style="stroke: #A80036; stroke-width: 1.0;" x1="38" x2="115" y1="439.0234" y2="439.0234"/><text fill="#000000" font-family="sans-serif" font-size="13" lengthAdjust="spacingAndGlyphs" textLength="59" x="50" y="434.0903">show info</text><polygon fill="#A80036" points="137,464.1563,127,468.1563,137,472.1563,133,468.1563" style="stroke: #A80036; stroke-width: 1.0;"/><line style="stroke: #A80036; stroke-width: 1.0;" x1="131" x2="215" y1="468.1563" y2="468.1563"/><text fill="#000000" font-family="sans-serif" font-size="13" lengthAdjust="spacingAndGlyphs" textLength="23" x="143" y="463.2231">info</text><polygon fill="#A80036" points="44,493.2891,34,497.2891,44,501.2891,40,497.2891" style="stroke: #A80036; stroke-width: 1.0;"/><line style="stroke: #A80036; stroke-width: 1.0;" x1="38" x2="120" y1="497.2891" y2="497.2891"/><text fill="#000000" font-family="sans-serif" font-size="13" lengthAdjust="spacingAndGlyphs" textLength="59" x="50" y="492.356">show info</text><!--
@startuml
participant User as u
participant Client as c
participant "API 1" as a1
participant "API 2" as a2
participant "API 3" as a3

skinparam sequence {
       LifeLineBackgroundColor LightGoldenRodYellow
}

u -> c: navigate
activate c

c -> c: GET list of\nknown APIs
note over c: list contains:\nAPI 1, API 2, and API 3

c -> a1: GET /v1
activate a1
c -> a2: GET /v1
activate a2
c -> a3: GET /v1
activate a3

note over a2
   responses are sent
   in arbitrary order
end note

a2 -> c: info
deactivate a2
c -> u: show info

a3 -> c: info
deactivate a3
c -> u: show info

a1 -> c: info
deactivate a1
c -> u: show info
deactivate c

@enduml

PlantUML version 1.2017.15(Mon Jul 03 18:45:34 CEST 2017)
(GPL source distribution)
Java Runtime: OpenJDK Runtime Environment
JVM: OpenJDK 64-Bit Server VM
Java Version: 1.8.0_151-8u151-b12-1-b12
Operating System: Linux
OS Version: 4.14.0-3-amd64
Default Encoding: UTF-8
Language: en
Country: US
--></g></svg>